<svg xmlns="http://www.w3.org/2000/svg" xmlns:xlink="http://www.w3.org/1999/xlink" viewBox="0 0 426.45 205.84"><defs><style>.cls-1,.cls-36,.cls-59{fill:none;}.cls-2,.cls-5,.cls-73,.cls-75{font-size:7.05px;}.cls-19,.cls-2,.cls-29,.cls-32,.cls-34,.cls-37,.cls-39,.cls-40,.cls-43,.cls-45,.cls-47,.cls-5,.cls-54,.cls-60,.cls-73,.cls-75,.cls-8,.cls-81,.cls-91{font-family:TimesNewRomanPSMT, Times New Roman;}.cls-3{letter-spacing:0em;}.cls-4{letter-spacing:-0.01em;}.cls-5,.cls-7{letter-spacing:-0.01em;}.cls-6{letter-spacing:0em;}.cls-19,.cls-29,.cls-32,.cls-34,.cls-8{font-size:7.05px;}.cls-34,.cls-9{letter-spacing:0em;}.cls-10{letter-spacing:0em;}.cls-11,.cls-19{letter-spacing:-0.01em;}.cls-12{letter-spacing:-0.01em;}.cls-13{letter-spacing:0.02em;}.cls-14{letter-spacing:0.01em;}.cls-15{letter-spacing:-0.02em;}.cls-16{clip-path:url(#clip-path);}.cls-17{clip-path:url(#clip-path-2);}.cls-18{clip-path:url(#clip-path-3);}.cls-20{letter-spacing:0em;}.cls-21{letter-spacing:0.01em;}.cls-22{letter-spacing:-0.02em;}.cls-23{letter-spacing:0em;}.cls-24{letter-spacing:-0.01em;}.cls-25{letter-spacing:-0.01em;}.cls-26{letter-spacing:0em;}.cls-27{letter-spacing:0em;}.cls-28{letter-spacing:0.05em;}.cls-29{letter-spacing:0.06em;}.cls-30{letter-spacing:0em;}.cls-31,.cls-32{letter-spacing:0em;}.cls-33{letter-spacing:-0.01em;}.cls-35,.cls-65{fill:#fff;}.cls-36,.cls-59{stroke:#000;stroke-linecap:round;stroke-linejoin:round;}.cls-36{stroke-width:0.51px;}.cls-37,.cls-39,.cls-40{font-size:5.69px;}.cls-37{letter-spacing:-0.02em;}.cls-38{letter-spacing:0em;}.cls-39{letter-spacing:-0.02em;}.cls-41{letter-spacing:0em;}.cls-42{letter-spacing:0em;}.cls-43,.cls-45{font-size:5.69px;}.cls-43{letter-spacing:-0.01em;}.cls-44{letter-spacing:0em;}.cls-46{letter-spacing:0.01em;}.cls-47{font-size:9.94px;}.cls-48{letter-spacing:-0.01em;}.cls-49{letter-spacing:-0.01em;}.cls-50{letter-spacing:0em;}.cls-51{letter-spacing:0em;}.cls-52{letter-spacing:0em;}.cls-53{letter-spacing:0.01em;}.cls-54{font-size:8.49px;letter-spacing:0.01em;}.cls-55{letter-spacing:0em;}.cls-56{letter-spacing:0em;}.cls-57{letter-spacing:0.01em;}.cls-58{letter-spacing:0em;}.cls-59{stroke-width:0.12px;}.cls-60{font-size:16.99px;}.cls-61{letter-spacing:0em;}.cls-62{letter-spacing:0em;}.cls-63{letter-spacing:0em;}.cls-64{letter-spacing:0em;}.cls-65,.cls-89,.cls-90{fill-rule:evenodd;}.cls-66{letter-spacing:-0.01em;}.cls-67{letter-spacing:0.01em;}.cls-68,.cls-73{letter-spacing:-0.01em;}.cls-69{letter-spacing:0em;}.cls-70,.cls-75{letter-spacing:0em;}.cls-71{letter-spacing:0em;}.cls-72{letter-spacing:0em;}.cls-74{letter-spacing:0em;}.cls-76{letter-spacing:-0.03em;}.cls-77{letter-spacing:0em;}.cls-78{letter-spacing:-0.05em;}.cls-79{letter-spacing:-0.01em;}.cls-80{letter-spacing:0em;}.cls-81{font-size:12.74px;}.cls-82{letter-spacing:-0.11em;}.cls-83{letter-spacing:-0.17em;}.cls-84{letter-spacing:-0.06em;}.cls-85{letter-spacing:-0.05em;}.cls-86{letter-spacing:0em;}.cls-87{letter-spacing:0.05em;}.cls-88{letter-spacing:-0.06em;}.cls-89{fill:silver;}.cls-90{fill:navy;}.cls-91{font-size:9.95px;}</style><clipPath id="clip-path"><rect class="cls-1" x="405.6" y="99.94" width="18.36" height="7.92"/></clipPath><clipPath id="clip-path-2"><rect class="cls-1" x="405.6" y="85.78" width="18.36" height="7.92"/></clipPath><clipPath id="clip-path-3"><rect class="cls-1" x="405.6" y="72.82" width="18.36" height="7.92"/></clipPath></defs><title>TMC223</title><g id="Ebene_2" data-name="Ebene 2"><g id="Ebene_1-2" data-name="Ebene 1"><text class="cls-2" transform="translate(240.12 54.1) scale(1.01 1)"><tspan class="cls-3">O</tspan><tspan class="cls-4" x="5.07" y="0">A</tspan><tspan x="10.08" y="0">1</tspan></text><text class="cls-2" transform="translate(240.12 67.18) scale(1.01 1)"><tspan class="cls-3">O</tspan><tspan class="cls-4" x="5.07" y="0">A</tspan><tspan x="10.08" y="0">1</tspan></text><text class="cls-5" transform="translate(235.8 79.18) scale(1.01 1)">VBA<tspan class="cls-6" x="14.66" y="0">T</tspan></text><text class="cls-5" transform="translate(235.8 92.14) scale(1.01 1)">VBA<tspan class="cls-6" x="14.66" y="0">T</tspan></text><text class="cls-5" transform="translate(235.8 106.3) scale(1.01 1)">VBA<tspan class="cls-6" x="14.66" y="0">T</tspan></text><text class="cls-2" transform="translate(239.76 144.34) scale(1.01 1)"><tspan class="cls-7">S</tspan><tspan x="3.85" y="0">DA</tspan></text><text class="cls-8" transform="translate(324.96 21.82) rotate(-90)"><tspan class="cls-9">O</tspan><tspan class="cls-10" x="5.13" y="0">A</tspan><tspan x="10.2" y="0">2</tspan></text><text class="cls-8" transform="translate(377.52 21.82) rotate(-90)"><tspan class="cls-9">G</tspan><tspan class="cls-11" x="5.13" y="0">N</tspan><tspan x="10.17" y="0">D</tspan></text><text class="cls-8" transform="translate(352.2 187.9) rotate(-90)"><tspan class="cls-9">G</tspan><tspan class="cls-11" x="5.13" y="0">N</tspan><tspan x="10.17" y="0">D</tspan></text><text class="cls-8" transform="translate(339.12 187.78) rotate(-90)"><tspan class="cls-12">o</tspan><tspan class="cls-9" x="3.45" y="0">p</tspan><tspan class="cls-12" x="7.01" y="0">e</tspan><tspan x="10.06" y="0">n</tspan></text><text class="cls-8" transform="translate(311.88 187.9) rotate(-90)"><tspan class="cls-9">G</tspan><tspan class="cls-11" x="5.13" y="0">N</tspan><tspan x="10.17" y="0">D</tspan></text><text class="cls-8" transform="translate(325.92 185.74) rotate(-90)"><tspan class="cls-13">T</tspan><tspan class="cls-14" x="4.43" y="0">S</tspan><tspan x="8.45" y="0">T</tspan></text><text class="cls-2" transform="translate(405.6 144.34) scale(1.01 1)"><tspan class="cls-15">C</tspan><tspan class="cls-7" x="4.6" y="0">P</tspan><tspan x="8.44" y="0">N</tspan></text><text class="cls-2" transform="translate(405.6 132.22) scale(1.01 1)"><tspan class="cls-15">C</tspan><tspan class="cls-7" x="4.6" y="0">P</tspan><tspan x="8.44" y="0">P</tspan></text><text class="cls-2" transform="translate(405.6 119.26) scale(1.01 1)"><tspan class="cls-7">V</tspan><tspan class="cls-15" x="5.02" y="0">C</tspan><tspan x="9.62" y="0">P</tspan></text><g class="cls-16"><text class="cls-5" transform="translate(405.6 106.3) scale(1.01 1)">VBA<tspan class="cls-6" x="14.66" y="0">T</tspan></text></g><g class="cls-17"><text class="cls-5" transform="translate(405.6 92.14) scale(1.01 1)">VBA<tspan class="cls-6" x="14.66" y="0">T</tspan></text></g><g class="cls-18"><text class="cls-5" transform="translate(405.6 79.18) scale(1.01 1)">VBA<tspan class="cls-6" x="14.66" y="0">T</tspan></text></g><text class="cls-2" transform="translate(405.6 67.18) scale(1.01 1)"><tspan class="cls-3">O</tspan><tspan class="cls-4" x="5.07" y="0">B</tspan><tspan x="9.69" y="0">2</tspan></text><text class="cls-2" transform="translate(405.6 54.1) scale(1.01 1)"><tspan class="cls-3">O</tspan><tspan class="cls-4" x="5.07" y="0">B</tspan><tspan x="9.69" y="0">2</tspan></text><text class="cls-19" transform="translate(377.52 182.38) rotate(-90)">N<tspan class="cls-20" x="5.04" y="0">C</tspan></text><text class="cls-2" transform="translate(315.84 199.42) scale(1.01 1)"><tspan class="cls-21">T</tspan><tspan class="cls-22" x="4.38" y="0">o</tspan><tspan class="cls-23" x="7.78" y="0">p</tspan><tspan class="cls-24" x="11.3" y="0"> </tspan><tspan class="cls-25" x="13" y="0">v</tspan><tspan class="cls-26" x="16.44" y="0">i</tspan><tspan class="cls-27" x="18.38" y="0">e</tspan><tspan x="21.5" y="0">w</tspan></text><text class="cls-2" transform="translate(240.48 119.26) scale(1.01 1)"><tspan class="cls-7">S</tspan><tspan class="cls-28" x="3.85" y="0">W</tspan><tspan x="10.83" y="0">I</tspan></text><text class="cls-2" transform="translate(243.96 132.22) scale(1.01 1)">NC</text><text class="cls-29" transform="translate(364.32 184.3) rotate(-90)">H<tspan class="cls-30" x="5.52" y="0">W</tspan></text><text class="cls-8" transform="translate(299.76 187.06) rotate(-90)"><tspan class="cls-31">V</tspan><tspan class="cls-11" x="5.07" y="0">D</tspan><tspan x="10.11" y="0">D</tspan></text><text class="cls-32" transform="translate(286.68 185.86) rotate(-90)">S<tspan class="cls-33" x="3.9" y="0">C</tspan><tspan class="cls-30" x="8.55" y="0">L</tspan></text><text class="cls-8" transform="translate(365.4 21.82) rotate(-90)"><tspan class="cls-9">G</tspan><tspan class="cls-11" x="5.13" y="0">N</tspan><tspan x="10.17" y="0">D</tspan></text><text class="cls-34" transform="translate(352.2 21.82) rotate(-90)">O<tspan class="cls-31" x="5.13" y="0">B</tspan><tspan class="cls-30" x="9.81" y="0">1</tspan></text><text class="cls-34" transform="translate(339.12 21.82) rotate(-90)">O<tspan class="cls-31" x="5.13" y="0">B</tspan><tspan class="cls-30" x="9.81" y="0">1</tspan></text><text class="cls-8" transform="translate(311.88 21.82) rotate(-90)"><tspan class="cls-9">O</tspan><tspan class="cls-10" x="5.13" y="0">A</tspan><tspan x="10.2" y="0">2</tspan></text><text class="cls-8" transform="translate(299.76 21.82) rotate(-90)"><tspan class="cls-9">G</tspan><tspan class="cls-11" x="5.13" y="0">N</tspan><tspan x="10.17" y="0">D</tspan></text><text class="cls-8" transform="translate(286.68 21.82) rotate(-90)"><tspan class="cls-9">G</tspan><tspan class="cls-11" x="5.13" y="0">N</tspan><tspan x="10.17" y="0">D</tspan></text><rect class="cls-35" x="258.96" y="26.86" width="141.24" height="140.28"/><rect class="cls-36" x="258.96" y="26.86" width="141.24" height="140.28"/><rect class="cls-35" x="271.08" y="38.74" width="117" height="116.28"/><rect class="cls-36" x="271.08" y="38.74" width="117" height="116.28"/><rect class="cls-35" x="280.44" y="26.86" width="6.48" height="8.04"/><rect class="cls-36" x="280.44" y="26.86" width="6.48" height="8.04"/><text class="cls-37" transform="translate(280.68 32.62) scale(1.02 1)">3<tspan class="cls-38" x="2.76" y="0">2</tspan></text><rect class="cls-35" x="293.52" y="26.86" width="6.48" height="8.04"/><rect class="cls-36" x="293.52" y="26.86" width="6.48" height="8.04"/><text class="cls-39" transform="translate(293.64 32.62) scale(1.02 1)">3<tspan class="cls-38" x="2.76" y="0">1</tspan></text><rect class="cls-35" x="306.6" y="26.86" width="6.48" height="8.04"/><rect class="cls-36" x="306.6" y="26.86" width="6.48" height="8.04"/><text class="cls-40" transform="translate(306.72 32.62) scale(1.02 1)"><tspan class="cls-41">3</tspan><tspan x="2.86" y="0">0</tspan></text><rect class="cls-35" x="319.8" y="26.86" width="6.36" height="8.04"/><rect class="cls-36" x="319.8" y="26.86" width="6.36" height="8.04"/><text class="cls-37" transform="translate(319.92 32.62) scale(1.02 1)">2<tspan class="cls-38" x="2.76" y="0">9</tspan></text><rect class="cls-35" x="332.88" y="26.86" width="6.36" height="8.04"/><rect class="cls-36" x="332.88" y="26.86" width="6.36" height="8.04"/><text class="cls-37" transform="translate(333 32.62) scale(1.02 1)">2<tspan class="cls-38" x="2.76" y="0">8</tspan></text><rect class="cls-35" x="345.96" y="26.86" width="6.48" height="8.04"/><rect class="cls-36" x="345.96" y="26.86" width="6.48" height="8.04"/><text class="cls-40" transform="translate(346.08 32.62) scale(1.02 1)"><tspan class="cls-42">2</tspan><tspan x="2.86" y="0">7</tspan></text><rect class="cls-35" x="359.04" y="26.86" width="6.48" height="8.04"/><rect class="cls-36" x="359.04" y="26.86" width="6.48" height="8.04"/><text class="cls-39" transform="translate(359.28 32.62) scale(1.02 1)">2<tspan class="cls-38" x="2.76" y="0">6</tspan></text><rect class="cls-35" x="372.24" y="26.86" width="6.36" height="8.04"/><rect class="cls-36" x="372.24" y="26.86" width="6.36" height="8.04"/><text class="cls-37" transform="translate(372.24 32.62) scale(1.02 1)">2<tspan class="cls-38" x="2.76" y="0">5</tspan></text><rect class="cls-35" x="280.44" y="159.1" width="6.48" height="8.04"/><rect class="cls-36" x="280.44" y="159.1" width="6.48" height="8.04"/><text class="cls-40" transform="translate(282.12 164.86) scale(1.02 1)">9</text><rect class="cls-35" x="293.52" y="159.1" width="6.48" height="8.04"/><rect class="cls-36" x="293.52" y="159.1" width="6.48" height="8.04"/><text class="cls-39" transform="translate(293.64 164.86) scale(1.02 1)">1<tspan class="cls-38" x="2.76" y="0">0</tspan></text><rect class="cls-35" x="306.6" y="159.1" width="6.48" height="8.04"/><rect class="cls-36" x="306.6" y="159.1" width="6.48" height="8.04"/><text class="cls-40" transform="translate(306.72 164.86) scale(1.02 1)"><tspan class="cls-41">1</tspan><tspan x="2.86" y="0">1</tspan></text><rect class="cls-35" x="319.8" y="159.1" width="6.36" height="8.04"/><rect class="cls-36" x="319.8" y="159.1" width="6.36" height="8.04"/><text class="cls-37" transform="translate(319.92 164.86) scale(1.02 1)">1<tspan class="cls-38" x="2.76" y="0">2</tspan></text><rect class="cls-35" x="332.88" y="159.1" width="6.36" height="8.04"/><rect class="cls-36" x="332.88" y="159.1" width="6.36" height="8.04"/><text class="cls-37" transform="translate(333 164.86) scale(1.02 1)">1<tspan class="cls-38" x="2.76" y="0">3</tspan></text><rect class="cls-35" x="345.96" y="159.1" width="6.48" height="8.04"/><rect class="cls-36" x="345.96" y="159.1" width="6.48" height="8.04"/><text class="cls-40" transform="translate(346.08 164.86) scale(1.02 1)"><tspan class="cls-42">1</tspan><tspan x="2.86" y="0">4</tspan></text><rect class="cls-35" x="359.04" y="159.1" width="6.48" height="8.04"/><rect class="cls-36" x="359.04" y="159.1" width="6.48" height="8.04"/><text class="cls-39" transform="translate(359.28 164.86) scale(1.02 1)">1<tspan class="cls-38" x="2.76" y="0">5</tspan></text><rect class="cls-35" x="372.24" y="159.1" width="6.36" height="8.04"/><rect class="cls-36" x="372.24" y="159.1" width="6.36" height="8.04"/><text class="cls-37" transform="translate(372.24 164.86) scale(1.02 1)">1<tspan class="cls-38" x="2.76" y="0">6</tspan></text><rect class="cls-35" x="392.16" y="139.3" width="8.04" height="6.36"/><rect class="cls-36" x="392.16" y="139.3" width="8.04" height="6.36"/><text class="cls-43" transform="translate(398.04 145.54) rotate(-90)">1<tspan class="cls-44" x="2.81" y="0">7</tspan></text><rect class="cls-35" x="392.16" y="126.22" width="8.04" height="6.48"/><rect class="cls-36" x="392.16" y="126.22" width="8.04" height="6.48"/><text class="cls-43" transform="translate(398.04 132.7) rotate(-90)">1<tspan class="cls-44" x="2.81" y="0">8</tspan></text><rect class="cls-35" x="392.16" y="113.14" width="8.04" height="6.48"/><rect class="cls-36" x="392.16" y="113.14" width="8.04" height="6.48"/><text class="cls-43" transform="translate(398.04 119.62) rotate(-90)">1<tspan class="cls-44" x="2.81" y="0">9</tspan></text><rect class="cls-35" x="392.16" y="100.18" width="8.04" height="6.36"/><rect class="cls-36" x="392.16" y="100.18" width="8.04" height="6.36"/><text class="cls-43" transform="translate(398.04 106.54) rotate(-90)">2<tspan class="cls-44" x="2.81" y="0">0</tspan></text><rect class="cls-35" x="392.16" y="87.1" width="8.04" height="6.48"/><rect class="cls-36" x="392.16" y="87.1" width="8.04" height="6.48"/><text class="cls-43" transform="translate(398.04 93.46) rotate(-90)">2<tspan class="cls-44" x="2.81" y="0">1</tspan></text><rect class="cls-35" x="392.16" y="74.14" width="8.04" height="6.36"/><rect class="cls-36" x="392.16" y="74.14" width="8.04" height="6.36"/><text class="cls-45" transform="translate(398.04 80.62) rotate(-90)"><tspan class="cls-46">2</tspan><tspan x="2.92" y="0">2</tspan></text><rect class="cls-35" x="392.16" y="61.06" width="8.04" height="6.48"/><rect class="cls-36" x="392.16" y="61.06" width="8.04" height="6.48"/><text class="cls-45" transform="translate(398.04 67.54) rotate(-90)"><tspan class="cls-46">2</tspan><tspan x="2.92" y="0">3</tspan></text><rect class="cls-35" x="392.16" y="48.1" width="8.04" height="6.36"/><rect class="cls-36" x="392.16" y="48.1" width="8.04" height="6.36"/><text class="cls-43" transform="translate(398.04 54.46) rotate(-90)">2<tspan class="cls-44" x="2.81" y="0">4</tspan></text><rect class="cls-35" x="258.96" y="48.1" width="8.16" height="6.36"/><rect class="cls-36" x="258.96" y="48.1" width="8.16" height="6.36"/><text class="cls-45" transform="translate(261.48 49.78) rotate(90)">1</text><rect class="cls-35" x="258.96" y="61.06" width="8.16" height="6.48"/><rect class="cls-36" x="258.96" y="61.06" width="8.16" height="6.48"/><text class="cls-45" transform="translate(261.48 62.86) rotate(90)">2</text><rect class="cls-35" x="258.96" y="74.14" width="8.16" height="6.36"/><rect class="cls-36" x="258.96" y="74.14" width="8.16" height="6.36"/><text class="cls-45" transform="translate(261.48 75.82) rotate(90)">3</text><rect class="cls-35" x="258.96" y="87.1" width="8.16" height="6.48"/><rect class="cls-36" x="258.96" y="87.1" width="8.16" height="6.48"/><text class="cls-45" transform="translate(261.48 88.78) rotate(90)">4</text><rect class="cls-35" x="258.96" y="100.18" width="8.16" height="6.36"/><rect class="cls-36" x="258.96" y="100.18" width="8.16" height="6.36"/><text class="cls-45" transform="translate(261.48 101.86) rotate(90)">5</text><rect class="cls-35" x="258.96" y="113.14" width="8.16" height="6.48"/><rect class="cls-36" x="258.96" y="113.14" width="8.16" height="6.48"/><text class="cls-45" transform="translate(261.48 114.94) rotate(90)">6</text><rect class="cls-35" x="258.96" y="126.22" width="8.16" height="6.48"/><rect class="cls-36" x="258.96" y="126.22" width="8.16" height="6.48"/><text class="cls-45" transform="translate(261.48 127.9) rotate(90)">7</text><rect class="cls-35" x="258.96" y="139.3" width="8.16" height="6.36"/><rect class="cls-36" x="258.96" y="139.3" width="8.16" height="6.36"/><text class="cls-45" transform="translate(261.48 140.98) rotate(90)">8</text><polyline class="cls-36" points="279.24 51.82 279.36 50.62 279.84 49.54 280.44 48.46 281.4 47.74 282.48 47.14 283.68 46.9 284.88 46.9 286.08 47.14 287.16 47.74 288.12 48.46 288.72 49.54 289.2 50.62 289.32 51.82 289.2 53.02 288.72 54.22 288.12 55.18 287.16 55.9 286.08 56.5 284.88 56.86 283.68 56.86 282.48 56.5 281.4 55.9 280.44 55.18 279.84 54.22 279.36 53.02 279.24 51.82"/><text class="cls-47" transform="translate(309.24 95.14) scale(1.01 1)"><tspan class="cls-48">T</tspan><tspan class="cls-49" x="5.95" y="0">M</tspan><tspan class="cls-50" x="14.73" y="0">C</tspan><tspan class="cls-51" x="21.32" y="0"> </tspan><tspan class="cls-52" x="23.78" y="0">2</tspan><tspan class="cls-53" x="28.7" y="0">2</tspan><tspan x="33.74" y="0">3</tspan></text><text class="cls-54" transform="translate(315.84 105.82)">Q<tspan class="cls-55" x="6.24" y="0">F</tspan><tspan class="cls-56" x="10.94" y="0">N</tspan><tspan class="cls-57" x="17.06" y="0">3</tspan><tspan class="cls-58" x="21.38" y="0">2</tspan></text><rect class="cls-35" x="37.68" y="0.7" width="120.72" height="200.76"/><rect class="cls-59" x="37.68" y="0.7" width="120.72" height="200.76"/><text class="cls-60" transform="translate(93 95.5) rotate(90)"><tspan class="cls-61">T</tspan><tspan x="10.43" y="0">M</tspan><tspan class="cls-62" x="25.53" y="0">C</tspan><tspan class="cls-63" x="36.84" y="0">2</tspan><tspan class="cls-64" x="45.37" y="0">2</tspan><tspan x="53.8" y="0">3</tspan></text><line class="cls-59" x1="17.52" y1="50.86" x2="37.68" y2="50.86"/><line class="cls-59" x1="17.52" y1="70.9" x2="37.68" y2="70.9"/><line class="cls-59" x1="17.52" y1="91.06" x2="37.68" y2="91.06"/><line class="cls-59" x1="17.52" y1="111.1" x2="37.68" y2="111.1"/><line class="cls-59" x1="17.52" y1="131.14" x2="37.68" y2="131.14"/><line class="cls-59" x1="17.52" y1="151.18" x2="37.68" y2="151.18"/><line class="cls-59" x1="17.52" y1="171.22" x2="37.68" y2="171.22"/><line class="cls-59" x1="17.52" y1="191.38" x2="37.68" y2="191.38"/><line class="cls-59" x1="158.4" y1="131.14" x2="178.56" y2="131.14"/><line class="cls-59" x1="158.4" y1="10.78" x2="178.56" y2="10.78"/><line class="cls-59" x1="158.4" y1="70.9" x2="178.56" y2="70.9"/><line class="cls-59" x1="158.4" y1="91.06" x2="178.56" y2="91.06"/><line class="cls-59" x1="158.4" y1="111.1" x2="178.56" y2="111.1"/><polyline class="cls-65" points="57.84 15.82 57.96 14.62 58.32 13.42 59.16 12.46 60 11.62 61.08 11.14 62.28 10.78 63.48 10.78 64.68 11.14 65.64 11.62 66.6 12.46 67.32 13.42 67.68 14.62 67.92 15.82 67.68 16.9 67.32 18.1 66.6 19.06 65.64 19.78 64.68 20.38 63.48 20.74 62.28 20.74 61.08 20.38 60 19.78 59.16 19.06 58.32 18.1 57.96 16.9 57.84 15.82"/><polygon class="cls-59" points="57.84 15.82 57.96 14.62 58.32 13.42 59.16 12.46 60 11.62 61.08 11.14 62.28 10.78 63.48 10.78 64.68 11.14 65.64 11.62 66.6 12.46 67.32 13.42 67.68 14.62 67.92 15.82 67.68 16.9 67.32 18.1 66.6 19.06 65.64 19.78 64.68 20.38 63.48 20.74 62.28 20.74 61.08 20.38 60 19.78 59.16 19.06 58.32 18.1 57.96 16.9 57.84 15.82"/><text class="cls-2" transform="translate(5.16 153.46) scale(1.01 1)"><tspan class="cls-66">H</tspan><tspan x="5" y="0">W</tspan></text><text class="cls-2" transform="translate(3.36 93.22) scale(1.01 1)"><tspan class="cls-67">T</tspan><tspan class="cls-68" x="4.39" y="0">S</tspan><tspan x="8.25" y="0">T</tspan></text><text class="cls-2" transform="translate(179.28 12.94) scale(1.01 1)"><tspan class="cls-68">S</tspan><tspan x="3.86" y="0">WI</tspan></text><text class="cls-2" transform="translate(2.04 173.5) scale(1.01 1)"><tspan class="cls-69">C</tspan><tspan class="cls-68" x="4.72" y="0">P</tspan><tspan x="8.58" y="0">N</tspan></text><text class="cls-2" transform="translate(179.28 133.3) scale(1.01 1)"><tspan class="cls-70">G</tspan><tspan class="cls-71" x="5.08" y="0">N</tspan><tspan x="10.19" y="0">D</tspan></text><text class="cls-2" transform="translate(0 113.26) scale(1.01 1)"><tspan class="cls-72">op</tspan><tspan x="7" y="0">en</tspan></text><text class="cls-2" transform="translate(179.28 73.06) scale(1.01 1)"><tspan class="cls-70">G</tspan><tspan class="cls-71" x="5.08" y="0">N</tspan><tspan x="10.19" y="0">D</tspan></text><text class="cls-2" transform="translate(2.76 32.98) scale(1.01 1)"><tspan class="cls-68">S</tspan><tspan class="cls-69" x="3.86" y="0">C</tspan><tspan x="8.58" y="0">L</tspan></text><text class="cls-2" transform="translate(2.28 12.94) scale(1.01 1)"><tspan class="cls-68">S</tspan><tspan class="cls-71" x="3.86" y="0">D</tspan><tspan x="8.97" y="0">A</tspan></text><text class="cls-73" transform="translate(2.04 53.02) scale(1.01 1)">V<tspan class="cls-71" x="5.03" y="0">D</tspan><tspan class="cls-74" x="10.14" y="0">D</tspan></text><text class="cls-75" transform="translate(179.28 93.22) scale(1.01 1)">O<tspan class="cls-76" x="5.08" y="0">A</tspan><tspan class="cls-74" x="9.96" y="0">2</tspan></text><text class="cls-2" transform="translate(179.28 113.26) scale(1.01 1)"><tspan class="cls-70">O</tspan><tspan class="cls-71" x="5.08" y="0">B</tspan><tspan x="9.8" y="0">1</tspan></text><text class="cls-2" transform="translate(25.68 45.94) scale(1.01 1)">3</text><text class="cls-2" transform="translate(25.68 66.1) scale(1.01 1)">4</text><text class="cls-2" transform="translate(25.68 86.14) scale(1.01 1)">5</text><text class="cls-2" transform="translate(25.68 106.3) scale(1.01 1)">6</text><text class="cls-2" transform="translate(25.68 126.34) scale(1.01 1)">7</text><text class="cls-2" transform="translate(25.68 146.38) scale(1.01 1)">8</text><text class="cls-2" transform="translate(25.68 166.54) scale(1.01 1)">9</text><text class="cls-2" transform="translate(23.76 186.58) scale(1.01 1)"><tspan class="cls-77">1</tspan><tspan x="3.52" y="0">0</tspan></text><text class="cls-2" transform="translate(164.64 106.3) scale(1.01 1)"><tspan class="cls-77">1</tspan><tspan x="3.52" y="0">5</tspan></text><text class="cls-2" transform="translate(164.64 86.14) scale(1.01 1)"><tspan class="cls-77">1</tspan><tspan x="3.52" y="0">6</tspan></text><text class="cls-2" transform="translate(164.64 66.1) scale(1.01 1)"><tspan class="cls-77">1</tspan><tspan x="3.52" y="0">7</tspan></text><text class="cls-2" transform="translate(164.64 5.86) scale(1.01 1)"><tspan class="cls-77">2</tspan><tspan x="3.52" y="0">0</tspan></text><text class="cls-2" transform="translate(164.64 126.34) scale(1.01 1)"><tspan class="cls-77">1</tspan><tspan x="3.52" y="0">4</tspan></text><line class="cls-59" x1="17.52" y1="10.78" x2="37.68" y2="10.78"/><line class="cls-59" x1="17.52" y1="30.82" x2="37.68" y2="30.82"/><text class="cls-2" transform="translate(25.68 5.86) scale(1.01 1)">1</text><text class="cls-2" transform="translate(25.68 25.9) scale(1.01 1)">2</text><line class="cls-59" x1="158.4" y1="171.22" x2="178.56" y2="171.22"/><line class="cls-59" x1="158.4" y1="191.38" x2="178.56" y2="191.38"/><text class="cls-2" transform="translate(164.64 186.58) scale(1.01 1)"><tspan class="cls-77">1</tspan><tspan x="3.52" y="0">1</tspan></text><text class="cls-2" transform="translate(164.64 166.54) scale(1.01 1)"><tspan class="cls-77">1</tspan><tspan x="3.52" y="0">2</tspan></text><line class="cls-59" x1="158.4" y1="151.18" x2="178.56" y2="151.18"/><text class="cls-2" transform="translate(164.64 146.38) scale(1.01 1)"><tspan class="cls-77">1</tspan><tspan x="3.52" y="0">3</tspan></text><line class="cls-59" x1="158.4" y1="50.86" x2="178.56" y2="50.86"/><text class="cls-2" transform="translate(164.64 45.94) scale(1.01 1)"><tspan class="cls-77">1</tspan><tspan x="3.52" y="0">8</tspan></text><text class="cls-2" transform="translate(179.28 153.46) scale(1.01 1)"><tspan class="cls-70">O</tspan><tspan class="cls-71" x="5.08" y="0">B</tspan><tspan x="9.8" y="0">2</tspan></text><line class="cls-59" x1="158.4" y1="30.82" x2="178.56" y2="30.82"/><text class="cls-2" transform="translate(164.64 25.9) scale(1.01 1)"><tspan class="cls-77">1</tspan><tspan x="3.52" y="0">9</tspan></text><text class="cls-2" transform="translate(179.28 32.98) scale(1.01 1)"><tspan class="cls-68">V</tspan><tspan class="cls-71" x="5.03" y="0">B</tspan><tspan class="cls-78" x="9.75" y="0">A</tspan><tspan x="14.51" y="0">T</tspan></text><text class="cls-2" transform="translate(1.2 73.06) scale(1.01 1)"><tspan class="cls-70">G</tspan><tspan class="cls-71" x="5.08" y="0">N</tspan><tspan x="10.19" y="0">D</tspan></text><text class="cls-2" transform="translate(1.2 133.3) scale(1.01 1)"><tspan class="cls-70">G</tspan><tspan class="cls-71" x="5.08" y="0">N</tspan><tspan x="10.19" y="0">D</tspan></text><text class="cls-2" transform="translate(2.52 193.66) scale(1.01 1)"><tspan class="cls-66">C</tspan><tspan class="cls-79" x="4.61" y="0">P</tspan><tspan x="8.47" y="0">P</tspan></text><text class="cls-75" transform="translate(179.28 53.02) scale(1.01 1)">O<tspan class="cls-76" x="5.08" y="0">A</tspan><tspan class="cls-80" x="9.96" y="0">1</tspan></text><text class="cls-2" transform="translate(179.28 173.5) scale(1.01 1)"><tspan class="cls-68">V</tspan><tspan class="cls-71" x="5.03" y="0">B</tspan><tspan class="cls-78" x="9.75" y="0">A</tspan><tspan x="14.51" y="0">T</tspan></text><text class="cls-2" transform="translate(179.28 193.66) scale(1.01 1)"><tspan class="cls-68">V</tspan><tspan class="cls-71" x="5.03" y="0">C</tspan><tspan x="9.75" y="0">P</tspan></text><text class="cls-81" transform="translate(79.56 33.1) rotate(90)"><tspan class="cls-82">T</tspan><tspan class="cls-83" x="6.37" y="0">R</tspan><tspan class="cls-84" x="12.75" y="0">I</tspan><tspan class="cls-85" x="16.22" y="0">N</tspan><tspan class="cls-86" x="24.74" y="0">A</tspan><tspan class="cls-87" x="33.95" y="0">M</tspan><tspan class="cls-88" x="45.95" y="0">I</tspan><tspan x="49.41" y="0">C</tspan></text><polyline class="cls-89" points="103.8 70.42 103.8 71.74 103.56 73.18 102.96 74.26 102.12 75.34 101.04 76.18 99.84 76.78 98.52 76.9 97.32 76.9 96 76.42 94.92 75.7 93.96 74.86 93.24 73.66 92.88 72.34 92.76 71.02 93 69.58 93.48 68.5 94.2 67.3 95.28 66.46 96.48 65.86 96.48 74.5 103.8 70.42"/><polygon class="cls-59" points="103.8 70.42 103.8 71.74 103.56 73.18 102.96 74.26 102.12 75.34 101.04 76.18 99.84 76.78 98.52 76.9 97.32 76.9 96 76.42 94.92 75.7 93.96 74.86 93.24 73.66 92.88 72.34 92.76 71.02 93 69.58 93.48 68.5 94.2 67.3 95.28 66.46 96.48 65.86 96.48 74.5 103.8 70.42"/><polyline class="cls-89" points="103.8 47.38 103.8 46.06 103.56 44.74 102.96 43.42 102.12 42.46 101.04 41.62 99.84 41.14 98.52 40.78 97.32 40.9 96 41.38 94.92 41.98 93.96 42.94 93.24 44.14 92.88 45.46 92.76 46.78 93 48.1 93.48 49.3 94.2 50.38 95.28 51.34 96.48 51.94 96.48 43.42 103.8 47.38"/><polygon class="cls-59" points="103.8 47.38 103.8 46.06 103.56 44.74 102.96 43.42 102.12 42.46 101.04 41.62 99.84 41.14 98.52 40.78 97.32 40.9 96 41.38 94.92 41.98 93.96 42.94 93.24 44.14 92.88 45.46 92.76 46.78 93 48.1 93.48 49.3 94.2 50.38 95.28 51.34 96.48 51.94 96.48 43.42 103.8 47.38"/><polyline class="cls-89" points="116.4 63.1 117.6 63.82 118.8 64.18 120.24 64.42 121.44 64.18 122.76 63.7 123.72 62.98 124.68 61.9 125.28 60.7 125.52 59.5 125.52 58.06 125.16 56.86 124.44 55.66 123.48 54.7 122.4 53.86 121.08 53.38 119.76 53.26 118.44 53.38 117.24 53.74 116.16 54.46 123.48 58.78 116.4 63.1"/><polygon class="cls-59" points="116.4 63.1 117.6 63.82 118.8 64.18 120.24 64.42 121.44 64.18 122.76 63.7 123.72 62.98 124.68 61.9 125.28 60.7 125.52 59.5 125.52 58.06 125.16 56.86 124.44 55.66 123.48 54.7 122.4 53.86 121.08 53.38 119.76 53.26 118.44 53.38 117.24 53.74 116.16 54.46 123.48 58.78 116.4 63.1"/><polyline class="cls-90" points="98.04 72.34 105.6 59.5 120.48 59.38 98.04 72.34"/><polygon class="cls-59" points="98.04 72.34 105.6 59.5 120.48 59.38 98.04 72.34"/><polyline class="cls-90" points="97.32 45.94 104.76 58.9 97.32 71.86 97.32 45.94"/><polygon class="cls-59" points="97.32 45.94 104.76 58.9 97.32 71.86 97.32 45.94"/><polyline class="cls-90" points="98.04 45.46 105.6 58.42 120.48 58.42 98.04 45.46"/><polygon class="cls-59" points="98.04 45.46 105.6 58.42 120.48 58.42 98.04 45.46"/><text class="cls-91" transform="translate(423.96 202.78)"> </text></g></g></svg>