<?xml version="1.0" encoding="utf-8"?>
<!-- Generator: Adobe Illustrator 23.0.3, SVG Export Plug-In . SVG Version: 6.00 Build 0)  -->
<svg version="1.1" xmlns="http://www.w3.org/2000/svg" xmlns:xlink="http://www.w3.org/1999/xlink" x="0px" y="0px"
	 viewBox="0 0 474 316" style="enable-background:new 0 0 474 316;" xml:space="preserve">
<style type="text/css">
	.st0{fill:none;stroke:#000000;stroke-width:1.8;stroke-linecap:round;stroke-linejoin:round;}
	.st1{fill:#FFFFFF;}
	.st2{fill:none;stroke:#000000;stroke-width:0.72;stroke-linecap:round;stroke-linejoin:round;}
	.st3{fill:none;stroke:#000000;stroke-width:1.08;stroke-linecap:round;stroke-linejoin:round;}
	.st4{fill-rule:evenodd;clip-rule:evenodd;}
	.st5{fill-rule:evenodd;clip-rule:evenodd;fill:#FFFFFF;}
	.st6{fill:none;stroke:#0069B3;stroke-linecap:round;stroke-linejoin:round;stroke-miterlimit:10;}
	.st7{fill:#0069B3;}
	
		.st8{fill:none;stroke:#0069B3;stroke-width:2;stroke-linecap:round;stroke-linejoin:round;stroke-miterlimit:10;stroke-dasharray:0,5;}
	.st9{fill:#FFFFFF;stroke:#0069B3;stroke-linecap:round;stroke-linejoin:round;stroke-miterlimit:10;}
	.st10{fill:#005693;}
</style>
<g id="Ebene_2">
</g>
<g id="neu">
	<line class="st6" x1="212" y1="298.7" x2="212" y2="274.4"/>
	<line class="st6" x1="229.6" y1="298.7" x2="229.6" y2="274.4"/>
	<line class="st6" x1="247.1" y1="298.7" x2="247.1" y2="274.4"/>
	<line class="st6" x1="24.8" y1="157.6" x2="49.1" y2="157.6"/>
	<polygon class="st7" points="51.1,157.6 48.1,154.8 48.1,160.3 	"/>
	<g>
		<path class="st7" d="M8.2,159.6H7.4v-3.2H6.3v-0.7h3v0.7H8.2V159.6z"/>
		<path class="st7" d="M12.2,158.5c0,0.4-0.1,0.6-0.4,0.8c-0.3,0.2-0.6,0.3-1.1,0.3c-0.4,0-0.8-0.1-1.1-0.2v-0.8
			c0.3,0.1,0.5,0.2,0.7,0.2c0.2,0,0.4,0.1,0.5,0.1c0.2,0,0.3,0,0.4-0.1c0.1-0.1,0.1-0.2,0.1-0.3c0-0.1,0-0.1-0.1-0.2
			s-0.1-0.1-0.2-0.2c-0.1-0.1-0.3-0.1-0.5-0.3c-0.2-0.1-0.4-0.2-0.5-0.3s-0.2-0.2-0.3-0.4c-0.1-0.1-0.1-0.3-0.1-0.5
			c0-0.3,0.1-0.6,0.4-0.8s0.6-0.3,1-0.3c0.2,0,0.4,0,0.6,0.1c0.2,0,0.4,0.1,0.6,0.2l-0.3,0.6c-0.2-0.1-0.4-0.1-0.5-0.2
			c-0.1,0-0.3-0.1-0.4-0.1c-0.2,0-0.3,0-0.4,0.1c-0.1,0.1-0.1,0.2-0.1,0.3c0,0.1,0,0.1,0.1,0.2c0,0.1,0.1,0.1,0.2,0.2
			c0.1,0.1,0.3,0.1,0.5,0.3c0.4,0.2,0.6,0.4,0.8,0.5C12.1,158,12.2,158.2,12.2,158.5z"/>
		<path class="st7" d="M14.4,159.6h-0.8v-3.2h-1.1v-0.7h3v0.7h-1.1V159.6z"/>
	</g>
	<line class="st6" x1="297.1" y1="85.7" x2="308.9" y2="85.9"/>
	<line class="st6" x1="273.5" y1="82.5" x2="258.2" y2="82.5"/>
	<rect x="24.8" y="3.2" class="st8" width="427.1" height="295.4"/>
	<g>
		<g>
			<path class="st7" d="M209.5,308.9h0.8l-1.3,3.9h-0.9l-1.3-3.9h0.8l0.7,2.3c0,0.1,0.1,0.3,0.1,0.5s0.1,0.3,0.1,0.4
				c0-0.2,0.1-0.5,0.2-0.9L209.5,308.9z"/>
			<path class="st7" d="M212.5,309.5c-0.3,0-0.6,0.1-0.7,0.4s-0.3,0.6-0.3,1c0,0.9,0.3,1.3,1,1.3c0.3,0,0.6-0.1,1-0.2v0.7
				c-0.3,0.1-0.7,0.2-1.1,0.2c-0.6,0-1-0.2-1.3-0.5c-0.3-0.3-0.5-0.8-0.5-1.5c0-0.4,0.1-0.8,0.2-1.1c0.1-0.3,0.4-0.5,0.6-0.7
				s0.6-0.2,1-0.2c0.4,0,0.8,0.1,1.1,0.3l-0.3,0.7c-0.1-0.1-0.3-0.1-0.4-0.2S212.7,309.5,212.5,309.5z"/>
			<path class="st7" d="M217.1,310.1c0,0.4-0.1,0.7-0.4,1s-0.6,0.3-1.1,0.3h-0.4v1.4h-0.8v-3.9h1.3c0.5,0,0.8,0.1,1.1,0.3
				S217.1,309.7,217.1,310.1z M215.2,310.7h0.3c0.3,0,0.4-0.1,0.6-0.2c0.1-0.1,0.2-0.2,0.2-0.4c0-0.2-0.1-0.3-0.2-0.4
				c-0.1-0.1-0.3-0.1-0.5-0.1h-0.4V310.7z"/>
		</g>
		
			<rect x="208" y="294.7" transform="matrix(6.123234e-17 -1 1 6.123234e-17 -86.6511 510.6498)" class="st9" width="8" height="8"/>
	</g>
	<g>
		<g>
			<path class="st7" d="M226.7,309.5c-0.3,0-0.6,0.1-0.7,0.4s-0.3,0.6-0.3,1c0,0.9,0.3,1.3,1,1.3c0.3,0,0.6-0.1,1-0.2v0.7
				c-0.3,0.1-0.7,0.2-1.1,0.2c-0.6,0-1-0.2-1.3-0.5c-0.3-0.3-0.5-0.8-0.5-1.5c0-0.4,0.1-0.8,0.2-1.1c0.1-0.3,0.4-0.5,0.6-0.7
				s0.6-0.2,1-0.2c0.4,0,0.8,0.1,1.1,0.3l-0.3,0.7c-0.1-0.1-0.3-0.1-0.4-0.2S226.9,309.5,226.7,309.5z"/>
			<path class="st7" d="M231.3,310.1c0,0.4-0.1,0.7-0.4,1s-0.6,0.3-1.1,0.3h-0.4v1.4h-0.8v-3.9h1.3c0.5,0,0.8,0.1,1.1,0.3
				S231.3,309.7,231.3,310.1z M229.4,310.7h0.3c0.3,0,0.4-0.1,0.6-0.2c0.1-0.1,0.2-0.2,0.2-0.4c0-0.2-0.1-0.3-0.2-0.4
				c-0.1-0.1-0.3-0.1-0.5-0.1h-0.4V310.7z"/>
			<path class="st7" d="M234.5,312.8h-2.7v-0.6l1-1c0.3-0.3,0.5-0.5,0.6-0.6c0.1-0.1,0.2-0.2,0.2-0.3s0.1-0.2,0.1-0.3
				c0-0.2,0-0.3-0.1-0.4s-0.2-0.1-0.3-0.1c-0.2,0-0.3,0-0.4,0.1c-0.1,0.1-0.3,0.2-0.4,0.3l-0.5-0.5c0.2-0.2,0.4-0.3,0.5-0.3
				c0.1-0.1,0.3-0.1,0.4-0.2c0.2,0,0.3-0.1,0.5-0.1c0.2,0,0.5,0,0.6,0.1s0.3,0.2,0.4,0.4c0.1,0.2,0.2,0.3,0.2,0.6
				c0,0.2,0,0.3-0.1,0.5c-0.1,0.2-0.2,0.3-0.3,0.5c-0.1,0.2-0.4,0.4-0.7,0.7l-0.5,0.5v0h1.7V312.8z"/>
		</g>
		
			<rect x="225.6" y="294.7" transform="matrix(6.123234e-17 -1 1 6.123234e-17 -69.0935 528.2074)" class="st9" width="8" height="8"/>
	</g>
	<g>
		<g>
			<path class="st7" d="M244.3,309.5c-0.3,0-0.6,0.1-0.7,0.4s-0.3,0.6-0.3,1c0,0.9,0.3,1.3,1,1.3c0.3,0,0.6-0.1,1-0.2v0.7
				c-0.3,0.1-0.7,0.2-1.1,0.2c-0.6,0-1-0.2-1.3-0.5c-0.3-0.3-0.5-0.8-0.5-1.5c0-0.4,0.1-0.8,0.2-1.1c0.1-0.3,0.4-0.5,0.6-0.7
				s0.6-0.2,1-0.2c0.4,0,0.8,0.1,1.1,0.3l-0.3,0.7c-0.1-0.1-0.3-0.1-0.4-0.2S244.4,309.5,244.3,309.5z"/>
			<path class="st7" d="M248.8,310.1c0,0.4-0.1,0.7-0.4,1s-0.6,0.3-1.1,0.3H247v1.4h-0.8v-3.9h1.3c0.5,0,0.8,0.1,1.1,0.3
				S248.8,309.7,248.8,310.1z M247,310.7h0.3c0.3,0,0.4-0.1,0.6-0.2c0.1-0.1,0.2-0.2,0.2-0.4c0-0.2-0.1-0.3-0.2-0.4
				c-0.1-0.1-0.3-0.1-0.5-0.1H247V310.7z"/>
			<path class="st7" d="M251.4,312.8h-0.8v-2.3l0-0.4l0-0.4c-0.1,0.1-0.2,0.2-0.3,0.3l-0.5,0.4l-0.4-0.5l1.3-1h0.7V312.8z"/>
		</g>
		
			<rect x="243.1" y="294.7" transform="matrix(6.123234e-17 -1 1 6.123234e-17 -51.5355 545.7654)" class="st9" width="8" height="8"/>
	</g>
	<rect x="20.8" y="153.6" class="st9" width="8" height="8"/>
	<line class="st6" x1="24.8" y1="123" x2="49.1" y2="123"/>
	<polygon class="st7" points="51.1,123 48.1,120.3 48.1,125.8 	"/>
	<g>
		<path class="st7" d="M9.8,125H9v-1.7H7.4v1.7H6.6v-3.9h0.8v1.5H9v-1.5h0.8V125z"/>
		<path class="st7" d="M14.6,125h-0.9l-0.5-2.1c0-0.1-0.1-0.2-0.1-0.5s-0.1-0.4-0.1-0.5c0,0.1,0,0.3-0.1,0.5s-0.1,0.4-0.1,0.5
			l-0.5,2.1h-0.9l-1-3.9h0.8l0.5,2.1c0.1,0.4,0.2,0.7,0.2,1c0-0.1,0-0.3,0.1-0.5s0.1-0.4,0.1-0.5l0.6-2.2h0.8l0.6,2.2
			c0,0.1,0.1,0.2,0.1,0.5c0,0.2,0.1,0.4,0.1,0.5c0-0.1,0-0.3,0.1-0.5c0-0.2,0.1-0.4,0.1-0.5l0.5-2.1h0.8L14.6,125z"/>
	</g>
	<rect x="20.8" y="119" class="st9" width="8" height="8"/>
	<line class="st6" x1="24.8" y1="221.6" x2="48.6" y2="221.6"/>
	<line class="st6" x1="24.8" y1="260.4" x2="55.9" y2="260.4"/>
	<polygon class="st7" points="50.6,221.6 47.6,218.8 47.6,224.3 	"/>
	<g>
		<path class="st7" d="M6.5,219.6h0.8L6,223.6H5.1l-1.3-3.9h0.8l0.7,2.3c0,0.1,0.1,0.3,0.1,0.5s0.1,0.3,0.1,0.4
			c0-0.2,0.1-0.5,0.2-0.9L6.5,219.6z"/>
		<path class="st7" d="M7.8,219.6h1.2c0.6,0,1,0.1,1.2,0.2s0.4,0.4,0.4,0.8c0,0.2-0.1,0.4-0.2,0.6c-0.1,0.2-0.3,0.2-0.4,0.3v0
			c0.2,0.1,0.4,0.2,0.5,0.3c0.1,0.2,0.2,0.4,0.2,0.6c0,0.4-0.1,0.6-0.4,0.8c-0.3,0.2-0.6,0.3-1.1,0.3H7.8V219.6z M8.7,221.2h0.5
			c0.2,0,0.4,0,0.5-0.1c0.1-0.1,0.2-0.2,0.2-0.3c0-0.2-0.1-0.3-0.2-0.3c-0.1-0.1-0.3-0.1-0.5-0.1H8.7V221.2z M8.7,221.8v1h0.5
			c0.2,0,0.4,0,0.5-0.1c0.1-0.1,0.2-0.2,0.2-0.4c0-0.3-0.2-0.5-0.7-0.5H8.7z"/>
		<path class="st7" d="M13.9,223.6l-0.3-0.9h-1.4l-0.3,0.9H11l1.4-3.9h1l1.4,3.9H13.9z M13.4,221.9c-0.3-0.8-0.4-1.3-0.4-1.4
			s-0.1-0.2-0.1-0.3c-0.1,0.2-0.2,0.8-0.5,1.7H13.4z"/>
		<path class="st7" d="M16.8,223.6H16v-3.2h-1.1v-0.7h3v0.7h-1.1V223.6z"/>
	</g>
	<g>
		<path class="st7" d="M7.8,258.4h0.8l-1.3,3.9H6.4L5,258.4h0.8l0.7,2.3c0,0.1,0.1,0.3,0.1,0.5s0.1,0.3,0.1,0.4
			c0-0.2,0.1-0.5,0.2-0.9L7.8,258.4z"/>
		<path class="st7" d="M12.4,260.4c0,0.6-0.2,1.1-0.6,1.5c-0.4,0.3-0.9,0.5-1.6,0.5H9.1v-3.9h1.2c0.6,0,1.1,0.2,1.5,0.5
			C12.2,259.3,12.4,259.8,12.4,260.4z M11.5,260.4c0-0.8-0.4-1.3-1.1-1.3H9.9v2.6h0.4C11.1,261.7,11.5,261.2,11.5,260.4z"/>
		<path class="st7" d="M16.4,260.4c0,0.6-0.2,1.1-0.6,1.5c-0.4,0.3-0.9,0.5-1.6,0.5h-1.1v-3.9h1.2c0.6,0,1.1,0.2,1.5,0.5
			C16.2,259.3,16.4,259.8,16.4,260.4z M15.6,260.4c0-0.8-0.4-1.3-1.1-1.3H14v2.6h0.4C15.2,261.7,15.6,261.2,15.6,260.4z"/>
	</g>
	<rect x="20.8" y="217.6" class="st9" width="8" height="8"/>
	<rect x="20.8" y="256.4" class="st9" width="8" height="8"/>
	<g>
		<path class="st10" d="M93.4,139.6H58.9c-1.6,0-3-1.4-3-3v-27.2c0-1.7,1.4-3,3-3h34.4c1.6,0,3,1.3,3,3v27.2
			C96.4,138.3,95,139.6,93.4,139.6z"/>
	</g>
	<g>
		<path class="st10" d="M93.4,79.6H58.9c-1.6,0-3-1.3-3-3V49.4c0-1.7,1.4-3,3-3h34.4c1.6,0,3,1.3,3,3v27.2
			C96.4,78.3,95,79.6,93.4,79.6z"/>
	</g>
	<g>
		<g>
			<path class="st1" d="M71.8,117.1c0,0.4-0.1,0.6-0.4,0.8s-0.6,0.3-1.1,0.3c-0.4,0-0.8-0.1-1.1-0.2v-0.8c0.3,0.1,0.5,0.2,0.7,0.2
				c0.2,0,0.4,0.1,0.5,0.1c0.2,0,0.3,0,0.4-0.1c0.1-0.1,0.1-0.2,0.1-0.3c0-0.1,0-0.1-0.1-0.2s-0.1-0.1-0.2-0.2s-0.3-0.1-0.5-0.3
				c-0.2-0.1-0.4-0.2-0.5-0.3s-0.2-0.2-0.3-0.4c-0.1-0.1-0.1-0.3-0.1-0.5c0-0.3,0.1-0.6,0.4-0.8s0.6-0.3,1-0.3c0.2,0,0.4,0,0.6,0.1
				c0.2,0,0.4,0.1,0.6,0.2l-0.3,0.6c-0.2-0.1-0.4-0.1-0.5-0.2c-0.1,0-0.3-0.1-0.4-0.1c-0.2,0-0.3,0-0.4,0.1
				c-0.1,0.1-0.1,0.2-0.1,0.3c0,0.1,0,0.1,0.1,0.2c0,0.1,0.1,0.1,0.2,0.2c0.1,0.1,0.2,0.1,0.5,0.3c0.4,0.2,0.6,0.4,0.8,0.5
				S71.8,116.9,71.8,117.1z"/>
			<path class="st1" d="M73.6,118.3c-0.5,0-0.9-0.1-1.1-0.4c-0.3-0.3-0.4-0.6-0.4-1.1c0-0.5,0.1-0.9,0.4-1.2c0.3-0.3,0.6-0.4,1-0.4
				c0.4,0,0.8,0.1,1,0.4s0.4,0.6,0.4,1v0.4h-1.9c0,0.2,0.1,0.4,0.2,0.5s0.3,0.2,0.5,0.2c0.2,0,0.4,0,0.5-0.1s0.3-0.1,0.5-0.2v0.6
				c-0.1,0.1-0.3,0.1-0.5,0.2C74.1,118.3,73.9,118.3,73.6,118.3z M73.5,115.8c-0.2,0-0.3,0.1-0.4,0.2c-0.1,0.1-0.2,0.3-0.2,0.5h1.1
				c0-0.2-0.1-0.4-0.2-0.5C73.8,115.8,73.7,115.8,73.5,115.8z"/>
			<path class="st1" d="M77,115.2c0.1,0,0.2,0,0.3,0l-0.1,0.8c-0.1,0-0.1,0-0.2,0c-0.3,0-0.5,0.1-0.6,0.2c-0.1,0.1-0.2,0.3-0.2,0.6
				v1.5h-0.8v-3h0.6l0.1,0.5h0c0.1-0.2,0.2-0.3,0.4-0.4C76.6,115.2,76.8,115.2,77,115.2z"/>
			<path class="st1" d="M77.5,114.5c0-0.3,0.1-0.4,0.4-0.4c0.3,0,0.4,0.1,0.4,0.4c0,0.1,0,0.2-0.1,0.3s-0.2,0.1-0.3,0.1
				C77.7,114.9,77.5,114.7,77.5,114.5z M78.4,118.2h-0.8v-3h0.8V118.2z"/>
			<path class="st1" d="M80.9,118.2l-0.2-0.4h0c-0.1,0.2-0.3,0.3-0.4,0.4c-0.1,0.1-0.3,0.1-0.6,0.1c-0.3,0-0.5-0.1-0.7-0.2
				c-0.2-0.2-0.2-0.4-0.2-0.7c0-0.3,0.1-0.6,0.3-0.7c0.2-0.2,0.6-0.2,1-0.3l0.5,0v-0.1c0-0.3-0.2-0.5-0.5-0.5
				c-0.2,0-0.5,0.1-0.8,0.2l-0.3-0.6c0.3-0.2,0.7-0.3,1.1-0.3c0.4,0,0.7,0.1,0.9,0.3c0.2,0.2,0.3,0.4,0.3,0.8v2H80.9z M80.7,116.8
				l-0.3,0c-0.2,0-0.4,0.1-0.5,0.1s-0.2,0.2-0.2,0.4c0,0.2,0.1,0.3,0.4,0.3c0.2,0,0.3-0.1,0.5-0.2c0.1-0.1,0.2-0.3,0.2-0.4V116.8z"
				/>
			<path class="st1" d="M83,118.2h-0.8v-4.2H83V118.2z"/>
			<path class="st1" d="M65,124.8v-3.9h0.8v3.9H65z"/>
			<path class="st1" d="M69.3,124.8h-0.8v-1.8c0-0.2,0-0.4-0.1-0.5s-0.2-0.2-0.4-0.2c-0.2,0-0.4,0.1-0.5,0.2
				c-0.1,0.2-0.2,0.4-0.2,0.8v1.4h-0.8v-3h0.6l0.1,0.4h0c0.1-0.1,0.2-0.3,0.4-0.3s0.3-0.1,0.5-0.1c0.3,0,0.6,0.1,0.8,0.3
				c0.2,0.2,0.3,0.5,0.3,0.8V124.8z"/>
			<path class="st1" d="M71.2,124.2c0.1,0,0.3,0,0.5-0.1v0.6c-0.2,0.1-0.5,0.1-0.8,0.1c-0.3,0-0.6-0.1-0.7-0.2s-0.2-0.4-0.2-0.7
				v-1.4h-0.4v-0.3l0.5-0.3l0.2-0.6h0.5v0.6h0.8v0.6h-0.8v1.4c0,0.1,0,0.2,0.1,0.3S71.1,124.2,71.2,124.2z"/>
			<path class="st1" d="M73.5,124.9c-0.5,0-0.9-0.1-1.1-0.4c-0.3-0.3-0.4-0.6-0.4-1.1c0-0.5,0.1-0.9,0.4-1.2c0.3-0.3,0.6-0.4,1-0.4
				c0.4,0,0.8,0.1,1,0.4s0.4,0.6,0.4,1v0.4h-1.9c0,0.2,0.1,0.4,0.2,0.5s0.3,0.2,0.5,0.2c0.2,0,0.4,0,0.5-0.1s0.3-0.1,0.5-0.2v0.6
				c-0.1,0.1-0.3,0.1-0.5,0.2C73.9,124.9,73.7,124.9,73.5,124.9z M73.4,122.4c-0.2,0-0.3,0.1-0.4,0.2c-0.1,0.1-0.2,0.3-0.2,0.5h1.1
				c0-0.2-0.1-0.4-0.2-0.5C73.7,122.4,73.5,122.4,73.4,122.4z"/>
			<path class="st1" d="M76.8,121.8c0.1,0,0.2,0,0.3,0l-0.1,0.8c-0.1,0-0.1,0-0.2,0c-0.3,0-0.5,0.1-0.6,0.2
				c-0.1,0.1-0.2,0.3-0.2,0.6v1.5h-0.8v-3h0.6l0.1,0.5h0c0.1-0.2,0.2-0.3,0.4-0.4S76.6,121.8,76.8,121.8z"/>
			<path class="st1" d="M79.1,122.4h-0.7v2.4h-0.8v-2.4h-0.5V122l0.5-0.2v-0.2c0-0.3,0.1-0.6,0.3-0.7c0.2-0.2,0.4-0.2,0.8-0.2
				c0.3,0,0.5,0,0.8,0.1l-0.2,0.6c-0.2-0.1-0.3-0.1-0.5-0.1c-0.1,0-0.2,0-0.3,0.1c-0.1,0.1-0.1,0.2-0.1,0.3v0.2h0.7V122.4z"/>
			<path class="st1" d="M81.3,124.8l-0.2-0.4h0c-0.1,0.2-0.3,0.3-0.4,0.4c-0.1,0.1-0.3,0.1-0.6,0.1c-0.3,0-0.5-0.1-0.7-0.2
				c-0.2-0.2-0.2-0.4-0.2-0.7c0-0.3,0.1-0.6,0.3-0.7s0.6-0.2,1-0.3l0.5,0v-0.1c0-0.3-0.2-0.5-0.5-0.5c-0.2,0-0.5,0.1-0.8,0.2
				l-0.3-0.6c0.3-0.2,0.7-0.3,1.1-0.3c0.4,0,0.7,0.1,0.9,0.3c0.2,0.2,0.3,0.4,0.3,0.8v2H81.3z M81,123.4l-0.3,0
				c-0.2,0-0.4,0.1-0.5,0.1s-0.2,0.2-0.2,0.4c0,0.2,0.1,0.3,0.4,0.3c0.2,0,0.3-0.1,0.5-0.2c0.1-0.1,0.2-0.3,0.2-0.4V123.4z"/>
			<path class="st1" d="M83.7,124.9c-0.9,0-1.4-0.5-1.4-1.5c0-0.5,0.1-0.9,0.4-1.2c0.3-0.3,0.6-0.4,1.1-0.4c0.3,0,0.7,0.1,0.9,0.2
				l-0.2,0.6c-0.1-0.1-0.2-0.1-0.4-0.1c-0.1,0-0.2,0-0.3,0c-0.4,0-0.6,0.3-0.6,0.9c0,0.6,0.2,0.9,0.6,0.9c0.2,0,0.3,0,0.4-0.1
				c0.1,0,0.3-0.1,0.4-0.2v0.7c-0.1,0.1-0.3,0.1-0.4,0.2C84,124.9,83.9,124.9,83.7,124.9z"/>
			<path class="st1" d="M86.4,124.9c-0.5,0-0.9-0.1-1.1-0.4c-0.3-0.3-0.4-0.6-0.4-1.1c0-0.5,0.1-0.9,0.4-1.2c0.3-0.3,0.6-0.4,1-0.4
				c0.4,0,0.8,0.1,1,0.4s0.4,0.6,0.4,1v0.4h-1.9c0,0.2,0.1,0.4,0.2,0.5s0.3,0.2,0.5,0.2c0.2,0,0.4,0,0.5-0.1s0.3-0.1,0.5-0.2v0.6
				c-0.1,0.1-0.3,0.1-0.5,0.2C86.8,124.9,86.6,124.9,86.4,124.9z M86.3,122.4c-0.2,0-0.3,0.1-0.4,0.2c-0.1,0.1-0.2,0.3-0.2,0.5h1.1
				c0-0.2-0.1-0.4-0.2-0.5C86.6,122.4,86.5,122.4,86.3,122.4z"/>
			<path class="st1" d="M65.4,128.1c-0.3,0-0.6,0.1-0.7,0.4s-0.3,0.6-0.3,1c0,0.9,0.3,1.3,1,1.3c0.3,0,0.6-0.1,1-0.2v0.7
				c-0.3,0.1-0.7,0.2-1.1,0.2c-0.6,0-1-0.2-1.3-0.5c-0.3-0.3-0.5-0.8-0.5-1.5c0-0.4,0.1-0.8,0.2-1.1s0.4-0.5,0.6-0.7
				c0.3-0.2,0.6-0.2,1-0.2c0.4,0,0.8,0.1,1.1,0.3l-0.3,0.7c-0.1-0.1-0.3-0.1-0.4-0.2S65.5,128.1,65.4,128.1z"/>
			<path class="st1" d="M69.7,129.9c0,0.5-0.1,0.9-0.4,1.1s-0.6,0.4-1.1,0.4c-0.3,0-0.5-0.1-0.8-0.2c-0.2-0.1-0.4-0.3-0.5-0.5
				s-0.2-0.5-0.2-0.8c0-0.5,0.1-0.9,0.4-1.1c0.3-0.3,0.6-0.4,1.1-0.4c0.3,0,0.5,0.1,0.8,0.2c0.2,0.1,0.4,0.3,0.5,0.5
				S69.7,129.6,69.7,129.9z M67.6,129.9c0,0.3,0,0.5,0.1,0.7s0.3,0.2,0.5,0.2c0.2,0,0.4-0.1,0.5-0.2s0.1-0.4,0.1-0.7
				c0-0.3,0-0.5-0.1-0.7s-0.3-0.2-0.5-0.2c-0.2,0-0.4,0.1-0.5,0.2C67.7,129.4,67.6,129.6,67.6,129.9z"/>
			<path class="st1" d="M72.9,131.4h-0.8v-1.8c0-0.2,0-0.4-0.1-0.5s-0.2-0.2-0.4-0.2c-0.2,0-0.4,0.1-0.5,0.2
				c-0.1,0.2-0.2,0.4-0.2,0.8v1.4h-0.8v-3h0.6l0.1,0.4h0c0.1-0.1,0.2-0.3,0.4-0.3s0.3-0.1,0.5-0.1c0.3,0,0.6,0.1,0.8,0.3
				c0.2,0.2,0.3,0.5,0.3,0.8V131.4z"/>
			<path class="st1" d="M74.8,130.8c0.1,0,0.3,0,0.5-0.1v0.6c-0.2,0.1-0.5,0.1-0.8,0.1c-0.3,0-0.6-0.1-0.7-0.2s-0.2-0.4-0.2-0.7V129
				h-0.4v-0.3l0.5-0.3l0.2-0.6h0.5v0.6h0.8v0.6h-0.8v1.4c0,0.1,0,0.2,0.1,0.3S74.7,130.8,74.8,130.8z"/>
			<path class="st1" d="M77.4,128.4c0.1,0,0.2,0,0.3,0l-0.1,0.8c-0.1,0-0.1,0-0.2,0c-0.3,0-0.5,0.1-0.6,0.2
				c-0.1,0.1-0.2,0.3-0.2,0.6v1.5h-0.8v-3h0.6l0.1,0.5h0c0.1-0.2,0.2-0.3,0.4-0.4C77,128.4,77.2,128.4,77.4,128.4z"/>
			<path class="st1" d="M80.7,129.9c0,0.5-0.1,0.9-0.4,1.1s-0.6,0.4-1.1,0.4c-0.3,0-0.5-0.1-0.8-0.2c-0.2-0.1-0.4-0.3-0.5-0.5
				s-0.2-0.5-0.2-0.8c0-0.5,0.1-0.9,0.4-1.1c0.3-0.3,0.6-0.4,1.1-0.4c0.3,0,0.5,0.1,0.8,0.2c0.2,0.1,0.4,0.3,0.5,0.5
				S80.7,129.6,80.7,129.9z M78.6,129.9c0,0.3,0,0.5,0.1,0.7s0.3,0.2,0.5,0.2c0.2,0,0.4-0.1,0.5-0.2s0.1-0.4,0.1-0.7
				c0-0.3,0-0.5-0.1-0.7s-0.3-0.2-0.5-0.2c-0.2,0-0.4,0.1-0.5,0.2C78.7,129.4,78.6,129.6,78.6,129.9z"/>
			<path class="st1" d="M82,131.4h-0.8v-4.2H82V131.4z"/>
			<path class="st1" d="M83.4,131.4h-0.8v-4.2h0.8V131.4z"/>
			<path class="st1" d="M85.4,131.5c-0.5,0-0.9-0.1-1.1-0.4c-0.3-0.3-0.4-0.6-0.4-1.1c0-0.5,0.1-0.9,0.4-1.2c0.3-0.3,0.6-0.4,1-0.4
				c0.4,0,0.8,0.1,1,0.4s0.4,0.6,0.4,1v0.4h-1.9c0,0.2,0.1,0.4,0.2,0.5s0.3,0.2,0.5,0.2c0.2,0,0.4,0,0.5-0.1s0.3-0.1,0.5-0.2v0.6
				c-0.1,0.1-0.3,0.1-0.5,0.2C85.9,131.5,85.7,131.5,85.4,131.5z M85.3,129c-0.2,0-0.3,0.1-0.4,0.2c-0.1,0.1-0.2,0.3-0.2,0.5h1.1
				c0-0.2-0.1-0.4-0.2-0.5C85.6,129,85.5,129,85.3,129z"/>
			<path class="st1" d="M88.8,128.4c0.1,0,0.2,0,0.3,0l-0.1,0.8c-0.1,0-0.1,0-0.2,0c-0.3,0-0.5,0.1-0.6,0.2
				c-0.1,0.1-0.2,0.3-0.2,0.6v1.5h-0.8v-3h0.6l0.1,0.5h0c0.1-0.2,0.2-0.3,0.4-0.4C88.4,128.4,88.6,128.4,88.8,128.4z"/>
		</g>
	</g>
	<g>
		<path class="st10" d="M93.4,203.5H58.9c-1.7,0-3,1.3-3,3v68.9c0,1.6,1.3,3,3,3h34.4c1.7,0,3-1.4,3-3v-68.9
			C96.4,204.9,95,203.5,93.4,203.5z"/>
	</g>
	<g>
		<g>
			<path class="st1" d="M69.2,233.6h0.8l-1.3,3.9h-0.9l-1.3-3.9h0.8l0.7,2.3c0,0.1,0.1,0.3,0.1,0.5s0.1,0.3,0.1,0.4
				c0-0.2,0.1-0.5,0.2-0.9L69.2,233.6z"/>
			<path class="st1" d="M73,236c0,0.5-0.1,0.9-0.4,1.1c-0.3,0.3-0.6,0.4-1.1,0.4c-0.3,0-0.5-0.1-0.8-0.2c-0.2-0.1-0.4-0.3-0.5-0.5
				s-0.2-0.5-0.2-0.8c0-0.5,0.1-0.9,0.4-1.1c0.3-0.3,0.6-0.4,1.1-0.4c0.3,0,0.5,0.1,0.8,0.2c0.2,0.1,0.4,0.3,0.5,0.5
				S73,235.7,73,236z M70.9,236c0,0.3,0,0.5,0.1,0.7s0.3,0.2,0.5,0.2c0.2,0,0.4-0.1,0.5-0.2s0.1-0.4,0.1-0.7c0-0.3,0-0.5-0.1-0.7
				s-0.3-0.2-0.5-0.2c-0.2,0-0.4,0.1-0.5,0.2C71,235.5,70.9,235.7,70.9,236z"/>
			<path class="st1" d="M74.3,237.5h-0.8v-4.2h0.8V237.5z"/>
			<path class="st1" d="M76.2,236.9c0.1,0,0.3,0,0.5-0.1v0.6c-0.2,0.1-0.5,0.1-0.8,0.1c-0.3,0-0.6-0.1-0.7-0.2
				c-0.1-0.2-0.2-0.4-0.2-0.7v-1.4h-0.4v-0.3l0.5-0.3l0.2-0.6h0.5v0.6h0.8v0.6h-0.8v1.4c0,0.1,0,0.2,0.1,0.3S76.1,236.9,76.2,236.9z
				"/>
			<path class="st1" d="M79,237.5l-0.2-0.4h0c-0.1,0.2-0.3,0.3-0.4,0.4c-0.1,0.1-0.3,0.1-0.6,0.1c-0.3,0-0.5-0.1-0.7-0.2
				c-0.2-0.2-0.2-0.4-0.2-0.7c0-0.3,0.1-0.6,0.3-0.7c0.2-0.2,0.6-0.2,1-0.3l0.5,0v-0.1c0-0.3-0.2-0.5-0.5-0.5
				c-0.2,0-0.5,0.1-0.8,0.2l-0.3-0.6c0.3-0.2,0.7-0.3,1.1-0.3c0.4,0,0.7,0.1,0.9,0.3s0.3,0.4,0.3,0.8v2H79z M78.8,236.1l-0.3,0
				c-0.2,0-0.4,0-0.5,0.1c-0.1,0.1-0.2,0.2-0.2,0.4c0,0.2,0.1,0.3,0.4,0.3c0.2,0,0.3-0.1,0.5-0.2c0.1-0.1,0.2-0.3,0.2-0.4V236.1z"/>
			<path class="st1" d="M82.8,234.5v0.4l-0.5,0.1c0.1,0.1,0.1,0.3,0.1,0.5c0,0.3-0.1,0.6-0.3,0.8s-0.5,0.3-0.9,0.3l-0.1,0l-0.1,0
				c-0.1,0.1-0.1,0.1-0.1,0.2c0,0.1,0.2,0.2,0.5,0.2h0.5c0.3,0,0.6,0.1,0.8,0.2s0.3,0.3,0.3,0.6c0,0.4-0.1,0.6-0.4,0.8
				c-0.3,0.2-0.7,0.3-1.3,0.3c-0.4,0-0.7-0.1-1-0.2c-0.2-0.1-0.3-0.4-0.3-0.6c0-0.2,0.1-0.3,0.2-0.5c0.1-0.1,0.3-0.2,0.5-0.3
				c-0.1,0-0.2-0.1-0.2-0.2c-0.1-0.1-0.1-0.2-0.1-0.3c0-0.1,0-0.2,0.1-0.3s0.2-0.2,0.3-0.2c-0.2-0.1-0.3-0.2-0.4-0.3
				c-0.1-0.2-0.1-0.3-0.1-0.5c0-0.3,0.1-0.6,0.3-0.8s0.5-0.3,0.9-0.3c0.1,0,0.2,0,0.3,0c0.1,0,0.2,0,0.2,0H82.8z M80.5,237.9
				c0,0.1,0.1,0.2,0.2,0.3s0.3,0.1,0.5,0.1c0.3,0,0.5,0,0.7-0.1c0.2-0.1,0.2-0.2,0.2-0.3c0-0.1,0-0.2-0.1-0.2
				c-0.1,0-0.2-0.1-0.5-0.1H81c-0.2,0-0.3,0-0.4,0.1C80.5,237.7,80.5,237.8,80.5,237.9z M80.8,235.5c0,0.2,0,0.3,0.1,0.4
				s0.2,0.1,0.3,0.1c0.2,0,0.3,0,0.3-0.1c0.1-0.1,0.1-0.2,0.1-0.4c0-0.4-0.1-0.5-0.4-0.5C80.9,235,80.8,235.1,80.8,235.5z"/>
			<path class="st1" d="M84.4,237.6c-0.5,0-0.9-0.1-1.1-0.4c-0.3-0.3-0.4-0.6-0.4-1.1c0-0.5,0.1-0.9,0.4-1.2c0.3-0.3,0.6-0.4,1-0.4
				c0.4,0,0.8,0.1,1,0.4c0.2,0.2,0.4,0.6,0.4,1v0.4h-1.9c0,0.2,0.1,0.4,0.2,0.5s0.3,0.2,0.5,0.2c0.2,0,0.4,0,0.5-0.1
				c0.2,0,0.3-0.1,0.5-0.2v0.6c-0.1,0.1-0.3,0.1-0.5,0.2C84.9,237.5,84.7,237.6,84.4,237.6z M84.3,235c-0.2,0-0.3,0.1-0.4,0.2
				c-0.1,0.1-0.2,0.3-0.2,0.5h1.1c0-0.2-0.1-0.4-0.2-0.5C84.6,235.1,84.5,235,84.3,235z"/>
			<path class="st1" d="M65,242.6v1.5h-0.8v-3.9h1.1c0.5,0,0.9,0.1,1.2,0.3s0.4,0.5,0.4,0.9c0,0.2-0.1,0.4-0.2,0.6s-0.3,0.3-0.5,0.4
				c0.6,0.9,1,1.5,1.2,1.7h-0.9l-0.9-1.5H65z M65,241.9h0.3c0.3,0,0.5,0,0.6-0.1s0.2-0.2,0.2-0.4c0-0.2-0.1-0.3-0.2-0.4
				c-0.1-0.1-0.3-0.1-0.6-0.1H65V241.9z"/>
			<path class="st1" d="M68.8,244.2c-0.5,0-0.9-0.1-1.1-0.4c-0.3-0.3-0.4-0.6-0.4-1.1c0-0.5,0.1-0.9,0.4-1.2c0.3-0.3,0.6-0.4,1-0.4
				c0.4,0,0.8,0.1,1,0.4c0.2,0.2,0.4,0.6,0.4,1v0.4h-1.9c0,0.2,0.1,0.4,0.2,0.5s0.3,0.2,0.5,0.2c0.2,0,0.4,0,0.5-0.1
				c0.2,0,0.3-0.1,0.5-0.2v0.6c-0.1,0.1-0.3,0.1-0.5,0.2S69.1,244.2,68.8,244.2z M68.7,241.6c-0.2,0-0.3,0.1-0.4,0.2
				c-0.1,0.1-0.2,0.3-0.2,0.5h1.1c0-0.2-0.1-0.4-0.2-0.5C69,241.7,68.9,241.6,68.7,241.6z"/>
			<path class="st1" d="M73.1,241.1v0.4l-0.5,0.1c0.1,0.1,0.1,0.3,0.1,0.5c0,0.3-0.1,0.6-0.3,0.8c-0.2,0.2-0.5,0.3-0.9,0.3l-0.1,0
				l-0.1,0c-0.1,0.1-0.1,0.1-0.1,0.2c0,0.1,0.2,0.2,0.5,0.2h0.5c0.3,0,0.6,0.1,0.8,0.2s0.3,0.3,0.3,0.6c0,0.4-0.1,0.6-0.4,0.8
				s-0.7,0.3-1.3,0.3c-0.4,0-0.7-0.1-1-0.2c-0.2-0.1-0.3-0.4-0.3-0.6c0-0.2,0.1-0.3,0.2-0.5c0.1-0.1,0.3-0.2,0.5-0.3
				c-0.1,0-0.2-0.1-0.2-0.2c-0.1-0.1-0.1-0.2-0.1-0.3c0-0.1,0-0.2,0.1-0.3s0.2-0.2,0.3-0.2c-0.2-0.1-0.3-0.2-0.4-0.3
				c-0.1-0.2-0.1-0.3-0.1-0.5c0-0.3,0.1-0.6,0.3-0.8c0.2-0.2,0.5-0.3,0.9-0.3c0.1,0,0.2,0,0.3,0c0.1,0,0.2,0,0.2,0H73.1z
				 M70.8,244.5c0,0.1,0.1,0.2,0.2,0.3s0.3,0.1,0.5,0.1c0.3,0,0.5,0,0.7-0.1c0.2-0.1,0.2-0.2,0.2-0.3c0-0.1,0-0.2-0.1-0.2
				s-0.3-0.1-0.5-0.1h-0.4c-0.2,0-0.3,0-0.4,0.1C70.9,244.3,70.8,244.4,70.8,244.5z M71.1,242.1c0,0.2,0,0.3,0.1,0.4
				s0.2,0.1,0.3,0.1c0.2,0,0.3,0,0.3-0.1s0.1-0.2,0.1-0.4c0-0.4-0.1-0.5-0.4-0.5C71.3,241.5,71.1,241.7,71.1,242.1z"/>
			<path class="st1" d="M75.5,244.1l-0.1-0.4h0c-0.1,0.1-0.2,0.2-0.4,0.3s-0.3,0.1-0.6,0.1c-0.4,0-0.6-0.1-0.8-0.3
				c-0.2-0.2-0.3-0.5-0.3-0.8v-2h0.8v1.8c0,0.2,0,0.4,0.1,0.5s0.2,0.2,0.4,0.2c0.2,0,0.4-0.1,0.5-0.2c0.1-0.2,0.2-0.4,0.2-0.8v-1.4
				h0.8v3H75.5z"/>
			<path class="st1" d="M77.6,244.1h-0.8v-4.2h0.8V244.1z"/>
			<path class="st1" d="M80.2,244.1l-0.2-0.4h0c-0.1,0.2-0.3,0.3-0.4,0.4c-0.1,0.1-0.3,0.1-0.6,0.1c-0.3,0-0.5-0.1-0.7-0.2
				c-0.2-0.2-0.2-0.4-0.2-0.7c0-0.3,0.1-0.6,0.3-0.7s0.6-0.2,1-0.3l0.5,0v-0.1c0-0.3-0.2-0.5-0.5-0.5c-0.2,0-0.5,0.1-0.8,0.2
				l-0.3-0.6c0.3-0.2,0.7-0.3,1.1-0.3c0.4,0,0.7,0.1,0.9,0.3c0.2,0.2,0.3,0.4,0.3,0.8v2H80.2z M79.9,242.7l-0.3,0
				c-0.2,0-0.4,0.1-0.5,0.1c-0.1,0.1-0.2,0.2-0.2,0.4c0,0.2,0.1,0.3,0.4,0.3c0.2,0,0.3-0.1,0.5-0.2c0.1-0.1,0.2-0.3,0.2-0.4V242.7z"
				/>
			<path class="st1" d="M82.6,243.5c0.1,0,0.3,0,0.5-0.1v0.6c-0.2,0.1-0.5,0.1-0.8,0.1c-0.3,0-0.6-0.1-0.7-0.2
				c-0.1-0.2-0.2-0.4-0.2-0.7v-1.4H81v-0.3l0.5-0.3l0.2-0.6h0.5v0.6h0.8v0.6h-0.8v1.4c0,0.1,0,0.2,0.1,0.3S82.5,243.5,82.6,243.5z"
				/>
			<path class="st1" d="M86.2,242.6c0,0.5-0.1,0.9-0.4,1.1c-0.3,0.3-0.6,0.4-1.1,0.4c-0.3,0-0.5-0.1-0.8-0.2
				c-0.2-0.1-0.4-0.3-0.5-0.5s-0.2-0.5-0.2-0.8c0-0.5,0.1-0.9,0.4-1.1c0.3-0.3,0.6-0.4,1.1-0.4c0.3,0,0.5,0.1,0.8,0.2
				c0.2,0.1,0.4,0.3,0.5,0.5S86.2,242.3,86.2,242.6z M84.2,242.6c0,0.3,0,0.5,0.1,0.7s0.3,0.2,0.5,0.2c0.2,0,0.4-0.1,0.5-0.2
				s0.1-0.4,0.1-0.7c0-0.3,0-0.5-0.1-0.7s-0.3-0.2-0.5-0.2c-0.2,0-0.4,0.1-0.5,0.2S84.2,242.3,84.2,242.6z"/>
			<path class="st1" d="M88.4,241.1c0.1,0,0.2,0,0.3,0l-0.1,0.8c-0.1,0-0.1,0-0.2,0c-0.3,0-0.5,0.1-0.6,0.2
				c-0.1,0.1-0.2,0.3-0.2,0.6v1.5h-0.8v-3h0.6l0.1,0.5h0c0.1-0.2,0.2-0.3,0.4-0.4C88,241.1,88.2,241.1,88.4,241.1z"/>
		</g>
	</g>
	<g>
		<path class="st10" d="M170.2,24.6H129c-1.7,0-3,1.3-3,3v68.9c0,1.6,1.3,3,3,3h41.3c1.7,0,3-1.4,3-3V27.6
			C173.2,26,171.9,24.6,170.2,24.6z"/>
	</g>
	<g>
		<g>
			<path class="st1" d="M142.5,55.9c0,0.4-0.1,0.7-0.4,1c-0.3,0.2-0.6,0.3-1.1,0.3h-0.4v1.4h-0.8v-3.9h1.3c0.5,0,0.8,0.1,1.1,0.3
				S142.5,55.5,142.5,55.9z M140.6,56.5h0.3c0.3,0,0.4-0.1,0.6-0.2s0.2-0.2,0.2-0.4c0-0.2-0.1-0.3-0.2-0.4s-0.3-0.1-0.5-0.1h-0.4
				V56.5z"/>
			<path class="st1" d="M145.6,57.1c0,0.5-0.1,0.9-0.4,1.1s-0.6,0.4-1.1,0.4c-0.3,0-0.5-0.1-0.8-0.2c-0.2-0.1-0.4-0.3-0.5-0.5
				s-0.2-0.5-0.2-0.8c0-0.5,0.1-0.9,0.4-1.1c0.3-0.3,0.6-0.4,1.1-0.4c0.3,0,0.5,0.1,0.8,0.2c0.2,0.1,0.4,0.3,0.5,0.5
				S145.6,56.8,145.6,57.1z M143.6,57.1c0,0.3,0,0.5,0.1,0.7s0.3,0.2,0.5,0.2c0.2,0,0.4-0.1,0.5-0.2s0.1-0.4,0.1-0.7
				c0-0.3,0-0.5-0.1-0.7s-0.3-0.2-0.5-0.2c-0.2,0-0.4,0.1-0.5,0.2C143.6,56.6,143.6,56.8,143.6,57.1z"/>
			<path class="st1" d="M148.2,57.7c0,0.3-0.1,0.5-0.3,0.7s-0.5,0.2-1,0.2c-0.2,0-0.4,0-0.6,0c-0.2,0-0.3-0.1-0.4-0.1v-0.7
				c0.2,0.1,0.3,0.1,0.5,0.2c0.2,0,0.4,0.1,0.5,0.1c0.3,0,0.4-0.1,0.4-0.3c0-0.1,0-0.1-0.1-0.2c0,0-0.1-0.1-0.2-0.1
				c-0.1-0.1-0.2-0.1-0.4-0.2c-0.2-0.1-0.4-0.2-0.5-0.3c-0.1-0.1-0.2-0.2-0.2-0.3s-0.1-0.2-0.1-0.4c0-0.3,0.1-0.5,0.3-0.6
				c0.2-0.1,0.5-0.2,0.9-0.2c0.4,0,0.7,0.1,1.1,0.2l-0.2,0.6c-0.2-0.1-0.3-0.1-0.4-0.2c-0.1,0-0.3-0.1-0.4-0.1
				c-0.2,0-0.4,0.1-0.4,0.2c0,0.1,0,0.1,0.1,0.2c0.1,0.1,0.2,0.1,0.5,0.2c0.2,0.1,0.4,0.2,0.5,0.3c0.1,0.1,0.2,0.2,0.2,0.3
				C148.2,57.4,148.2,57.5,148.2,57.7z"/>
			<path class="st1" d="M148.6,54.8c0-0.3,0.1-0.4,0.4-0.4c0.3,0,0.4,0.1,0.4,0.4c0,0.1,0,0.2-0.1,0.3s-0.2,0.1-0.3,0.1
				C148.7,55.2,148.6,55.1,148.6,54.8z M149.4,58.6h-0.8v-3h0.8V58.6z"/>
			<path class="st1" d="M151.3,58c0.1,0,0.3,0,0.5-0.1v0.6c-0.2,0.1-0.5,0.1-0.8,0.1c-0.3,0-0.6-0.1-0.7-0.2s-0.2-0.4-0.2-0.7v-1.4
				h-0.4v-0.3l0.5-0.3l0.2-0.6h0.5v0.6h0.8v0.6H151v1.4c0,0.1,0,0.2,0.1,0.3S151.2,58,151.3,58z"/>
			<path class="st1" d="M152.2,54.8c0-0.3,0.1-0.4,0.4-0.4c0.3,0,0.4,0.1,0.4,0.4c0,0.1,0,0.2-0.1,0.3s-0.2,0.1-0.3,0.1
				C152.4,55.2,152.2,55.1,152.2,54.8z M153.1,58.6h-0.8v-3h0.8V58.6z"/>
			<path class="st1" d="M156.4,57.1c0,0.5-0.1,0.9-0.4,1.1s-0.6,0.4-1.1,0.4c-0.3,0-0.5-0.1-0.8-0.2c-0.2-0.1-0.4-0.3-0.5-0.5
				s-0.2-0.5-0.2-0.8c0-0.5,0.1-0.9,0.4-1.1c0.3-0.3,0.6-0.4,1.1-0.4c0.3,0,0.5,0.1,0.8,0.2c0.2,0.1,0.4,0.3,0.5,0.5
				S156.4,56.8,156.4,57.1z M154.3,57.1c0,0.3,0,0.5,0.1,0.7s0.3,0.2,0.5,0.2c0.2,0,0.4-0.1,0.5-0.2s0.1-0.4,0.1-0.7
				c0-0.3,0-0.5-0.1-0.7s-0.3-0.2-0.5-0.2c-0.2,0-0.4,0.1-0.5,0.2C154.4,56.6,154.3,56.8,154.3,57.1z"/>
			<path class="st1" d="M159.7,58.6h-0.8v-1.8c0-0.2,0-0.4-0.1-0.5s-0.2-0.2-0.4-0.2c-0.2,0-0.4,0.1-0.5,0.2
				c-0.1,0.2-0.2,0.4-0.2,0.8v1.4h-0.8v-3h0.6l0.1,0.4h0c0.1-0.1,0.2-0.3,0.4-0.3s0.3-0.1,0.5-0.1c0.3,0,0.6,0.1,0.8,0.3
				c0.2,0.2,0.3,0.5,0.3,0.8V58.6z"/>
			<path class="st1" d="M138.9,61.9c-0.3,0-0.6,0.1-0.7,0.4s-0.3,0.6-0.3,1c0,0.9,0.3,1.3,1,1.3c0.3,0,0.6-0.1,1-0.2V65
				c-0.3,0.1-0.7,0.2-1.1,0.2c-0.6,0-1-0.2-1.3-0.5c-0.3-0.3-0.5-0.8-0.5-1.5c0-0.4,0.1-0.8,0.2-1.1s0.4-0.5,0.6-0.7
				c0.3-0.2,0.6-0.2,1-0.2c0.4,0,0.8,0.1,1.1,0.3l-0.3,0.7c-0.1-0.1-0.3-0.1-0.4-0.2S139,61.9,138.9,61.9z"/>
			<path class="st1" d="M143.1,63.7c0,0.5-0.1,0.9-0.4,1.1s-0.6,0.4-1.1,0.4c-0.3,0-0.5-0.1-0.8-0.2c-0.2-0.1-0.4-0.3-0.5-0.5
				s-0.2-0.5-0.2-0.8c0-0.5,0.1-0.9,0.4-1.1c0.3-0.3,0.6-0.4,1.1-0.4c0.3,0,0.5,0.1,0.8,0.2c0.2,0.1,0.4,0.3,0.5,0.5
				S143.1,63.4,143.1,63.7z M141.1,63.7c0,0.3,0,0.5,0.1,0.7s0.3,0.2,0.5,0.2c0.2,0,0.4-0.1,0.5-0.2s0.1-0.4,0.1-0.7
				c0-0.3,0-0.5-0.1-0.7s-0.3-0.2-0.5-0.2c-0.2,0-0.4,0.1-0.5,0.2C141.1,63.2,141.1,63.4,141.1,63.7z"/>
			<path class="st1" d="M146.4,65.2h-0.8v-1.8c0-0.2,0-0.4-0.1-0.5s-0.2-0.2-0.4-0.2c-0.2,0-0.4,0.1-0.5,0.2
				c-0.1,0.2-0.2,0.4-0.2,0.8v1.4h-0.8v-3h0.6l0.1,0.4h0c0.1-0.1,0.2-0.3,0.4-0.3s0.3-0.1,0.5-0.1c0.3,0,0.6,0.1,0.8,0.3
				c0.2,0.2,0.3,0.5,0.3,0.8V65.2z"/>
			<path class="st1" d="M148.2,64.6c0.1,0,0.3,0,0.5-0.1v0.6c-0.2,0.1-0.5,0.1-0.8,0.1c-0.3,0-0.6-0.1-0.7-0.2s-0.2-0.4-0.2-0.7
				v-1.4h-0.4v-0.3l0.5-0.3l0.2-0.6h0.5v0.6h0.8v0.6h-0.8v1.4c0,0.1,0,0.2,0.1,0.3S148.1,64.6,148.2,64.6z"/>
			<path class="st1" d="M150.8,62.1c0.1,0,0.2,0,0.3,0l-0.1,0.8c-0.1,0-0.1,0-0.2,0c-0.3,0-0.5,0.1-0.6,0.2
				c-0.1,0.1-0.2,0.3-0.2,0.6v1.5h-0.8v-3h0.6l0.1,0.5h0c0.1-0.2,0.2-0.3,0.4-0.4C150.5,62.2,150.6,62.1,150.8,62.1z"/>
			<path class="st1" d="M154.2,63.7c0,0.5-0.1,0.9-0.4,1.1s-0.6,0.4-1.1,0.4c-0.3,0-0.5-0.1-0.8-0.2c-0.2-0.1-0.4-0.3-0.5-0.5
				s-0.2-0.5-0.2-0.8c0-0.5,0.1-0.9,0.4-1.1c0.3-0.3,0.6-0.4,1.1-0.4c0.3,0,0.5,0.1,0.8,0.2c0.2,0.1,0.4,0.3,0.5,0.5
				S154.2,63.4,154.2,63.7z M152.1,63.7c0,0.3,0,0.5,0.1,0.7s0.3,0.2,0.5,0.2c0.2,0,0.4-0.1,0.5-0.2s0.1-0.4,0.1-0.7
				c0-0.3,0-0.5-0.1-0.7s-0.3-0.2-0.5-0.2c-0.2,0-0.4,0.1-0.5,0.2C152.1,63.2,152.1,63.4,152.1,63.7z"/>
			<path class="st1" d="M155.4,65.2h-0.8V61h0.8V65.2z"/>
			<path class="st1" d="M156.9,65.2h-0.8V61h0.8V65.2z"/>
			<path class="st1" d="M158.9,65.2c-0.5,0-0.9-0.1-1.1-0.4c-0.3-0.3-0.4-0.6-0.4-1.1c0-0.5,0.1-0.9,0.4-1.2s0.6-0.4,1-0.4
				c0.4,0,0.8,0.1,1,0.4s0.4,0.6,0.4,1v0.4h-1.9c0,0.2,0.1,0.4,0.2,0.5s0.3,0.2,0.5,0.2c0.2,0,0.4,0,0.5-0.1s0.3-0.1,0.5-0.2V65
				c-0.1,0.1-0.3,0.1-0.5,0.2C159.3,65.2,159.1,65.2,158.9,65.2z M158.8,62.7c-0.2,0-0.3,0.1-0.4,0.2c-0.1,0.1-0.2,0.3-0.2,0.5h1.1
				c0-0.2-0.1-0.4-0.2-0.5C159.1,62.8,158.9,62.7,158.8,62.7z"/>
			<path class="st1" d="M162.2,62.1c0.1,0,0.2,0,0.3,0l-0.1,0.8c-0.1,0-0.1,0-0.2,0c-0.3,0-0.5,0.1-0.6,0.2
				c-0.1,0.1-0.2,0.3-0.2,0.6v1.5h-0.8v-3h0.6l0.1,0.5h0c0.1-0.2,0.2-0.3,0.4-0.4C161.9,62.2,162,62.1,162.2,62.1z"/>
		</g>
	</g>
	<g>
		<path class="st10" d="M93.4,170.8H58.9c-1.6,0-3-1.4-3-3v-20.4c0-1.6,1.4-3,3-3h34.4c1.6,0,3,1.4,3,3v20.4
			C96.4,169.4,95,170.8,93.4,170.8z"/>
	</g>
	<g>
		<g>
			<path class="st1" d="M72.8,159.3H72V156h-1.1v-0.7h3v0.7h-1.1V159.3z"/>
			<path class="st1" d="M75.5,159.3c-0.5,0-0.9-0.1-1.1-0.4c-0.3-0.3-0.4-0.6-0.4-1.1c0-0.5,0.1-0.9,0.4-1.2c0.3-0.3,0.6-0.4,1-0.4
				c0.4,0,0.8,0.1,1,0.4s0.4,0.6,0.4,1v0.4h-1.9c0,0.2,0.1,0.4,0.2,0.5s0.3,0.2,0.5,0.2c0.2,0,0.4,0,0.5-0.1s0.3-0.1,0.5-0.2v0.6
				c-0.1,0.1-0.3,0.1-0.5,0.2S75.8,159.3,75.5,159.3z M75.4,156.8c-0.2,0-0.3,0.1-0.4,0.2c-0.1,0.1-0.2,0.3-0.2,0.5H76
				c0-0.2-0.1-0.4-0.2-0.5C75.7,156.8,75.6,156.8,75.4,156.8z"/>
			<path class="st1" d="M79.3,158.4c0,0.3-0.1,0.5-0.3,0.7c-0.2,0.2-0.5,0.2-1,0.2c-0.2,0-0.4,0-0.6,0c-0.2,0-0.3-0.1-0.4-0.1v-0.7
				c0.2,0.1,0.3,0.1,0.5,0.2c0.2,0,0.4,0.1,0.5,0.1c0.3,0,0.4-0.1,0.4-0.3c0-0.1,0-0.1-0.1-0.2c0,0-0.1-0.1-0.2-0.1
				c-0.1-0.1-0.2-0.1-0.4-0.2c-0.2-0.1-0.4-0.2-0.5-0.3c-0.1-0.1-0.2-0.2-0.2-0.3c0-0.1-0.1-0.2-0.1-0.4c0-0.3,0.1-0.5,0.3-0.6
				s0.5-0.2,0.9-0.2c0.4,0,0.7,0.1,1.1,0.2L79,157c-0.2-0.1-0.3-0.1-0.4-0.2c-0.1,0-0.3-0.1-0.4-0.1c-0.2,0-0.4,0.1-0.4,0.2
				c0,0.1,0,0.1,0.1,0.2s0.2,0.1,0.5,0.2c0.2,0.1,0.4,0.2,0.5,0.3c0.1,0.1,0.2,0.2,0.2,0.3C79.3,158.1,79.3,158.2,79.3,158.4z"/>
			<path class="st1" d="M81,158.7c0.1,0,0.3,0,0.5-0.1v0.6c-0.2,0.1-0.5,0.1-0.8,0.1c-0.3,0-0.6-0.1-0.7-0.2
				c-0.1-0.2-0.2-0.4-0.2-0.7v-1.4h-0.4v-0.3l0.5-0.3l0.2-0.6h0.5v0.6h0.8v0.6h-0.8v1.4c0,0.1,0,0.2,0.1,0.3S80.9,158.7,81,158.7z"
				/>
		</g>
	</g>
	<g>
		<path class="st10" d="M144.5,274.4h-34.4c-1.7,0-3-1.4-3-3V251c0-1.7,1.3-3,3-3h34.4c1.6,0,3,1.3,3,3v20.4
			C147.5,273,146.2,274.4,144.5,274.4z"/>
	</g>
	<g>
		<g>
			<path class="st1" d="M119.1,260.9c0,0.7-0.2,1.1-0.5,1.5c-0.3,0.3-0.8,0.5-1.4,0.5s-1.1-0.2-1.4-0.5c-0.3-0.3-0.5-0.9-0.5-1.5
				c0-0.7,0.2-1.2,0.5-1.5s0.8-0.5,1.4-0.5c0.6,0,1.1,0.2,1.4,0.5C119,259.7,119.1,260.2,119.1,260.9z M116.3,260.9
				c0,0.4,0.1,0.8,0.2,1c0.2,0.2,0.4,0.3,0.7,0.3c0.7,0,1-0.4,1-1.3c0-0.9-0.3-1.3-1-1.3c-0.3,0-0.6,0.1-0.7,0.3
				S116.3,260.5,116.3,260.9z"/>
			<path class="st1" d="M121.8,262c0,0.3-0.1,0.5-0.3,0.7s-0.5,0.2-1,0.2c-0.2,0-0.4,0-0.6,0c-0.2,0-0.3-0.1-0.4-0.1v-0.7
				c0.2,0.1,0.3,0.1,0.5,0.2c0.2,0,0.4,0.1,0.5,0.1c0.3,0,0.4-0.1,0.4-0.3c0-0.1,0-0.1-0.1-0.2c0,0-0.1-0.1-0.2-0.1
				c-0.1-0.1-0.2-0.1-0.4-0.2c-0.2-0.1-0.4-0.2-0.5-0.3c-0.1-0.1-0.2-0.2-0.2-0.3s-0.1-0.2-0.1-0.4c0-0.3,0.1-0.5,0.3-0.6
				c0.2-0.1,0.5-0.2,0.9-0.2c0.4,0,0.7,0.1,1.1,0.2l-0.2,0.6c-0.2-0.1-0.3-0.1-0.4-0.2c-0.1,0-0.3-0.1-0.4-0.1
				c-0.2,0-0.4,0.1-0.4,0.2c0,0.1,0,0.1,0.1,0.2c0.1,0.1,0.2,0.1,0.5,0.2c0.2,0.1,0.4,0.2,0.5,0.3c0.1,0.1,0.2,0.2,0.2,0.3
				C121.7,261.7,121.8,261.8,121.8,262z"/>
			<path class="st1" d="M123.4,262.9c-0.9,0-1.4-0.5-1.4-1.5c0-0.5,0.1-0.9,0.4-1.2s0.6-0.4,1.1-0.4c0.3,0,0.7,0.1,0.9,0.2l-0.2,0.6
				c-0.1-0.1-0.2-0.1-0.4-0.1c-0.1,0-0.2,0-0.3,0c-0.4,0-0.6,0.3-0.6,0.9c0,0.6,0.2,0.9,0.6,0.9c0.2,0,0.3,0,0.4-0.1
				s0.3-0.1,0.4-0.2v0.7c-0.1,0.1-0.3,0.1-0.4,0.2S123.6,262.9,123.4,262.9z"/>
			<path class="st1" d="M124.8,259.1c0-0.3,0.1-0.4,0.4-0.4c0.3,0,0.4,0.1,0.4,0.4c0,0.1,0,0.2-0.1,0.3c-0.1,0.1-0.2,0.1-0.3,0.1
				C124.9,259.5,124.8,259.4,124.8,259.1z M125.6,262.9h-0.8v-3h0.8V262.9z"/>
			<path class="st1" d="M127.1,262.9h-0.8v-4.2h0.8V262.9z"/>
			<path class="st1" d="M128.5,262.9h-0.8v-4.2h0.8V262.9z"/>
			<path class="st1" d="M131.1,262.9l-0.2-0.4h0c-0.1,0.2-0.3,0.3-0.4,0.4c-0.1,0.1-0.3,0.1-0.6,0.1c-0.3,0-0.5-0.1-0.7-0.2
				c-0.2-0.2-0.2-0.4-0.2-0.7c0-0.3,0.1-0.6,0.3-0.7c0.2-0.2,0.6-0.2,1-0.3l0.5,0v-0.1c0-0.3-0.2-0.5-0.5-0.5
				c-0.2,0-0.5,0.1-0.8,0.2l-0.3-0.6c0.3-0.2,0.7-0.3,1.1-0.3c0.4,0,0.7,0.1,0.9,0.3c0.2,0.2,0.3,0.4,0.3,0.8v2H131.1z M130.8,261.5
				l-0.3,0c-0.2,0-0.4,0.1-0.5,0.1c-0.1,0.1-0.2,0.2-0.2,0.4c0,0.2,0.1,0.3,0.4,0.3c0.2,0,0.3-0.1,0.5-0.2s0.2-0.3,0.2-0.4V261.5z"
				/>
			<path class="st1" d="M133.5,262.3c0.1,0,0.3,0,0.5-0.1v0.6c-0.2,0.1-0.5,0.1-0.8,0.1c-0.3,0-0.6-0.1-0.7-0.2
				c-0.1-0.2-0.2-0.4-0.2-0.7v-1.4H132v-0.3l0.5-0.3l0.2-0.6h0.5v0.6h0.8v0.6h-0.8v1.4c0,0.1,0,0.2,0.1,0.3S133.4,262.3,133.5,262.3
				z"/>
			<path class="st1" d="M137.2,261.4c0,0.5-0.1,0.9-0.4,1.1c-0.3,0.3-0.6,0.4-1.1,0.4c-0.3,0-0.5-0.1-0.8-0.2
				c-0.2-0.1-0.4-0.3-0.5-0.5s-0.2-0.5-0.2-0.8c0-0.5,0.1-0.9,0.4-1.1c0.3-0.3,0.6-0.4,1.1-0.4c0.3,0,0.5,0.1,0.8,0.2
				c0.2,0.1,0.4,0.3,0.5,0.5S137.2,261,137.2,261.4z M135.1,261.4c0,0.3,0,0.5,0.1,0.7s0.3,0.2,0.5,0.2c0.2,0,0.4-0.1,0.5-0.2
				s0.1-0.4,0.1-0.7c0-0.3,0-0.5-0.1-0.7s-0.3-0.2-0.5-0.2c-0.2,0-0.4,0.1-0.5,0.2S135.1,261.1,135.1,261.4z"/>
			<path class="st1" d="M139.3,259.8c0.1,0,0.2,0,0.3,0l-0.1,0.8c-0.1,0-0.1,0-0.2,0c-0.3,0-0.5,0.1-0.6,0.2
				c-0.1,0.1-0.2,0.3-0.2,0.6v1.5h-0.8v-3h0.6l0.1,0.5h0c0.1-0.2,0.2-0.3,0.4-0.4C138.9,259.9,139.1,259.8,139.3,259.8z"/>
		</g>
	</g>
	<g>
		<path class="st10" d="M252.2,274.4h-45.2c-1.7,0-3-1.4-3-3V251c0-1.7,1.3-3,3-3h45.2c1.6,0,3,1.3,3,3v20.4
			C255.2,273,253.8,274.4,252.2,274.4z"/>
	</g>
	<g>
		<g>
			<path class="st1" d="M214.6,259.6c-0.3,0-0.6,0.1-0.7,0.4s-0.3,0.6-0.3,1c0,0.9,0.3,1.3,1,1.3c0.3,0,0.6-0.1,1-0.2v0.7
				c-0.3,0.1-0.7,0.2-1.1,0.2c-0.6,0-1-0.2-1.3-0.5c-0.3-0.3-0.5-0.8-0.5-1.5c0-0.4,0.1-0.8,0.2-1.1c0.1-0.3,0.4-0.5,0.6-0.7
				s0.6-0.2,1-0.2c0.4,0,0.8,0.1,1.1,0.3l-0.3,0.7c-0.1-0.1-0.3-0.1-0.4-0.2S214.7,259.6,214.6,259.6z"/>
			<path class="st1" d="M218.9,262.9h-0.8v-1.8c0-0.4-0.2-0.6-0.5-0.6c-0.2,0-0.4,0.1-0.5,0.2c-0.1,0.2-0.2,0.4-0.2,0.8v1.4h-0.8
				v-4.2h0.8v0.9c0,0.1,0,0.2,0,0.5l0,0.2h0c0.2-0.3,0.5-0.4,0.9-0.4c0.4,0,0.6,0.1,0.8,0.3s0.3,0.5,0.3,0.8V262.9z"/>
			<path class="st1" d="M221.4,262.9l-0.2-0.4h0c-0.1,0.2-0.3,0.3-0.4,0.4c-0.1,0.1-0.3,0.1-0.6,0.1c-0.3,0-0.5-0.1-0.7-0.2
				c-0.2-0.2-0.2-0.4-0.2-0.7c0-0.3,0.1-0.6,0.3-0.7c0.2-0.2,0.6-0.2,1-0.3l0.5,0v-0.1c0-0.3-0.2-0.5-0.5-0.5
				c-0.2,0-0.5,0.1-0.8,0.2l-0.3-0.6c0.3-0.2,0.7-0.3,1.1-0.3c0.4,0,0.7,0.1,0.9,0.3c0.2,0.2,0.3,0.4,0.3,0.8v2H221.4z M221.2,261.5
				l-0.3,0c-0.2,0-0.4,0.1-0.5,0.1c-0.1,0.1-0.2,0.2-0.2,0.4c0,0.2,0.1,0.3,0.4,0.3c0.2,0,0.3-0.1,0.5-0.2s0.2-0.3,0.2-0.4V261.5z"
				/>
			<path class="st1" d="M224.3,259.8c0.1,0,0.2,0,0.3,0l-0.1,0.8c-0.1,0-0.1,0-0.2,0c-0.3,0-0.5,0.1-0.6,0.2
				c-0.1,0.1-0.2,0.3-0.2,0.6v1.5h-0.8v-3h0.6l0.1,0.5h0c0.1-0.2,0.2-0.3,0.4-0.4C224,259.9,224.1,259.8,224.3,259.8z"/>
			<path class="st1" d="M227.5,259.9v0.4l-0.5,0.1c0.1,0.1,0.1,0.3,0.1,0.5c0,0.3-0.1,0.6-0.3,0.8c-0.2,0.2-0.5,0.3-0.9,0.3l-0.1,0
				l-0.1,0c-0.1,0.1-0.1,0.1-0.1,0.2c0,0.1,0.2,0.2,0.5,0.2h0.5c0.3,0,0.6,0.1,0.8,0.2s0.3,0.3,0.3,0.6c0,0.4-0.1,0.6-0.4,0.8
				c-0.3,0.2-0.7,0.3-1.3,0.3c-0.4,0-0.7-0.1-1-0.2c-0.2-0.1-0.3-0.4-0.3-0.6c0-0.2,0.1-0.3,0.2-0.5c0.1-0.1,0.3-0.2,0.5-0.3
				c-0.1,0-0.2-0.1-0.2-0.2c-0.1-0.1-0.1-0.2-0.1-0.3c0-0.1,0-0.2,0.1-0.3s0.2-0.2,0.3-0.2c-0.2-0.1-0.3-0.2-0.4-0.3
				s-0.1-0.3-0.1-0.5c0-0.3,0.1-0.6,0.3-0.8c0.2-0.2,0.5-0.3,0.9-0.3c0.1,0,0.2,0,0.3,0c0.1,0,0.2,0,0.2,0H227.5z M225.2,263.3
				c0,0.1,0.1,0.2,0.2,0.3s0.3,0.1,0.5,0.1c0.3,0,0.5,0,0.7-0.1c0.2-0.1,0.2-0.2,0.2-0.3c0-0.1,0-0.2-0.1-0.2
				c-0.1,0-0.3-0.1-0.5-0.1h-0.4c-0.2,0-0.3,0-0.4,0.1C225.3,263.1,225.2,263.2,225.2,263.3z M225.5,260.8c0,0.2,0,0.3,0.1,0.4
				s0.2,0.1,0.3,0.1c0.2,0,0.3,0,0.3-0.1c0.1-0.1,0.1-0.2,0.1-0.4c0-0.4-0.1-0.5-0.4-0.5C225.7,260.3,225.5,260.5,225.5,260.8z"/>
			<path class="st1" d="M229.2,262.9c-0.5,0-0.9-0.1-1.1-0.4s-0.4-0.6-0.4-1.1c0-0.5,0.1-0.9,0.4-1.2c0.3-0.3,0.6-0.4,1-0.4
				c0.4,0,0.8,0.1,1,0.4c0.2,0.2,0.4,0.6,0.4,1v0.4h-1.9c0,0.2,0.1,0.4,0.2,0.5s0.3,0.2,0.5,0.2c0.2,0,0.4,0,0.5-0.1
				c0.2,0,0.3-0.1,0.5-0.2v0.6c-0.1,0.1-0.3,0.1-0.5,0.2S229.4,262.9,229.2,262.9z M229,260.4c-0.2,0-0.3,0.1-0.4,0.2
				c-0.1,0.1-0.2,0.3-0.2,0.5h1.1c0-0.2-0.1-0.4-0.2-0.5C229.4,260.4,229.2,260.4,229,260.4z"/>
			<path class="st1" d="M234.8,260.2c0,0.4-0.1,0.7-0.4,1s-0.6,0.3-1.1,0.3h-0.4v1.4h-0.8v-3.9h1.3c0.5,0,0.8,0.1,1.1,0.3
				S234.8,259.8,234.8,260.2z M232.9,260.8h0.3c0.3,0,0.4-0.1,0.6-0.2c0.1-0.1,0.2-0.2,0.2-0.4c0-0.2-0.1-0.3-0.2-0.4
				c-0.1-0.1-0.3-0.1-0.5-0.1h-0.4V260.8z"/>
			<path class="st1" d="M237.4,262.9l-0.1-0.4h0c-0.1,0.1-0.2,0.2-0.4,0.3s-0.3,0.1-0.6,0.1c-0.4,0-0.6-0.1-0.8-0.3
				c-0.2-0.2-0.3-0.5-0.3-0.8v-2h0.8v1.8c0,0.2,0,0.4,0.1,0.5s0.2,0.2,0.4,0.2c0.2,0,0.4-0.1,0.5-0.2c0.1-0.2,0.2-0.4,0.2-0.8v-1.4
				h0.8v3H237.4z"/>
			<path class="st1" d="M241.4,262.9h-0.8v-1.8c0-0.2,0-0.4-0.1-0.5c-0.1-0.1-0.2-0.2-0.3-0.2c-0.2,0-0.4,0.1-0.5,0.2
				s-0.1,0.4-0.1,0.8v1.4h-0.8v-3h0.6l0.1,0.4h0c0.1-0.1,0.2-0.2,0.3-0.3c0.2-0.1,0.3-0.1,0.5-0.1c0.4,0,0.8,0.1,0.9,0.4h0.1
				c0.1-0.1,0.2-0.2,0.4-0.3s0.3-0.1,0.5-0.1c0.3,0,0.6,0.1,0.8,0.3c0.2,0.2,0.3,0.5,0.3,0.8v2h-0.8v-1.8c0-0.2,0-0.4-0.1-0.5
				c-0.1-0.1-0.2-0.2-0.3-0.2c-0.2,0-0.4,0.1-0.4,0.2c-0.1,0.1-0.1,0.4-0.1,0.7V262.9z"/>
			<path class="st1" d="M245.5,262.9c-0.4,0-0.6-0.1-0.8-0.4h0c0,0.2,0,0.4,0,0.4v1.2h-0.8v-4.3h0.7l0.1,0.4h0
				c0.2-0.3,0.5-0.4,0.9-0.4c0.4,0,0.6,0.1,0.8,0.4c0.2,0.3,0.3,0.7,0.3,1.1c0,0.3,0,0.6-0.1,0.8c-0.1,0.2-0.2,0.4-0.4,0.5
				C245.9,262.9,245.7,262.9,245.5,262.9z M245.3,260.5c-0.2,0-0.4,0.1-0.4,0.2c-0.1,0.1-0.1,0.3-0.1,0.6v0.1c0,0.3,0,0.6,0.1,0.7
				s0.2,0.2,0.5,0.2c0.4,0,0.6-0.3,0.6-0.9c0-0.3,0-0.5-0.1-0.7C245.6,260.5,245.5,260.5,245.3,260.5z"/>
		</g>
	</g>
	<g>
		<g>
			<path class="st1" d="M66.3,58.4h-0.8v-3.2h-1.1v-0.7h3v0.7h-1.1V58.4z"/>
			<path class="st1" d="M70.2,58.4l-0.2-1L69.6,56h0L69,58.4h-0.9l-0.9-3h0.8l0.3,1.3c0.1,0.2,0.1,0.6,0.2,1h0c0-0.1,0-0.4,0.1-0.6
				l0-0.2l0.4-1.4h0.9l0.4,1.4c0,0,0,0.1,0,0.2c0,0.1,0,0.2,0,0.2c0,0.1,0,0.2,0,0.3c0,0.1,0,0.1,0,0.2h0c0-0.1,0-0.3,0.1-0.5
				c0-0.2,0.1-0.4,0.1-0.5l0.4-1.3h0.8l-0.9,3H70.2z"/>
			<path class="st1" d="M74.9,56.9c0,0.5-0.1,0.9-0.4,1.1s-0.6,0.4-1.1,0.4c-0.3,0-0.5-0.1-0.8-0.2c-0.2-0.1-0.4-0.3-0.5-0.5
				S72,57.2,72,56.9c0-0.5,0.1-0.9,0.4-1.1c0.3-0.3,0.6-0.4,1.1-0.4c0.3,0,0.5,0.1,0.8,0.2c0.2,0.1,0.4,0.3,0.5,0.5
				S74.9,56.6,74.9,56.9z M72.8,56.9c0,0.3,0,0.5,0.1,0.7s0.3,0.2,0.5,0.2c0.2,0,0.4-0.1,0.5-0.2s0.1-0.4,0.1-0.7
				c0-0.3,0-0.5-0.1-0.7S73.7,56,73.4,56c-0.2,0-0.4,0.1-0.5,0.2C72.9,56.4,72.8,56.6,72.8,56.9z"/>
			<path class="st1" d="M80.5,58.4h-0.9L79,56.4c0-0.1-0.1-0.2-0.1-0.5s-0.1-0.4-0.1-0.5c0,0.1,0,0.3-0.1,0.5s-0.1,0.4-0.1,0.5
				l-0.5,2.1h-0.9l-1-3.9H77l0.5,2.1c0.1,0.4,0.2,0.7,0.2,1c0-0.1,0-0.3,0.1-0.5s0.1-0.4,0.1-0.5l0.6-2.2h0.8l0.6,2.2
				c0,0.1,0.1,0.2,0.1,0.5c0,0.2,0.1,0.4,0.1,0.5c0-0.1,0-0.3,0.1-0.5c0-0.2,0.1-0.4,0.1-0.5l0.5-2.1h0.8L80.5,58.4z"/>
			<path class="st1" d="M81.6,54.6c0-0.3,0.1-0.4,0.4-0.4c0.3,0,0.4,0.1,0.4,0.4c0,0.1,0,0.2-0.1,0.3s-0.2,0.1-0.3,0.1
				C81.8,55.1,81.6,54.9,81.6,54.6z M82.5,58.4h-0.8v-3h0.8V58.4z"/>
			<path class="st1" d="M84.8,55.4c0.1,0,0.2,0,0.3,0L85,56.2c-0.1,0-0.1,0-0.2,0c-0.3,0-0.5,0.1-0.6,0.2c-0.1,0.1-0.2,0.3-0.2,0.6
				v1.5h-0.8v-3h0.6l0.1,0.5h0c0.1-0.2,0.2-0.3,0.4-0.4C84.4,55.4,84.6,55.4,84.8,55.4z"/>
			<path class="st1" d="M86.8,58.5c-0.5,0-0.9-0.1-1.1-0.4c-0.3-0.3-0.4-0.6-0.4-1.1c0-0.5,0.1-0.9,0.4-1.2s0.6-0.4,1-0.4
				c0.4,0,0.8,0.1,1,0.4s0.4,0.6,0.4,1v0.4h-1.9c0,0.2,0.1,0.4,0.2,0.5s0.3,0.2,0.5,0.2c0.2,0,0.4,0,0.5-0.1s0.3-0.1,0.5-0.2v0.6
				c-0.1,0.1-0.3,0.1-0.5,0.2C87.2,58.5,87,58.5,86.8,58.5z M86.6,56c-0.2,0-0.3,0.1-0.4,0.2c-0.1,0.1-0.2,0.3-0.2,0.5h1.1
				c0-0.2-0.1-0.4-0.2-0.5C87,56,86.8,56,86.6,56z"/>
			<path class="st1" d="M71.9,63.9c0,0.4-0.1,0.6-0.4,0.8c-0.3,0.2-0.6,0.3-1.1,0.3c-0.4,0-0.8-0.1-1.1-0.2v-0.8
				c0.3,0.1,0.5,0.2,0.7,0.2c0.2,0,0.4,0.1,0.5,0.1c0.2,0,0.3,0,0.4-0.1c0.1-0.1,0.1-0.2,0.1-0.3c0-0.1,0-0.1-0.1-0.2
				s-0.1-0.1-0.2-0.2c-0.1-0.1-0.3-0.1-0.5-0.3c-0.2-0.1-0.4-0.2-0.5-0.3s-0.2-0.2-0.3-0.4c-0.1-0.1-0.1-0.3-0.1-0.5
				c0-0.3,0.1-0.6,0.4-0.8s0.6-0.3,1-0.3c0.2,0,0.4,0,0.6,0.1c0.2,0,0.4,0.1,0.6,0.2L71.6,62c-0.2-0.1-0.4-0.1-0.5-0.2
				c-0.1,0-0.3-0.1-0.4-0.1c-0.2,0-0.3,0-0.4,0.1c-0.1,0.1-0.1,0.2-0.1,0.3c0,0.1,0,0.1,0.1,0.2c0,0.1,0.1,0.1,0.2,0.2
				c0.1,0.1,0.3,0.1,0.5,0.3c0.4,0.2,0.6,0.4,0.8,0.5C71.8,63.5,71.9,63.7,71.9,63.9z"/>
			<path class="st1" d="M73.7,65.1c-0.5,0-0.9-0.1-1.1-0.4c-0.3-0.3-0.4-0.6-0.4-1.1c0-0.5,0.1-0.9,0.4-1.2s0.6-0.4,1-0.4
				c0.4,0,0.8,0.1,1,0.4s0.4,0.6,0.4,1v0.4H73c0,0.2,0.1,0.4,0.2,0.5s0.3,0.2,0.5,0.2c0.2,0,0.4,0,0.5-0.1s0.3-0.1,0.5-0.2v0.6
				c-0.1,0.1-0.3,0.1-0.5,0.2C74.1,65.1,73.9,65.1,73.7,65.1z M73.6,62.6c-0.2,0-0.3,0.1-0.4,0.2C73.1,62.8,73,63,73,63.2h1.1
				c0-0.2-0.1-0.4-0.2-0.5C73.9,62.6,73.7,62.6,73.6,62.6z"/>
			<path class="st1" d="M77,62c0.1,0,0.2,0,0.3,0l-0.1,0.8c-0.1,0-0.1,0-0.2,0c-0.3,0-0.5,0.1-0.6,0.2c-0.1,0.1-0.2,0.3-0.2,0.6V65
				h-0.8v-3H76l0.1,0.5h0c0.1-0.2,0.2-0.3,0.4-0.4C76.7,62,76.8,62,77,62z"/>
			<path class="st1" d="M77.6,61.2c0-0.3,0.1-0.4,0.4-0.4c0.3,0,0.4,0.1,0.4,0.4c0,0.1,0,0.2-0.1,0.3s-0.2,0.1-0.3,0.1
				C77.7,61.7,77.6,61.5,77.6,61.2z M78.4,65h-0.8v-3h0.8V65z"/>
			<path class="st1" d="M81,65l-0.2-0.4h0c-0.1,0.2-0.3,0.3-0.4,0.4c-0.1,0.1-0.3,0.1-0.6,0.1c-0.3,0-0.5-0.1-0.7-0.2
				s-0.2-0.4-0.2-0.7c0-0.3,0.1-0.6,0.3-0.7c0.2-0.2,0.6-0.2,1-0.3l0.5,0V63c0-0.3-0.2-0.5-0.5-0.5c-0.2,0-0.5,0.1-0.8,0.2l-0.3-0.6
				c0.3-0.2,0.7-0.3,1.1-0.3c0.4,0,0.7,0.1,0.9,0.3c0.2,0.2,0.3,0.4,0.3,0.8v2H81z M80.8,63.6l-0.3,0c-0.2,0-0.4,0.1-0.5,0.1
				s-0.2,0.2-0.2,0.4c0,0.2,0.1,0.3,0.4,0.3c0.2,0,0.3-0.1,0.5-0.2s0.2-0.3,0.2-0.4V63.6z"/>
			<path class="st1" d="M83,65h-0.8v-4.2H83V65z"/>
			<path class="st1" d="M65.1,71.6v-3.9h0.8v3.9H65.1z"/>
			<path class="st1" d="M69.4,71.6h-0.8v-1.8c0-0.2,0-0.4-0.1-0.5s-0.2-0.2-0.4-0.2c-0.2,0-0.4,0.1-0.5,0.2
				c-0.1,0.2-0.2,0.4-0.2,0.8v1.4h-0.8v-3h0.6l0.1,0.4h0c0.1-0.1,0.2-0.3,0.4-0.3s0.3-0.1,0.5-0.1c0.3,0,0.6,0.1,0.8,0.3
				c0.2,0.2,0.3,0.5,0.3,0.8V71.6z"/>
			<path class="st1" d="M71.3,71c0.1,0,0.3,0,0.5-0.1v0.6c-0.2,0.1-0.5,0.1-0.8,0.1c-0.3,0-0.6-0.1-0.7-0.2s-0.2-0.4-0.2-0.7v-1.4
				h-0.4v-0.3l0.5-0.3l0.2-0.6h0.5v0.6h0.8v0.6h-0.8v1.4c0,0.1,0,0.2,0.1,0.3S71.2,71,71.3,71z"/>
			<path class="st1" d="M73.5,71.7c-0.5,0-0.9-0.1-1.1-0.4C72.1,71,72,70.6,72,70.1c0-0.5,0.1-0.9,0.4-1.2s0.6-0.4,1-0.4
				c0.4,0,0.8,0.1,1,0.4s0.4,0.6,0.4,1v0.4h-1.9c0,0.2,0.1,0.4,0.2,0.5s0.3,0.2,0.5,0.2c0.2,0,0.4,0,0.5-0.1s0.3-0.1,0.5-0.2v0.6
				c-0.1,0.1-0.3,0.1-0.5,0.2C74,71.7,73.8,71.7,73.5,71.7z M73.4,69.2c-0.2,0-0.3,0.1-0.4,0.2c-0.1,0.1-0.2,0.3-0.2,0.5H74
				c0-0.2-0.1-0.4-0.2-0.5C73.7,69.2,73.6,69.2,73.4,69.2z"/>
			<path class="st1" d="M76.9,68.6c0.1,0,0.2,0,0.3,0l-0.1,0.8c-0.1,0-0.1,0-0.2,0c-0.3,0-0.5,0.1-0.6,0.2c-0.1,0.1-0.2,0.3-0.2,0.6
				v1.5h-0.8v-3h0.6l0.1,0.5h0c0.1-0.2,0.2-0.3,0.4-0.4C76.5,68.6,76.7,68.6,76.9,68.6z"/>
			<path class="st1" d="M79.1,69.2h-0.7v2.4h-0.8v-2.4h-0.5v-0.4l0.5-0.2v-0.2c0-0.3,0.1-0.6,0.3-0.7c0.2-0.2,0.4-0.2,0.8-0.2
				c0.3,0,0.5,0,0.8,0.1l-0.2,0.6c-0.2-0.1-0.3-0.1-0.5-0.1c-0.1,0-0.2,0-0.3,0.1c-0.1,0.1-0.1,0.2-0.1,0.3v0.2h0.7V69.2z"/>
			<path class="st1" d="M81.3,71.6l-0.2-0.4h0c-0.1,0.2-0.3,0.3-0.4,0.4c-0.1,0.1-0.3,0.1-0.6,0.1c-0.3,0-0.5-0.1-0.7-0.2
				s-0.2-0.4-0.2-0.7c0-0.3,0.1-0.6,0.3-0.7c0.2-0.2,0.6-0.2,1-0.3l0.5,0v-0.1c0-0.3-0.2-0.5-0.5-0.5c-0.2,0-0.5,0.1-0.8,0.2
				l-0.3-0.6c0.3-0.2,0.7-0.3,1.1-0.3c0.4,0,0.7,0.1,0.9,0.3c0.2,0.2,0.3,0.4,0.3,0.8v2H81.3z M81.1,70.2l-0.3,0
				c-0.2,0-0.4,0.1-0.5,0.1S80,70.6,80,70.7c0,0.2,0.1,0.3,0.4,0.3c0.2,0,0.3-0.1,0.5-0.2s0.2-0.3,0.2-0.4V70.2z"/>
			<path class="st1" d="M83.7,71.7c-0.9,0-1.4-0.5-1.4-1.5c0-0.5,0.1-0.9,0.4-1.2s0.6-0.4,1.1-0.4c0.3,0,0.7,0.1,0.9,0.2l-0.2,0.6
				c-0.1-0.1-0.2-0.1-0.4-0.1c-0.1,0-0.2,0-0.3,0c-0.4,0-0.6,0.3-0.6,0.9c0,0.6,0.2,0.9,0.6,0.9c0.2,0,0.3,0,0.4-0.1
				s0.3-0.1,0.4-0.2v0.7c-0.1,0.1-0.3,0.1-0.4,0.2S83.9,71.7,83.7,71.7z"/>
			<path class="st1" d="M86.5,71.7c-0.5,0-0.9-0.1-1.1-0.4c-0.3-0.3-0.4-0.6-0.4-1.1c0-0.5,0.1-0.9,0.4-1.2s0.6-0.4,1-0.4
				c0.4,0,0.8,0.1,1,0.4s0.4,0.6,0.4,1v0.4h-1.9c0,0.2,0.1,0.4,0.2,0.5s0.3,0.2,0.5,0.2c0.2,0,0.4,0,0.5-0.1s0.3-0.1,0.5-0.2v0.6
				c-0.1,0.1-0.3,0.1-0.5,0.2C86.9,71.7,86.7,71.7,86.5,71.7z M86.4,69.2c-0.2,0-0.3,0.1-0.4,0.2c-0.1,0.1-0.2,0.3-0.2,0.5h1.1
				c0-0.2-0.1-0.4-0.2-0.5C86.7,69.2,86.5,69.2,86.4,69.2z"/>
		</g>
	</g>
	<g>
		<path class="st10" d="M170.8,170.8h-42.4c-1.7,0-3-1.4-3-3v-27.2c0-1.7,1.3-3,3-3h42.4c1.6,0,3,1.3,3,3v27.2
			C173.8,169.4,172.5,170.8,170.8,170.8z"/>
	</g>
	<g>
		<g>
			<path class="st1" d="M135.6,149.6l-0.9-3.1h0c0,0.6,0.1,1,0.1,1.3v1.8h-0.7v-3.9h1.1l0.9,3h0l1-3h1.1v3.9h-0.8v-1.9
				c0-0.1,0-0.2,0-0.3c0-0.1,0-0.4,0-0.9h0l-1,3.1H135.6z"/>
			<path class="st1" d="M140.7,149.6l-0.2-0.4h0c-0.1,0.2-0.3,0.3-0.4,0.4c-0.1,0.1-0.3,0.1-0.6,0.1c-0.3,0-0.5-0.1-0.7-0.2
				s-0.2-0.4-0.2-0.7c0-0.3,0.1-0.6,0.3-0.7c0.2-0.2,0.6-0.2,1-0.3l0.5,0v-0.1c0-0.3-0.2-0.5-0.5-0.5c-0.2,0-0.5,0.1-0.8,0.2
				l-0.3-0.6c0.3-0.2,0.7-0.3,1.1-0.3c0.4,0,0.7,0.1,0.9,0.3c0.2,0.2,0.3,0.4,0.3,0.8v2H140.7z M140.5,148.2l-0.3,0
				c-0.2,0-0.4,0.1-0.5,0.1s-0.2,0.2-0.2,0.4c0,0.2,0.1,0.3,0.4,0.3c0.2,0,0.3-0.1,0.5-0.2s0.2-0.3,0.2-0.4V148.2z"/>
			<path class="st1" d="M141.9,145.8c0-0.3,0.1-0.4,0.4-0.4c0.3,0,0.4,0.1,0.4,0.4c0,0.1,0,0.2-0.1,0.3s-0.2,0.1-0.3,0.1
				C142,146.2,141.9,146.1,141.9,145.8z M142.7,149.6h-0.8v-3h0.8V149.6z"/>
			<path class="st1" d="M146.1,149.6h-0.8v-1.8c0-0.2,0-0.4-0.1-0.5s-0.2-0.2-0.4-0.2c-0.2,0-0.4,0.1-0.5,0.2
				c-0.1,0.2-0.2,0.4-0.2,0.8v1.4h-0.8v-3h0.6l0.1,0.4h0c0.1-0.1,0.2-0.3,0.4-0.3s0.3-0.1,0.5-0.1c0.3,0,0.6,0.1,0.8,0.3
				c0.2,0.2,0.3,0.5,0.3,0.8V149.6z"/>
			<path class="st1" d="M149.2,149.6c-0.9,0-1.4-0.5-1.4-1.5c0-0.5,0.1-0.9,0.4-1.2s0.6-0.4,1.1-0.4c0.3,0,0.7,0.1,0.9,0.2l-0.2,0.6
				c-0.1-0.1-0.2-0.1-0.4-0.1c-0.1,0-0.2,0-0.3,0c-0.4,0-0.6,0.3-0.6,0.9c0,0.6,0.2,0.9,0.6,0.9c0.2,0,0.3,0,0.4-0.1
				s0.3-0.1,0.4-0.2v0.7c-0.1,0.1-0.3,0.1-0.4,0.2S149.4,149.6,149.2,149.6z"/>
			<path class="st1" d="M153.3,148.1c0,0.5-0.1,0.9-0.4,1.1s-0.6,0.4-1.1,0.4c-0.3,0-0.5-0.1-0.8-0.2c-0.2-0.1-0.4-0.3-0.5-0.5
				s-0.2-0.5-0.2-0.8c0-0.5,0.1-0.9,0.4-1.1c0.3-0.3,0.6-0.4,1.1-0.4c0.3,0,0.5,0.1,0.8,0.2c0.2,0.1,0.4,0.3,0.5,0.5
				S153.3,147.8,153.3,148.1z M151.2,148.1c0,0.3,0,0.5,0.1,0.7s0.3,0.2,0.5,0.2c0.2,0,0.4-0.1,0.5-0.2s0.1-0.4,0.1-0.7
				c0-0.3,0-0.5-0.1-0.7s-0.3-0.2-0.5-0.2c-0.2,0-0.4,0.1-0.5,0.2C151.3,147.5,151.2,147.8,151.2,148.1z"/>
			<path class="st1" d="M156.5,149.6h-0.8v-1.8c0-0.2,0-0.4-0.1-0.5s-0.2-0.2-0.4-0.2c-0.2,0-0.4,0.1-0.5,0.2
				c-0.1,0.2-0.2,0.4-0.2,0.8v1.4h-0.8v-3h0.6l0.1,0.4h0c0.1-0.1,0.2-0.3,0.4-0.3s0.3-0.1,0.5-0.1c0.3,0,0.6,0.1,0.8,0.3
				c0.2,0.2,0.3,0.5,0.3,0.8V149.6z"/>
			<path class="st1" d="M158.4,149c0.1,0,0.3,0,0.5-0.1v0.6c-0.2,0.1-0.5,0.1-0.8,0.1c-0.3,0-0.6-0.1-0.7-0.2s-0.2-0.4-0.2-0.7v-1.4
				h-0.4v-0.3l0.5-0.3l0.2-0.6h0.5v0.6h0.8v0.6h-0.8v1.4c0,0.1,0,0.2,0.1,0.3S158.3,149,158.4,149z"/>
			<path class="st1" d="M161,146.5c0.1,0,0.2,0,0.3,0l-0.1,0.8c-0.1,0-0.1,0-0.2,0c-0.3,0-0.5,0.1-0.6,0.2c-0.1,0.1-0.2,0.3-0.2,0.6
				v1.5h-0.8v-3h0.6l0.1,0.5h0c0.1-0.2,0.2-0.3,0.4-0.4C160.6,146.6,160.8,146.5,161,146.5z"/>
			<path class="st1" d="M164.3,148.1c0,0.5-0.1,0.9-0.4,1.1s-0.6,0.4-1.1,0.4c-0.3,0-0.5-0.1-0.8-0.2c-0.2-0.1-0.4-0.3-0.5-0.5
				s-0.2-0.5-0.2-0.8c0-0.5,0.1-0.9,0.4-1.1c0.3-0.3,0.6-0.4,1.1-0.4c0.3,0,0.5,0.1,0.8,0.2c0.2,0.1,0.4,0.3,0.5,0.5
				S164.3,147.8,164.3,148.1z M162.2,148.1c0,0.3,0,0.5,0.1,0.7s0.3,0.2,0.5,0.2c0.2,0,0.4-0.1,0.5-0.2s0.1-0.4,0.1-0.7
				c0-0.3,0-0.5-0.1-0.7s-0.3-0.2-0.5-0.2c-0.2,0-0.4,0.1-0.5,0.2C162.3,147.5,162.2,147.8,162.2,148.1z"/>
			<path class="st1" d="M165.6,149.6h-0.8v-4.2h0.8V149.6z"/>
			<path class="st1" d="M139.5,156.2h-1l-0.3-0.3c-0.3,0.2-0.7,0.4-1.2,0.4c-0.4,0-0.8-0.1-1-0.3c-0.3-0.2-0.4-0.5-0.4-0.8
				c0-0.2,0.1-0.5,0.2-0.6s0.3-0.3,0.6-0.5c-0.1-0.2-0.2-0.3-0.3-0.4c-0.1-0.1-0.1-0.3-0.1-0.5c0-0.3,0.1-0.5,0.3-0.7
				s0.5-0.2,0.8-0.2c0.3,0,0.6,0.1,0.8,0.2s0.3,0.4,0.3,0.6c0,0.2-0.1,0.4-0.2,0.6c-0.1,0.2-0.3,0.3-0.6,0.5l0.8,0.7
				c0.1-0.2,0.2-0.5,0.3-0.8h0.9c-0.1,0.2-0.2,0.5-0.3,0.7s-0.2,0.4-0.4,0.6L139.5,156.2z M136.5,155c0,0.2,0.1,0.3,0.2,0.4
				c0.1,0.1,0.3,0.1,0.4,0.1c0.2,0,0.4-0.1,0.6-0.2l-0.9-0.9c-0.1,0.1-0.2,0.2-0.2,0.2S136.5,154.9,136.5,155z M137.4,153.1
				c0-0.1,0-0.2-0.1-0.2s-0.1-0.1-0.2-0.1c-0.1,0-0.2,0-0.3,0.1c-0.1,0.1-0.1,0.1-0.1,0.2c0,0.2,0.1,0.3,0.3,0.5
				c0.2-0.1,0.3-0.2,0.4-0.3C137.4,153.3,137.4,153.2,137.4,153.1z"/>
			<path class="st1" d="M141.8,154.7v1.5H141v-3.9h1.1c0.5,0,0.9,0.1,1.2,0.3c0.3,0.2,0.4,0.5,0.4,0.9c0,0.2-0.1,0.4-0.2,0.6
				c-0.1,0.2-0.3,0.3-0.5,0.4c0.6,0.9,1,1.5,1.2,1.7h-0.9l-0.9-1.5H141.8z M141.8,154h0.3c0.3,0,0.5,0,0.6-0.1
				c0.1-0.1,0.2-0.2,0.2-0.4c0-0.2-0.1-0.3-0.2-0.4s-0.3-0.1-0.6-0.1h-0.3V154z"/>
			<path class="st1" d="M145.7,156.2c-0.5,0-0.9-0.1-1.1-0.4c-0.3-0.3-0.4-0.6-0.4-1.1c0-0.5,0.1-0.9,0.4-1.2s0.6-0.4,1-0.4
				c0.4,0,0.8,0.1,1,0.4s0.4,0.6,0.4,1v0.4H145c0,0.2,0.1,0.4,0.2,0.5s0.3,0.2,0.5,0.2c0.2,0,0.4,0,0.5-0.1s0.3-0.1,0.5-0.2v0.6
				c-0.1,0.1-0.3,0.1-0.5,0.2C146.1,156.2,145.9,156.2,145.7,156.2z M145.6,153.7c-0.2,0-0.3,0.1-0.4,0.2c-0.1,0.1-0.2,0.3-0.2,0.5
				h1.1c0-0.2-0.1-0.4-0.2-0.5C145.9,153.8,145.8,153.7,145.6,153.7z"/>
			<path class="st1" d="M150,153.2v0.4l-0.5,0.1c0.1,0.1,0.1,0.3,0.1,0.5c0,0.3-0.1,0.6-0.3,0.8c-0.2,0.2-0.5,0.3-0.9,0.3l-0.1,0
				l-0.1,0c-0.1,0.1-0.1,0.1-0.1,0.2c0,0.1,0.2,0.2,0.5,0.2h0.5c0.3,0,0.6,0.1,0.8,0.2s0.3,0.3,0.3,0.6c0,0.4-0.1,0.6-0.4,0.8
				c-0.3,0.2-0.7,0.3-1.3,0.3c-0.4,0-0.7-0.1-1-0.2s-0.3-0.4-0.3-0.6c0-0.2,0.1-0.3,0.2-0.5c0.1-0.1,0.3-0.2,0.5-0.3
				c-0.1,0-0.2-0.1-0.2-0.2s-0.1-0.2-0.1-0.3c0-0.1,0-0.2,0.1-0.3s0.2-0.2,0.3-0.2c-0.2-0.1-0.3-0.2-0.4-0.3s-0.1-0.3-0.1-0.5
				c0-0.3,0.1-0.6,0.3-0.8c0.2-0.2,0.5-0.3,0.9-0.3c0.1,0,0.2,0,0.3,0c0.1,0,0.2,0,0.2,0H150z M147.7,156.6c0,0.1,0.1,0.2,0.2,0.3
				s0.3,0.1,0.5,0.1c0.3,0,0.5,0,0.7-0.1c0.2-0.1,0.2-0.2,0.2-0.3c0-0.1,0-0.2-0.1-0.2c-0.1,0-0.3-0.1-0.5-0.1h-0.4
				c-0.2,0-0.3,0-0.4,0.1S147.7,156.5,147.7,156.6z M148,154.2c0,0.2,0,0.3,0.1,0.4s0.2,0.1,0.3,0.1c0.2,0,0.3,0,0.3-0.1
				c0.1-0.1,0.1-0.2,0.1-0.4c0-0.4-0.1-0.5-0.4-0.5C148.1,153.6,148,153.8,148,154.2z"/>
			<path class="st1" d="M150.2,152.4c0-0.3,0.1-0.4,0.4-0.4c0.3,0,0.4,0.1,0.4,0.4c0,0.1,0,0.2-0.1,0.3s-0.2,0.1-0.3,0.1
				C150.4,152.8,150.2,152.7,150.2,152.4z M151.1,156.2h-0.8v-3h0.8V156.2z"/>
			<path class="st1" d="M153.8,155.3c0,0.3-0.1,0.5-0.3,0.7s-0.5,0.2-1,0.2c-0.2,0-0.4,0-0.6,0c-0.2,0-0.3-0.1-0.4-0.1v-0.7
				c0.2,0.1,0.3,0.1,0.5,0.2c0.2,0,0.4,0.1,0.5,0.1c0.3,0,0.4-0.1,0.4-0.3c0-0.1,0-0.1-0.1-0.2c0,0-0.1-0.1-0.2-0.1
				c-0.1-0.1-0.2-0.1-0.4-0.2c-0.2-0.1-0.4-0.2-0.5-0.3c-0.1-0.1-0.2-0.2-0.2-0.3s-0.1-0.2-0.1-0.4c0-0.3,0.1-0.5,0.3-0.6
				c0.2-0.1,0.5-0.2,0.9-0.2c0.4,0,0.7,0.1,1.1,0.2l-0.2,0.6c-0.2-0.1-0.3-0.1-0.4-0.2c-0.1,0-0.3-0.1-0.4-0.1
				c-0.2,0-0.4,0.1-0.4,0.2c0,0.1,0,0.1,0.1,0.2c0.1,0.1,0.2,0.1,0.5,0.2c0.2,0.1,0.4,0.2,0.5,0.3c0.1,0.1,0.2,0.2,0.2,0.3
				C153.8,155,153.8,155.1,153.8,155.3z"/>
			<path class="st1" d="M155.5,155.6c0.1,0,0.3,0,0.5-0.1v0.6c-0.2,0.1-0.5,0.1-0.8,0.1c-0.3,0-0.6-0.1-0.7-0.2s-0.2-0.4-0.2-0.7
				v-1.4h-0.4v-0.3l0.5-0.3l0.2-0.6h0.5v0.6h0.8v0.6h-0.8v1.4c0,0.1,0,0.2,0.1,0.3S155.4,155.6,155.5,155.6z"/>
			<path class="st1" d="M157.8,156.2c-0.5,0-0.9-0.1-1.1-0.4c-0.3-0.3-0.4-0.6-0.4-1.1c0-0.5,0.1-0.9,0.4-1.2s0.6-0.4,1-0.4
				c0.4,0,0.8,0.1,1,0.4s0.4,0.6,0.4,1v0.4h-1.9c0,0.2,0.1,0.4,0.2,0.5s0.3,0.2,0.5,0.2c0.2,0,0.4,0,0.5-0.1s0.3-0.1,0.5-0.2v0.6
				c-0.1,0.1-0.3,0.1-0.5,0.2C158.2,156.2,158,156.2,157.8,156.2z M157.7,153.7c-0.2,0-0.3,0.1-0.4,0.2c-0.1,0.1-0.2,0.3-0.2,0.5
				h1.1c0-0.2-0.1-0.4-0.2-0.5C158,153.8,157.8,153.7,157.7,153.7z"/>
			<path class="st1" d="M161.1,153.1c0.1,0,0.2,0,0.3,0l-0.1,0.8c-0.1,0-0.1,0-0.2,0c-0.3,0-0.5,0.1-0.6,0.2
				c-0.1,0.1-0.2,0.3-0.2,0.6v1.5h-0.8v-3h0.6l0.1,0.5h0c0.1-0.2,0.2-0.3,0.4-0.4C160.8,153.2,160.9,153.1,161.1,153.1z"/>
			<path class="st1" d="M163.8,155.3c0,0.3-0.1,0.5-0.3,0.7s-0.5,0.2-1,0.2c-0.2,0-0.4,0-0.6,0c-0.2,0-0.3-0.1-0.4-0.1v-0.7
				c0.2,0.1,0.3,0.1,0.5,0.2c0.2,0,0.4,0.1,0.5,0.1c0.3,0,0.4-0.1,0.4-0.3c0-0.1,0-0.1-0.1-0.2c0,0-0.1-0.1-0.2-0.1
				c-0.1-0.1-0.2-0.1-0.4-0.2c-0.2-0.1-0.4-0.2-0.5-0.3c-0.1-0.1-0.2-0.2-0.2-0.3s-0.1-0.2-0.1-0.4c0-0.3,0.1-0.5,0.3-0.6
				c0.2-0.1,0.5-0.2,0.9-0.2c0.4,0,0.7,0.1,1.1,0.2l-0.2,0.6c-0.2-0.1-0.3-0.1-0.4-0.2c-0.1,0-0.3-0.1-0.4-0.1
				c-0.2,0-0.4,0.1-0.4,0.2c0,0.1,0,0.1,0.1,0.2c0.1,0.1,0.2,0.1,0.5,0.2c0.2,0.1,0.4,0.2,0.5,0.3c0.1,0.1,0.2,0.2,0.2,0.3
				C163.8,155,163.8,155.1,163.8,155.3z"/>
			<path class="st1" d="M139.5,160.8c0,0.7-0.2,1.1-0.5,1.5c-0.3,0.3-0.8,0.5-1.4,0.5s-1.1-0.2-1.4-0.5c-0.3-0.3-0.5-0.9-0.5-1.5
				c0-0.7,0.2-1.2,0.5-1.5s0.8-0.5,1.4-0.5c0.6,0,1.1,0.2,1.4,0.5C139.4,159.7,139.5,160.2,139.5,160.8z M136.7,160.8
				c0,0.4,0.1,0.8,0.2,1c0.2,0.2,0.4,0.3,0.7,0.3c0.7,0,1-0.4,1-1.3c0-0.9-0.3-1.3-1-1.3c-0.3,0-0.6,0.1-0.7,0.3
				S136.7,160.4,136.7,160.8z"/>
			<path class="st1" d="M141.7,162.8h-0.8v-3.2h-1.1v-0.7h3v0.7h-1.1V162.8z"/>
			<path class="st1" d="M145.8,160.1c0,0.4-0.1,0.7-0.4,1s-0.6,0.3-1.1,0.3h-0.4v1.4h-0.8v-3.9h1.3c0.5,0,0.8,0.1,1.1,0.3
				S145.8,159.7,145.8,160.1z M143.9,160.7h0.3c0.3,0,0.4-0.1,0.6-0.2c0.1-0.1,0.2-0.2,0.2-0.4c0-0.2-0.1-0.3-0.2-0.4
				c-0.1-0.1-0.3-0.1-0.5-0.1h-0.4V160.7z"/>
			<path class="st1" d="M148.3,161.1h-1v-0.6h1v-1h0.6v1h1v0.6h-1v1h-0.6V161.1z"/>
			<path class="st1" d="M152.5,161.3v1.5h-0.8v-3.9h1.1c0.5,0,0.9,0.1,1.2,0.3c0.3,0.2,0.4,0.5,0.4,0.9c0,0.2-0.1,0.4-0.2,0.6
				c-0.1,0.2-0.3,0.3-0.5,0.4c0.6,0.9,1,1.5,1.2,1.7h-0.9l-0.9-1.5H152.5z M152.5,160.6h0.3c0.3,0,0.5,0,0.6-0.1
				c0.1-0.1,0.2-0.2,0.2-0.4c0-0.2-0.1-0.3-0.2-0.4c-0.1-0.1-0.3-0.1-0.6-0.1h-0.3V160.6z"/>
			<path class="st1" d="M158.6,160.8c0,0.7-0.2,1.1-0.5,1.5c-0.3,0.3-0.8,0.5-1.4,0.5s-1.1-0.2-1.4-0.5c-0.3-0.3-0.5-0.9-0.5-1.5
				c0-0.7,0.2-1.2,0.5-1.5s0.8-0.5,1.4-0.5c0.6,0,1.1,0.2,1.4,0.5C158.5,159.7,158.6,160.2,158.6,160.8z M155.8,160.8
				c0,0.4,0.1,0.8,0.2,1c0.2,0.2,0.4,0.3,0.7,0.3c0.7,0,1-0.4,1-1.3c0-0.9-0.3-1.3-1-1.3c-0.3,0-0.6,0.1-0.7,0.3
				S155.8,160.4,155.8,160.8z"/>
			<path class="st1" d="M160.9,162.8l-0.9-3.1h0c0,0.6,0.1,1,0.1,1.3v1.8h-0.7v-3.9h1.1l0.9,3h0l1-3h1.1v3.9h-0.8v-1.9
				c0-0.1,0-0.2,0-0.3c0-0.1,0-0.4,0-0.9h0l-1,3.1H160.9z"/>
		</g>
	</g>
	<g>
		<g>
			<g>
				<path class="st7" d="M36.8,19.1h-1.7v-6.5H33v-1.4H39v1.4h-2.1V19.1z"/>
				<path class="st7" d="M43.5,19.1l-1.9-6.2h0c0.1,1.3,0.1,2.1,0.1,2.5v3.7h-1.5v-7.9h2.3l1.9,6h0l2-6h2.3v7.9H47v-3.7
					c0-0.2,0-0.4,0-0.6c0-0.2,0-0.8,0.1-1.8h0l-2,6.1H43.5z"/>
				<path class="st7" d="M53.9,12.5c-0.6,0-1.1,0.2-1.5,0.7c-0.3,0.5-0.5,1.1-0.5,2c0,1.8,0.7,2.6,2,2.6c0.6,0,1.2-0.1,2-0.4v1.4
					c-0.6,0.3-1.4,0.4-2.2,0.4c-1.1,0-2-0.3-2.6-1c-0.6-0.7-0.9-1.7-0.9-3c0-0.8,0.1-1.5,0.4-2.1c0.3-0.6,0.7-1.1,1.3-1.4
					c0.6-0.3,1.2-0.5,2-0.5c0.8,0,1.5,0.2,2.3,0.6L55.7,13c-0.3-0.1-0.6-0.3-0.9-0.4S54.2,12.5,53.9,12.5z"/>
				<path class="st7" d="M62.5,19.1H57v-1.2l2-2c0.6-0.6,1-1,1.1-1.2c0.2-0.2,0.3-0.4,0.4-0.6s0.1-0.4,0.1-0.6
					c0-0.3-0.1-0.5-0.3-0.7c-0.2-0.2-0.4-0.2-0.7-0.2c-0.3,0-0.6,0.1-0.9,0.2s-0.6,0.3-0.9,0.6L57,12.2c0.4-0.3,0.7-0.6,1-0.7
					s0.5-0.2,0.8-0.3c0.3-0.1,0.6-0.1,1-0.1c0.5,0,0.9,0.1,1.3,0.3s0.7,0.4,0.9,0.8s0.3,0.7,0.3,1.1c0,0.4-0.1,0.7-0.2,1
					c-0.1,0.3-0.3,0.6-0.6,1c-0.3,0.3-0.7,0.8-1.4,1.4l-1,1v0.1h3.4V19.1z"/>
				<path class="st7" d="M68.8,19.1h-5.5v-1.2l2-2c0.6-0.6,1-1,1.1-1.2c0.2-0.2,0.3-0.4,0.4-0.6s0.1-0.4,0.1-0.6
					c0-0.3-0.1-0.5-0.3-0.7c-0.2-0.2-0.4-0.2-0.7-0.2c-0.3,0-0.6,0.1-0.9,0.2s-0.6,0.3-0.9,0.6l-0.9-1.1c0.4-0.3,0.7-0.6,1-0.7
					s0.5-0.2,0.8-0.3c0.3-0.1,0.6-0.1,1-0.1c0.5,0,0.9,0.1,1.3,0.3s0.7,0.4,0.9,0.8s0.3,0.7,0.3,1.1c0,0.4-0.1,0.7-0.2,1
					c-0.1,0.3-0.3,0.6-0.6,1c-0.3,0.3-0.7,0.8-1.4,1.4l-1,1v0.1h3.4V19.1z"/>
				<path class="st7" d="M74.8,13c0,0.5-0.1,0.9-0.4,1.3s-0.7,0.6-1.3,0.7v0c0.6,0.1,1.1,0.3,1.4,0.6c0.3,0.3,0.5,0.7,0.5,1.2
					c0,0.8-0.3,1.3-0.8,1.8c-0.5,0.4-1.3,0.6-2.3,0.6c-0.9,0-1.6-0.1-2.3-0.4v-1.4c0.3,0.2,0.6,0.3,1,0.4s0.7,0.1,1.1,0.1
					c0.5,0,1-0.1,1.2-0.3s0.4-0.5,0.4-0.9c0-0.4-0.2-0.6-0.5-0.8s-0.8-0.2-1.4-0.2h-0.6v-1.3h0.6c0.6,0,1.1-0.1,1.3-0.2
					c0.3-0.2,0.4-0.4,0.4-0.8c0-0.6-0.4-0.9-1.1-0.9c-0.3,0-0.5,0-0.8,0.1c-0.3,0.1-0.6,0.2-0.9,0.4l-0.8-1.1
					c0.7-0.5,1.6-0.8,2.6-0.8c0.8,0,1.5,0.2,1.9,0.5C74.5,11.9,74.8,12.4,74.8,13z"/>
			</g>
		</g>
	</g>
	<polyline class="st6" points="377.7,34 369.7,34 369.7,42 377.7,42 	"/>
	<line class="st6" x1="365.2" y1="38" x2="350.4" y2="38"/>
	<line class="st6" x1="365.2" y1="42" x2="365.2" y2="34"/>
	<g>
		<rect x="368.3" y="33.6" class="st7" width="1.8" height="8.8"/>
		<path class="st7" d="M369.7,34v8h-1v-8H369.7 M370.4,33.2h-0.8h-1h-0.8V34v8v0.8h0.8h1h0.8V42v-8V33.2L370.4,33.2z"/>
	</g>
	<polyline class="st6" points="377.7,34 377.7,27.3 401.7,27.3 401.7,34 	"/>
	<polyline class="st6" points="401.7,34 409.7,34 409.7,42 401.7,42 	"/>
	<polyline class="st6" points="350.4,52.1 420.9,52.1 420.9,38 414.2,38 	"/>
	<polyline class="st6" points="414.2,86 420.9,86 420.9,71.9 350.4,71.9 	"/>
	<line class="st6" x1="414.2" y1="42" x2="414.2" y2="34"/>
	<g>
		<rect x="409.3" y="33.6" class="st7" width="1.8" height="8.8"/>
		<path class="st7" d="M410.7,34v8h-1v-8H410.7 M411.4,33.3h-0.8h-1h-0.8V34v8v0.8h0.8h1h0.8V42v-8V33.3L411.4,33.3z"/>
	</g>
	<line class="st6" x1="389.7" y1="27.3" x2="389.7" y2="18.9"/>
	<polyline class="st6" points="377.7,82 369.7,82 369.7,90 377.7,90 	"/>
	<line class="st6" x1="365.2" y1="86" x2="350.4" y2="86"/>
	<line class="st6" x1="365.2" y1="90" x2="365.2" y2="82"/>
	<g>
		<rect x="368.3" y="81.6" class="st7" width="1.8" height="8.8"/>
		<path class="st7" d="M369.7,82v8h-1v-8H369.7 M370.4,81.3h-0.8h-1h-0.8V82v8v0.8h0.8h1h0.8V90v-8V81.3L370.4,81.3z"/>
	</g>
	<line class="st6" x1="377.7" y1="82" x2="377.7" y2="42"/>
	<polyline class="st6" points="401.7,82 409.7,82 409.7,90 401.7,90 	"/>
	<line class="st6" x1="414.2" y1="90" x2="414.2" y2="82"/>
	<g>
		<rect x="409.3" y="81.6" class="st7" width="1.8" height="8.8"/>
		<path class="st7" d="M410.7,82v8h-1v-8H410.7 M411.4,81.3h-0.8h-1h-0.8V82v8v0.8h0.8h1h0.8V90v-8V81.3L411.4,81.3z"/>
	</g>
	<line class="st6" x1="401.7" y1="82" x2="401.7" y2="42"/>
	<circle class="st7" cx="389.7" cy="27.3" r="3"/>
	<circle class="st7" cx="377.7" cy="59" r="3"/>
	<circle class="st7" cx="401.7" cy="65" r="3"/>
	<polyline class="st6" points="377.7,59 427.7,59 427.7,38 452.4,38 	"/>
	<polyline class="st6" points="401.7,65 427.7,65 427.7,86 452.4,86 	"/>
	<polyline class="st6" points="377.7,90 377.7,96.7 401.7,96.7 401.7,90 	"/>
	<circle class="st7" cx="389.7" cy="96.7" r="3"/>
	<line class="st6" x1="389.7" y1="96.7" x2="389.7" y2="105"/>
	<polygon class="st9" points="297.1,85.7 273.5,74.8 273.5,96.6 	"/>
	<path class="st7" d="M277.7,84.3h-0.8v-1.4h-1.4v-0.8h1.4v-1.4h0.8v1.4h1.4v0.8h-1.4V84.3z"/>
	<path class="st7" d="M276.3,89.4v-0.9h2v0.9H276.3z"/>
	<line class="st6" x1="34.8" y1="68.6" x2="49.1" y2="68.6"/>
	<polygon class="st7" points="51.1,68.6 48.1,65.8 48.1,71.3 	"/>
	<g>
		<path class="st7" d="M8.9,69.5c0,0.4-0.1,0.6-0.4,0.8c-0.3,0.2-0.6,0.3-1.1,0.3c-0.4,0-0.8-0.1-1.1-0.2v-0.8
			c0.3,0.1,0.5,0.2,0.7,0.2c0.2,0,0.4,0.1,0.5,0.1c0.2,0,0.3,0,0.4-0.1c0.1-0.1,0.1-0.2,0.1-0.3c0-0.1,0-0.1-0.1-0.2
			s-0.1-0.1-0.2-0.2c-0.1-0.1-0.3-0.1-0.5-0.3c-0.2-0.1-0.4-0.2-0.5-0.3s-0.2-0.2-0.3-0.4c-0.1-0.1-0.1-0.3-0.1-0.5
			c0-0.3,0.1-0.6,0.4-0.8s0.6-0.3,1-0.3c0.2,0,0.4,0,0.6,0.1c0.2,0,0.4,0.1,0.6,0.2l-0.3,0.6c-0.2-0.1-0.4-0.1-0.5-0.2
			c-0.1,0-0.3-0.1-0.4-0.1c-0.2,0-0.3,0-0.4,0.1c-0.1,0.1-0.1,0.2-0.1,0.3c0,0.1,0,0.1,0.1,0.2c0,0.1,0.1,0.1,0.2,0.2
			c0.1,0.1,0.3,0.1,0.5,0.3c0.4,0.2,0.6,0.4,0.8,0.5C8.8,69,8.9,69.2,8.9,69.5z"/>
		<path class="st7" d="M11.3,67.3c-0.3,0-0.6,0.1-0.7,0.4s-0.3,0.6-0.3,1c0,0.9,0.3,1.3,1,1.3c0.3,0,0.6-0.1,1-0.2v0.7
			c-0.3,0.1-0.7,0.2-1.1,0.2c-0.6,0-1-0.2-1.3-0.5c-0.3-0.3-0.5-0.8-0.5-1.5c0-0.4,0.1-0.8,0.2-1.1s0.4-0.5,0.6-0.7
			c0.3-0.2,0.6-0.2,1-0.2c0.4,0,0.8,0.1,1.1,0.3l-0.3,0.7c-0.1-0.1-0.3-0.1-0.4-0.2S11.4,67.3,11.3,67.3z"/>
		<path class="st7" d="M13.1,70.6v-3.9h0.8v3.2h1.6v0.7H13.1z"/>
	</g>
	<rect x="20.8" y="64.6" class="st9" width="8" height="8"/>
	<line class="st6" x1="34.8" y1="53.6" x2="49.1" y2="53.6"/>
	<polygon class="st7" points="51.1,53.6 48.1,50.8 48.1,56.3 	"/>
	<polygon class="st7" points="34.1,53.6 37.1,56.3 37.1,50.8 	"/>
	<line class="st6" x1="149.6" y1="131.7" x2="149.6" y2="107.1"/>
	<polygon class="st7" points="149.6,105.1 146.8,108.1 152.3,108.1 	"/>
	<polygon class="st7" points="149.6,132.5 152.3,129.5 146.8,129.5 	"/>
	<polyline class="st6" points="119.6,144.4 110.6,144.4 110.6,123 103.4,123 	"/>
	<polygon class="st7" points="101.4,123 104.4,125.8 104.4,120.3 	"/>
	<polygon class="st7" points="120.4,144.4 117.4,141.6 117.4,147.1 	"/>
	<polygon class="st7" points="34.1,68.6 37.1,71.3 37.1,65.8 	"/>
	<line class="st6" x1="82.6" y1="101.5" x2="82.6" y2="86.5"/>
	<polygon class="st7" points="82.6,84.5 79.9,87.5 85.4,87.5 	"/>
	<line class="st6" x1="69.6" y1="100.8" x2="69.6" y2="84.5"/>
	<polygon class="st7" points="69.6,101.5 72.4,98.5 66.9,98.5 	"/>
	<g>
		<path class="st7" d="M8.2,54.5c0,0.4-0.1,0.6-0.4,0.8c-0.3,0.2-0.6,0.3-1.1,0.3c-0.4,0-0.8-0.1-1.1-0.2v-0.8
			c0.3,0.1,0.5,0.2,0.7,0.2c0.2,0,0.4,0.1,0.5,0.1c0.2,0,0.3,0,0.4-0.1c0.1-0.1,0.1-0.2,0.1-0.3c0-0.1,0-0.1-0.1-0.2
			s-0.1-0.1-0.2-0.2c-0.1-0.1-0.3-0.1-0.5-0.3c-0.2-0.1-0.4-0.2-0.5-0.3s-0.2-0.2-0.3-0.4c-0.1-0.1-0.1-0.3-0.1-0.5
			c0-0.3,0.1-0.6,0.4-0.8s0.6-0.3,1-0.3c0.2,0,0.4,0,0.6,0.1c0.2,0,0.4,0.1,0.6,0.2L8,52.5c-0.2-0.1-0.4-0.1-0.5-0.2
			c-0.1,0-0.3-0.1-0.4-0.1c-0.2,0-0.3,0-0.4,0.1c-0.1,0.1-0.1,0.2-0.1,0.3c0,0.1,0,0.1,0.1,0.2c0,0.1,0.1,0.1,0.2,0.2
			c0.1,0.1,0.3,0.1,0.5,0.3c0.4,0.2,0.6,0.4,0.8,0.5C8.2,54,8.2,54.2,8.2,54.5z"/>
		<path class="st7" d="M12.2,53.6c0,0.6-0.2,1.1-0.6,1.5c-0.4,0.3-0.9,0.5-1.6,0.5H9v-3.9h1.2c0.6,0,1.1,0.2,1.5,0.5
			C12,52.5,12.2,53,12.2,53.6z M11.4,53.6c0-0.8-0.4-1.3-1.1-1.3H9.8v2.6h0.4C11,54.9,11.4,54.4,11.4,53.6z"/>
		<path class="st7" d="M15.4,55.6l-0.3-0.9h-1.4l-0.3,0.9h-0.9l1.4-3.9h1l1.4,3.9H15.4z M15,53.9c-0.3-0.8-0.4-1.3-0.4-1.4
			c0-0.1-0.1-0.2-0.1-0.3c-0.1,0.2-0.2,0.8-0.5,1.7H15z"/>
	</g>
	<rect x="20.8" y="49.6" class="st9" width="8" height="8"/>
	<line class="st6" x1="18.2" y1="38.6" x2="122.4" y2="38.6"/>
	<polygon class="st7" points="124.4,38.6 121.4,35.8 121.4,41.3 	"/>
	<line class="st6" x1="258.2" y1="49" x2="300.4" y2="49"/>
	<polygon class="st7" points="302.4,49 299.4,46.2 299.4,51.7 	"/>
	<line class="st6" x1="178.2" y1="64.6" x2="199.5" y2="64.6"/>
	<polygon class="st7" points="201.5,64.6 198.5,61.8 198.5,67.3 	"/>
	<line class="st6" x1="178.2" y1="154.8" x2="199.5" y2="154.8"/>
	<polygon class="st7" points="201.5,154.8 198.5,152.1 198.5,157.6 	"/>
	<g>
		<path class="st7" d="M8.6,39.5c0,0.4-0.1,0.6-0.4,0.8c-0.3,0.2-0.6,0.3-1.1,0.3c-0.4,0-0.8-0.1-1.1-0.2v-0.8
			c0.3,0.1,0.5,0.2,0.7,0.2c0.2,0,0.4,0.1,0.5,0.1c0.2,0,0.3,0,0.4-0.1c0.1-0.1,0.1-0.2,0.1-0.3c0-0.1,0-0.1-0.1-0.2
			s-0.1-0.1-0.2-0.2C7.5,39.1,7.3,39,7,38.9c-0.2-0.1-0.4-0.2-0.5-0.3s-0.2-0.2-0.3-0.4c-0.1-0.1-0.1-0.3-0.1-0.5
			c0-0.3,0.1-0.6,0.4-0.8s0.6-0.3,1-0.3c0.2,0,0.4,0,0.6,0.1c0.2,0,0.4,0.1,0.6,0.2l-0.3,0.6c-0.2-0.1-0.4-0.1-0.5-0.2
			c-0.1,0-0.3-0.1-0.4-0.1c-0.2,0-0.3,0-0.4,0.1c-0.1,0.1-0.1,0.2-0.1,0.3c0,0.1,0,0.1,0.1,0.2C7,37.9,7.1,38,7.1,38
			c0.1,0.1,0.3,0.1,0.5,0.3c0.4,0.2,0.6,0.4,0.8,0.5C8.5,39,8.6,39.2,8.6,39.5z"/>
		<path class="st7" d="M13.1,40.6h-0.9l-0.5-2.1c0-0.1-0.1-0.2-0.1-0.5s-0.1-0.4-0.1-0.5c0,0.1,0,0.3-0.1,0.5s-0.1,0.4-0.1,0.5
			l-0.5,2.1H9.8l-1-3.9h0.8l0.5,2.1c0.1,0.4,0.2,0.7,0.2,1c0-0.1,0-0.3,0.1-0.5s0.1-0.4,0.1-0.5l0.6-2.2h0.8l0.6,2.2
			c0,0.1,0.1,0.2,0.1,0.5c0,0.2,0.1,0.4,0.1,0.5c0-0.1,0-0.3,0.1-0.5c0-0.2,0.1-0.4,0.1-0.5l0.5-2.1h0.8L13.1,40.6z"/>
		<path class="st7" d="M14.6,40.6v-3.9h0.8v3.9H14.6z"/>
	</g>
	<rect x="20.8" y="34.6" class="st9" width="8" height="8"/>
	<line class="st6" x1="102.1" y1="157.6" x2="118.4" y2="157.6"/>
	<polygon class="st7" points="120.4,157.6 117.4,154.9 117.4,160.4 	"/>
	<polygon class="st7" points="101.4,157.6 104.4,160.4 104.4,154.9 	"/>
	<polygon class="st7" points="389.7,17.3 386.9,20.3 392.4,20.3 	"/>
	<polygon class="st7" points="389.7,106.7 392.4,103.7 386.9,103.7 	"/>
	<circle class="st7" cx="439.5" cy="86" r="3"/>
	<polyline class="st6" points="439.5,86 439.5,111.5 265.3,111.5 265.3,88.9 273.5,88.9 	"/>
	<g>
		<path class="st10" d="M351.3,24.6H310c-1.7,0-3,1.3-3,3v68.9c0,1.6,1.3,3,3,3h41.3c1.7,0,3-1.4,3-3V27.6
			C354.3,25.9,353,24.6,351.3,24.6z"/>
	</g>
	<g>
		<g>
			<path class="st1" d="M327.2,53.3c0,0.4-0.1,0.7-0.4,1c-0.3,0.2-0.6,0.3-1.1,0.3h-0.4V56h-0.8v-3.9h1.3c0.5,0,0.8,0.1,1.1,0.3
				S327.2,52.9,327.2,53.3z M325.3,53.9h0.3c0.3,0,0.4-0.1,0.6-0.2s0.2-0.2,0.2-0.4c0-0.2-0.1-0.3-0.2-0.4s-0.3-0.1-0.5-0.1h-0.4
				V53.9z"/>
			<path class="st1" d="M331.5,56h-0.9l-0.5-2.1c0-0.1-0.1-0.2-0.1-0.5s-0.1-0.4-0.1-0.5c0,0.1,0,0.3-0.1,0.5s-0.1,0.4-0.1,0.5
				l-0.5,2.1h-0.9l-1-3.9h0.8l0.5,2.1c0.1,0.4,0.2,0.7,0.2,1c0-0.1,0-0.3,0.1-0.5s0.1-0.4,0.1-0.5l0.6-2.2h0.8l0.6,2.2
				c0,0.1,0.1,0.2,0.1,0.5c0,0.2,0.1,0.4,0.1,0.5c0-0.1,0-0.3,0.1-0.5c0-0.2,0.1-0.4,0.1-0.5l0.5-2.1h0.8L331.5,56z"/>
			<path class="st1" d="M334.4,56l-0.9-3.1h0c0,0.6,0.1,1,0.1,1.3V56h-0.7v-3.9h1.1l0.9,3h0l1-3h1.1V56h-0.8v-1.9c0-0.1,0-0.2,0-0.3
				c0-0.1,0-0.4,0-0.9h0l-1,3.1H334.4z"/>
			<path class="st1" d="M320.8,59.6c0.1,0,0.2,0,0.3,0l-0.1,0.8c-0.1,0-0.1,0-0.2,0c-0.3,0-0.5,0.1-0.6,0.2
				c-0.1,0.1-0.2,0.3-0.2,0.6v1.5h-0.8v-3h0.6l0.1,0.5h0c0.1-0.2,0.2-0.3,0.4-0.4C320.5,59.6,320.6,59.6,320.8,59.6z"/>
			<path class="st1" d="M322.8,62.7c-0.5,0-0.9-0.1-1.1-0.4c-0.3-0.3-0.4-0.6-0.4-1.1c0-0.5,0.1-0.9,0.4-1.2s0.6-0.4,1-0.4
				c0.4,0,0.8,0.1,1,0.4s0.4,0.6,0.4,1v0.4h-1.9c0,0.2,0.1,0.4,0.2,0.5s0.3,0.2,0.5,0.2c0.2,0,0.4,0,0.5-0.1s0.3-0.1,0.5-0.2v0.6
				c-0.1,0.1-0.3,0.1-0.5,0.2C323.2,62.6,323,62.7,322.8,62.7z M322.7,60.1c-0.2,0-0.3,0.1-0.4,0.2c-0.1,0.1-0.2,0.3-0.2,0.5h1.1
				c0-0.2-0.1-0.4-0.2-0.5C323,60.2,322.8,60.1,322.7,60.1z"/>
			<path class="st1" d="M327.1,59.6V60l-0.5,0.1c0.1,0.1,0.1,0.3,0.1,0.5c0,0.3-0.1,0.6-0.3,0.8c-0.2,0.2-0.5,0.3-0.9,0.3l-0.1,0
				l-0.1,0c-0.1,0.1-0.1,0.1-0.1,0.2c0,0.1,0.2,0.2,0.5,0.2h0.5c0.3,0,0.6,0.1,0.8,0.2s0.3,0.3,0.3,0.6c0,0.4-0.1,0.6-0.4,0.8
				c-0.3,0.2-0.7,0.3-1.3,0.3c-0.4,0-0.7-0.1-1-0.2s-0.3-0.4-0.3-0.6c0-0.2,0.1-0.3,0.2-0.5c0.1-0.1,0.3-0.2,0.5-0.3
				c-0.1,0-0.2-0.1-0.2-0.2s-0.1-0.2-0.1-0.3c0-0.1,0-0.2,0.1-0.3s0.2-0.2,0.3-0.2c-0.2-0.1-0.3-0.2-0.4-0.3s-0.1-0.3-0.1-0.5
				c0-0.3,0.1-0.6,0.3-0.8c0.2-0.2,0.5-0.3,0.9-0.3c0.1,0,0.2,0,0.3,0c0.1,0,0.2,0,0.2,0H327.1z M324.8,63c0,0.1,0.1,0.2,0.2,0.3
				s0.3,0.1,0.5,0.1c0.3,0,0.5,0,0.7-0.1c0.2-0.1,0.2-0.2,0.2-0.3c0-0.1,0-0.2-0.1-0.2c-0.1,0-0.3-0.1-0.5-0.1h-0.4
				c-0.2,0-0.3,0-0.4,0.1S324.8,62.9,324.8,63z M325.1,60.6c0,0.2,0,0.3,0.1,0.4s0.2,0.1,0.3,0.1c0.2,0,0.3,0,0.3-0.1
				c0.1-0.1,0.1-0.2,0.1-0.4c0-0.4-0.1-0.5-0.4-0.5C325.2,60,325.1,60.2,325.1,60.6z"/>
			<path class="st1" d="M329.5,62.6l-0.1-0.4h0c-0.1,0.1-0.2,0.2-0.4,0.3s-0.3,0.1-0.6,0.1c-0.4,0-0.6-0.1-0.8-0.3s-0.3-0.5-0.3-0.8
				v-2h0.8v1.8c0,0.2,0,0.4,0.1,0.5s0.2,0.2,0.4,0.2c0.2,0,0.4-0.1,0.5-0.2c0.1-0.2,0.2-0.4,0.2-0.8v-1.4h0.8v3H329.5z"/>
			<path class="st1" d="M331.6,62.6h-0.8v-4.2h0.8V62.6z"/>
			<path class="st1" d="M334.1,62.6l-0.2-0.4h0c-0.1,0.2-0.3,0.3-0.4,0.4c-0.1,0.1-0.3,0.1-0.6,0.1c-0.3,0-0.5-0.1-0.7-0.2
				S332,62,332,61.7c0-0.3,0.1-0.6,0.3-0.7c0.2-0.2,0.6-0.2,1-0.3l0.5,0v-0.1c0-0.3-0.2-0.5-0.5-0.5c-0.2,0-0.5,0.1-0.8,0.2
				l-0.3-0.6c0.3-0.2,0.7-0.3,1.1-0.3c0.4,0,0.7,0.1,0.9,0.3c0.2,0.2,0.3,0.4,0.3,0.8v2H334.1z M333.9,61.2l-0.3,0
				c-0.2,0-0.4,0.1-0.5,0.1s-0.2,0.2-0.2,0.4c0,0.2,0.1,0.3,0.4,0.3c0.2,0,0.3-0.1,0.5-0.2s0.2-0.3,0.2-0.4V61.2z"/>
			<path class="st1" d="M336.6,62c0.1,0,0.3,0,0.5-0.1v0.6c-0.2,0.1-0.5,0.1-0.8,0.1c-0.3,0-0.6-0.1-0.7-0.2s-0.2-0.4-0.2-0.7v-1.4
				H335v-0.3l0.5-0.3l0.2-0.6h0.5v0.6h0.8v0.6h-0.8v1.4c0,0.1,0,0.2,0.1,0.3S336.5,62,336.6,62z"/>
			<path class="st1" d="M340.2,61.1c0,0.5-0.1,0.9-0.4,1.1s-0.6,0.4-1.1,0.4c-0.3,0-0.5-0.1-0.8-0.2c-0.2-0.1-0.4-0.3-0.5-0.5
				s-0.2-0.5-0.2-0.8c0-0.5,0.1-0.9,0.4-1.1c0.3-0.3,0.6-0.4,1.1-0.4c0.3,0,0.5,0.1,0.8,0.2c0.2,0.1,0.4,0.3,0.5,0.5
				S340.2,60.8,340.2,61.1z M338.1,61.1c0,0.3,0,0.5,0.1,0.7s0.3,0.2,0.5,0.2c0.2,0,0.4-0.1,0.5-0.2s0.1-0.4,0.1-0.7
				c0-0.3,0-0.5-0.1-0.7s-0.3-0.2-0.5-0.2c-0.2,0-0.4,0.1-0.5,0.2C338.2,60.6,338.1,60.8,338.1,61.1z"/>
			<path class="st1" d="M342.3,59.6c0.1,0,0.2,0,0.3,0l-0.1,0.8c-0.1,0-0.1,0-0.2,0c-0.3,0-0.5,0.1-0.6,0.2
				c-0.1,0.1-0.2,0.3-0.2,0.6v1.5h-0.8v-3h0.6l0.1,0.5h0c0.1-0.2,0.2-0.3,0.4-0.4C342,59.6,342.1,59.6,342.3,59.6z"/>
			<path class="st1" d="M332.6,69.2h-1l-0.9-1.5l-0.9,1.5h-0.9l1.3-2l-1.2-1.9h0.9l0.8,1.4l0.8-1.4h0.9l-1.2,1.9L332.6,69.2z"/>
		</g>
	</g>
	<g>
		<path class="st7" d="M464.5,38c0,0.7-0.2,1.1-0.5,1.5c-0.3,0.3-0.8,0.5-1.4,0.5s-1.1-0.2-1.4-0.5c-0.3-0.3-0.5-0.9-0.5-1.5
			c0-0.7,0.2-1.2,0.5-1.5s0.8-0.5,1.4-0.5c0.6,0,1.1,0.2,1.4,0.5C464.3,36.9,464.5,37.4,464.5,38z M461.6,38c0,0.4,0.1,0.8,0.2,1
			c0.2,0.2,0.4,0.3,0.7,0.3c0.7,0,1-0.4,1-1.3c0-0.9-0.3-1.3-1-1.3c-0.3,0-0.6,0.1-0.7,0.3C461.7,37.3,461.6,37.6,461.6,38z"/>
		<path class="st7" d="M467.7,40l-0.3-0.9H466l-0.3,0.9h-0.9l1.4-3.9h1l1.4,3.9H467.7z M467.2,38.4c-0.3-0.8-0.4-1.3-0.4-1.4
			c0-0.1-0.1-0.2-0.1-0.3c-0.1,0.2-0.2,0.8-0.5,1.7H467.2z"/>
		<path class="st7" d="M470.9,40H470v-2.3l0-0.4l0-0.4c-0.1,0.1-0.2,0.2-0.3,0.3l-0.5,0.4l-0.4-0.5l1.3-1h0.7V40z"/>
	</g>
	<rect x="448.4" y="34" class="st9" width="8" height="8"/>
	<g>
		<path class="st7" d="M464.5,86.1c0,0.7-0.2,1.1-0.5,1.5c-0.3,0.3-0.8,0.5-1.4,0.5s-1.1-0.2-1.4-0.5c-0.3-0.3-0.5-0.9-0.5-1.5
			c0-0.7,0.2-1.2,0.5-1.5s0.8-0.5,1.4-0.5c0.6,0,1.1,0.2,1.4,0.5C464.3,84.9,464.5,85.4,464.5,86.1z M461.6,86.1
			c0,0.4,0.1,0.8,0.2,1c0.2,0.2,0.4,0.3,0.7,0.3c0.7,0,1-0.4,1-1.3c0-0.9-0.3-1.3-1-1.3c-0.3,0-0.6,0.1-0.7,0.3
			C461.7,85.3,461.6,85.6,461.6,86.1z"/>
		<path class="st7" d="M467.7,88l-0.3-0.9H466l-0.3,0.9h-0.9l1.4-3.9h1l1.4,3.9H467.7z M467.2,86.4c-0.3-0.8-0.4-1.3-0.4-1.4
			c0-0.1-0.1-0.2-0.1-0.3c-0.1,0.2-0.2,0.8-0.5,1.7H467.2z"/>
		<path class="st7" d="M471.6,88h-2.7v-0.6l1-1c0.3-0.3,0.5-0.5,0.6-0.6c0.1-0.1,0.2-0.2,0.2-0.3c0-0.1,0.1-0.2,0.1-0.3
			c0-0.2,0-0.3-0.1-0.4s-0.2-0.1-0.3-0.1c-0.2,0-0.3,0-0.4,0.1c-0.1,0.1-0.3,0.2-0.4,0.3l-0.5-0.5c0.2-0.2,0.4-0.3,0.5-0.3
			c0.1-0.1,0.3-0.1,0.4-0.2s0.3-0.1,0.5-0.1c0.2,0,0.5,0,0.6,0.1c0.2,0.1,0.3,0.2,0.4,0.4c0.1,0.2,0.2,0.3,0.2,0.6
			c0,0.2,0,0.4-0.1,0.5c-0.1,0.2-0.2,0.3-0.3,0.5s-0.4,0.4-0.7,0.7l-0.5,0.5v0h1.7V88z"/>
	</g>
	<rect x="448.4" y="82" class="st9" width="8" height="8"/>
	<g>
		<path class="st10" d="M250.2,24.6h-41.3c-1.7,0-3,1.3-3,3v167.8c0,1.6,1.3,3,3,3h41.3c1.7,0,3-1.4,3-3V27.6
			C253.2,26,251.9,24.6,250.2,24.6z"/>
	</g>
	<g>
		<g>
			<path class="st1" d="M220.3,110.6c0,0.4-0.1,0.6-0.4,0.8c-0.3,0.2-0.6,0.3-1.1,0.3c-0.4,0-0.8-0.1-1.1-0.2v-0.8
				c0.3,0.1,0.5,0.2,0.7,0.2c0.2,0,0.4,0.1,0.5,0.1c0.2,0,0.3,0,0.4-0.1c0.1-0.1,0.1-0.2,0.1-0.3c0-0.1,0-0.1-0.1-0.2
				s-0.1-0.1-0.2-0.2c-0.1-0.1-0.3-0.1-0.5-0.3c-0.2-0.1-0.4-0.2-0.5-0.3s-0.2-0.2-0.3-0.4c-0.1-0.1-0.1-0.3-0.1-0.5
				c0-0.3,0.1-0.6,0.4-0.8s0.6-0.3,1-0.3c0.2,0,0.4,0,0.6,0.1c0.2,0,0.4,0.1,0.6,0.2l-0.3,0.6c-0.2-0.1-0.4-0.1-0.5-0.2
				c-0.1,0-0.3-0.1-0.4-0.1c-0.2,0-0.3,0-0.4,0.1c-0.1,0.1-0.1,0.2-0.1,0.3c0,0.1,0,0.1,0.1,0.2c0,0.1,0.1,0.1,0.2,0.2
				c0.1,0.1,0.3,0.1,0.5,0.3c0.4,0.2,0.6,0.4,0.8,0.5C220.2,110.2,220.3,110.4,220.3,110.6z"/>
			<path class="st1" d="M220.7,107.9c0-0.3,0.1-0.4,0.4-0.4c0.3,0,0.4,0.1,0.4,0.4c0,0.1,0,0.2-0.1,0.3s-0.2,0.1-0.3,0.1
				C220.8,108.3,220.7,108.2,220.7,107.9z M221.5,111.7h-0.8v-3h0.8V111.7z"/>
			<path class="st1" d="M224.9,111.7h-0.8V110c0-0.2,0-0.4-0.1-0.5s-0.2-0.2-0.4-0.2c-0.2,0-0.4,0.1-0.5,0.2
				c-0.1,0.2-0.2,0.4-0.2,0.8v1.4h-0.8v-3h0.6l0.1,0.4h0c0.1-0.1,0.2-0.3,0.4-0.3s0.3-0.1,0.5-0.1c0.3,0,0.6,0.1,0.8,0.3
				c0.2,0.2,0.3,0.5,0.3,0.8V111.7z"/>
			<path class="st1" d="M226.9,111.8c-0.5,0-0.9-0.1-1.1-0.4c-0.3-0.3-0.4-0.6-0.4-1.1c0-0.5,0.1-0.9,0.4-1.2s0.6-0.4,1-0.4
				c0.4,0,0.8,0.1,1,0.4s0.4,0.6,0.4,1v0.4h-1.9c0,0.2,0.1,0.4,0.2,0.5s0.3,0.2,0.5,0.2c0.2,0,0.4,0,0.5-0.1s0.3-0.1,0.5-0.2v0.6
				c-0.1,0.1-0.3,0.1-0.5,0.2C227.3,111.8,227.1,111.8,226.9,111.8z M226.8,109.2c-0.2,0-0.3,0.1-0.4,0.2c-0.1,0.1-0.2,0.3-0.2,0.5
				h1.1c0-0.2-0.1-0.4-0.2-0.5C227.1,109.3,227,109.2,226.8,109.2z"/>
			<path class="st1" d="M231,111.7l-0.2-1l-0.3-1.3h0l-0.5,2.4H229l-0.9-3h0.8l0.3,1.3c0.1,0.2,0.1,0.6,0.2,1h0c0-0.1,0-0.4,0.1-0.6
				l0-0.2l0.4-1.4h0.9l0.4,1.4c0,0,0,0.1,0,0.2c0,0.1,0,0.2,0,0.2c0,0.1,0,0.2,0,0.3c0,0.1,0,0.1,0,0.2h0c0-0.1,0-0.3,0.1-0.5
				c0-0.2,0.1-0.4,0.1-0.5l0.4-1.3h0.8l-0.9,3H231z"/>
			<path class="st1" d="M235,111.7l-0.2-0.4h0c-0.1,0.2-0.3,0.3-0.4,0.4c-0.1,0.1-0.3,0.1-0.6,0.1c-0.3,0-0.5-0.1-0.7-0.2
				s-0.2-0.4-0.2-0.7c0-0.3,0.1-0.6,0.3-0.7c0.2-0.2,0.6-0.2,1-0.3l0.5,0v-0.1c0-0.3-0.2-0.5-0.5-0.5c-0.2,0-0.5,0.1-0.8,0.2
				l-0.3-0.6c0.3-0.2,0.7-0.3,1.1-0.3c0.4,0,0.7,0.1,0.9,0.3c0.2,0.2,0.3,0.4,0.3,0.8v2H235z M234.7,110.3l-0.3,0
				c-0.2,0-0.4,0.1-0.5,0.1s-0.2,0.2-0.2,0.4c0,0.2,0.1,0.3,0.4,0.3c0.2,0,0.3-0.1,0.5-0.2s0.2-0.3,0.2-0.4V110.3z"/>
			<path class="st1" d="M236.9,111.7l-1.1-3h0.9l0.6,1.7c0.1,0.2,0.1,0.4,0.1,0.6h0c0-0.2,0-0.4,0.1-0.6l0.6-1.7h0.9l-1.1,3H236.9z"
				/>
			<path class="st1" d="M240.4,111.8c-0.5,0-0.9-0.1-1.1-0.4c-0.3-0.3-0.4-0.6-0.4-1.1c0-0.5,0.1-0.9,0.4-1.2s0.6-0.4,1-0.4
				c0.4,0,0.8,0.1,1,0.4s0.4,0.6,0.4,1v0.4h-1.9c0,0.2,0.1,0.4,0.2,0.5s0.3,0.2,0.5,0.2c0.2,0,0.4,0,0.5-0.1s0.3-0.1,0.5-0.2v0.6
				c-0.1,0.1-0.3,0.1-0.5,0.2C240.9,111.8,240.7,111.8,240.4,111.8z M240.3,109.2c-0.2,0-0.3,0.1-0.4,0.2c-0.1,0.1-0.2,0.3-0.2,0.5
				h1.1c0-0.2-0.1-0.4-0.2-0.5C240.6,109.3,240.5,109.2,240.3,109.2z"/>
		</g>
	</g>
	<g>
		<g>
			<path class="st1" d="M226.7,149.7c0,0.6-0.2,1.1-0.6,1.5c-0.4,0.3-0.9,0.5-1.6,0.5h-1.1v-3.9h1.2c0.6,0,1.1,0.2,1.5,0.5
				C226.5,148.6,226.7,149.1,226.7,149.7z M225.8,149.7c0-0.8-0.4-1.3-1.1-1.3h-0.4v2.6h0.4C225.4,151,225.8,150.6,225.8,149.7z"/>
			<path class="st1" d="M229.7,151.7l-0.3-0.9H228l-0.3,0.9h-0.9l1.4-3.9h1l1.4,3.9H229.7z M229.2,150.1c-0.3-0.8-0.4-1.3-0.4-1.4
				c0-0.1-0.1-0.2-0.1-0.3c-0.1,0.2-0.2,0.8-0.5,1.7H229.2z"/>
			<path class="st1" d="M232.5,148.4c-0.3,0-0.6,0.1-0.7,0.4s-0.3,0.6-0.3,1c0,0.9,0.3,1.3,1,1.3c0.3,0,0.6-0.1,1-0.2v0.7
				c-0.3,0.1-0.7,0.2-1.1,0.2c-0.6,0-1-0.2-1.3-0.5c-0.3-0.3-0.5-0.8-0.5-1.5c0-0.4,0.1-0.8,0.2-1.1s0.4-0.5,0.6-0.7
				c0.3-0.2,0.6-0.2,1-0.2c0.4,0,0.8,0.1,1.1,0.3l-0.3,0.7c-0.1-0.1-0.3-0.1-0.4-0.2S232.7,148.4,232.5,148.4z"/>
			<path class="st1" d="M236.2,150.8c0,0.3-0.1,0.5-0.3,0.7s-0.5,0.2-1,0.2c-0.2,0-0.4,0-0.6,0c-0.2,0-0.3-0.1-0.4-0.1v-0.7
				c0.2,0.1,0.3,0.1,0.5,0.2c0.2,0,0.4,0.1,0.5,0.1c0.3,0,0.4-0.1,0.4-0.3c0-0.1,0-0.1-0.1-0.2c0,0-0.1-0.1-0.2-0.1
				c-0.1-0.1-0.2-0.1-0.4-0.2c-0.2-0.1-0.4-0.2-0.5-0.3c-0.1-0.1-0.2-0.2-0.2-0.3s-0.1-0.2-0.1-0.4c0-0.3,0.1-0.5,0.3-0.6
				c0.2-0.1,0.5-0.2,0.9-0.2c0.4,0,0.7,0.1,1.1,0.2l-0.2,0.6c-0.2-0.1-0.3-0.1-0.4-0.2c-0.1,0-0.3-0.1-0.4-0.1
				c-0.2,0-0.4,0.1-0.4,0.2c0,0.1,0,0.1,0.1,0.2c0.1,0.1,0.2,0.1,0.5,0.2c0.2,0.1,0.4,0.2,0.5,0.3c0.1,0.1,0.2,0.2,0.2,0.3
				C236.1,150.6,236.2,150.7,236.2,150.8z"/>
		</g>
	</g>
	<g>
		<g>
			<path class="st1" d="M222.6,69.7c0,0.6-0.2,1.1-0.6,1.5c-0.4,0.3-0.9,0.5-1.6,0.5h-1.1v-3.9h1.2c0.6,0,1.1,0.2,1.5,0.5
				C222.5,68.6,222.6,69.1,222.6,69.7z M221.8,69.7c0-0.8-0.4-1.3-1.1-1.3h-0.4V71h0.4C221.4,71,221.8,70.6,221.8,69.7z"/>
			<path class="st1" d="M224.5,71.8c-0.5,0-0.9-0.1-1.1-0.4c-0.3-0.3-0.4-0.6-0.4-1.1c0-0.5,0.1-0.9,0.4-1.2s0.6-0.4,1-0.4
				c0.4,0,0.8,0.1,1,0.4s0.4,0.6,0.4,1v0.4h-1.9c0,0.2,0.1,0.4,0.2,0.5s0.3,0.2,0.5,0.2c0.2,0,0.4,0,0.5-0.1s0.3-0.1,0.5-0.2v0.6
				c-0.1,0.1-0.3,0.1-0.5,0.2C225,71.8,224.8,71.8,224.5,71.8z M224.4,69.2c-0.2,0-0.3,0.1-0.4,0.2c-0.1,0.1-0.2,0.3-0.2,0.5h1.1
				c0-0.2-0.1-0.4-0.2-0.5C224.7,69.3,224.6,69.2,224.4,69.2z"/>
			<path class="st1" d="M227.4,71.8c-0.9,0-1.4-0.5-1.4-1.5c0-0.5,0.1-0.9,0.4-1.2s0.6-0.4,1.1-0.4c0.3,0,0.7,0.1,0.9,0.2l-0.2,0.6
				c-0.1-0.1-0.2-0.1-0.4-0.1c-0.1,0-0.2,0-0.3,0c-0.4,0-0.6,0.3-0.6,0.9c0,0.6,0.2,0.9,0.6,0.9c0.2,0,0.3,0,0.4-0.1
				s0.3-0.1,0.4-0.2v0.7c-0.1,0.1-0.3,0.1-0.4,0.2S227.6,71.8,227.4,71.8z"/>
			<path class="st1" d="M231.5,70.2c0,0.5-0.1,0.9-0.4,1.1s-0.6,0.4-1.1,0.4c-0.3,0-0.5-0.1-0.8-0.2c-0.2-0.1-0.4-0.3-0.5-0.5
				s-0.2-0.5-0.2-0.8c0-0.5,0.1-0.9,0.4-1.1c0.3-0.3,0.6-0.4,1.1-0.4c0.3,0,0.5,0.1,0.8,0.2c0.2,0.1,0.4,0.3,0.5,0.5
				S231.5,69.9,231.5,70.2z M229.5,70.2c0,0.3,0,0.5,0.1,0.7s0.3,0.2,0.5,0.2c0.2,0,0.4-0.1,0.5-0.2s0.1-0.4,0.1-0.7
				c0-0.3,0-0.5-0.1-0.7s-0.3-0.2-0.5-0.2c-0.2,0-0.4,0.1-0.5,0.2C229.5,69.7,229.5,69.9,229.5,70.2z"/>
			<path class="st1" d="M232.9,71.8c-0.4,0-0.6-0.1-0.8-0.4c-0.2-0.3-0.3-0.7-0.3-1.1c0-0.5,0.1-0.9,0.3-1.2s0.5-0.4,0.8-0.4
				c0.4,0,0.7,0.1,0.9,0.4h0c0-0.2-0.1-0.4-0.1-0.6v-1h0.8v4.2H234l-0.2-0.4h0C233.6,71.6,233.3,71.8,232.9,71.8z M233.2,71.1
				c0.2,0,0.4-0.1,0.5-0.2c0.1-0.1,0.2-0.3,0.2-0.6v-0.1c0-0.3,0-0.6-0.1-0.7c-0.1-0.1-0.3-0.2-0.5-0.2c-0.2,0-0.3,0.1-0.4,0.2
				s-0.2,0.4-0.2,0.7c0,0.3,0.1,0.5,0.2,0.7C232.9,71.1,233,71.1,233.2,71.1z"/>
			<path class="st1" d="M236.6,71.8c-0.5,0-0.9-0.1-1.1-0.4c-0.3-0.3-0.4-0.6-0.4-1.1c0-0.5,0.1-0.9,0.4-1.2s0.6-0.4,1-0.4
				c0.4,0,0.8,0.1,1,0.4s0.4,0.6,0.4,1v0.4h-1.9c0,0.2,0.1,0.4,0.2,0.5s0.3,0.2,0.5,0.2c0.2,0,0.4,0,0.5-0.1s0.3-0.1,0.5-0.2v0.6
				c-0.1,0.1-0.3,0.1-0.5,0.2C237,71.8,236.8,71.8,236.6,71.8z M236.5,69.2c-0.2,0-0.3,0.1-0.4,0.2c-0.1,0.1-0.2,0.3-0.2,0.5h1.1
				c0-0.2-0.1-0.4-0.2-0.5C236.8,69.3,236.7,69.2,236.5,69.2z"/>
			<path class="st1" d="M240,68.7c0.1,0,0.2,0,0.3,0l-0.1,0.8c-0.1,0-0.1,0-0.2,0c-0.3,0-0.5,0.1-0.6,0.2c-0.1,0.1-0.2,0.3-0.2,0.6
				v1.5h-0.8v-3h0.6l0.1,0.5h0c0.1-0.2,0.2-0.3,0.4-0.4C239.6,68.7,239.8,68.7,240,68.7z"/>
		</g>
	</g>
	<line class="st6" x1="135.4" y1="243" x2="135.4" y2="177.7"/>
	<polygon class="st7" points="135.4,175.7 132.7,178.7 138.2,178.7 	"/>
	<polyline class="st6" points="160.3,177.7 160.3,235.5 439.5,235.5 439.5,262.5 344.7,262.5 	"/>
	<polygon class="st7" points="160.3,175.7 157.5,178.7 163,178.7 	"/>
	<polygon class="st7" points="168.2,175.7 165.5,178.7 171,178.7 	"/>
	<polyline class="st6" points="152.5,175.7 152.5,261.8 198.9,261.8 	"/>
	<line class="st6" x1="330.7" y1="99.4" x2="330.7" y2="123.5"/>
	<line class="st6" x1="297.1" y1="184.7" x2="308.9" y2="184.8"/>
	<line class="st6" x1="273.5" y1="181.4" x2="258.2" y2="181.4"/>
	<polyline class="st6" points="377.7,132.9 369.7,132.9 369.7,140.9 377.7,140.9 	"/>
	<line class="st6" x1="365.2" y1="136.9" x2="350.4" y2="136.9"/>
	<line class="st6" x1="365.2" y1="140.9" x2="365.2" y2="132.9"/>
	<g>
		<rect x="368.3" y="132.6" class="st7" width="1.8" height="8.8"/>
		<path class="st7" d="M369.7,132.9v8h-1v-8H369.7 M370.4,132.2h-0.8h-1h-0.8v0.8v8v0.8h0.8h1h0.8v-0.8v-8V132.2L370.4,132.2z"/>
	</g>
	<polyline class="st6" points="377.7,132.9 377.7,126.3 401.7,126.3 401.7,133 	"/>
	<polyline class="st6" points="401.7,133 409.7,133 409.7,141 401.7,141 	"/>
	<polyline class="st6" points="350.4,151 420.9,151 420.9,137 414.2,137 	"/>
	<polyline class="st6" points="414.2,185 420.9,185 420.9,170.8 350.4,170.8 	"/>
	<line class="st6" x1="414.2" y1="141" x2="414.2" y2="133"/>
	<g>
		<rect x="409.3" y="132.6" class="st7" width="1.8" height="8.8"/>
		<path class="st7" d="M410.7,133v8h-1v-8H410.7 M411.4,132.2h-0.8h-1h-0.8v0.8v8v0.8h0.8h1h0.8V141v-8V132.2L411.4,132.2z"/>
	</g>
	<line class="st6" x1="389.7" y1="126.3" x2="389.7" y2="117.8"/>
	<polyline class="st6" points="377.7,181 369.7,181 369.7,189 377.7,189 	"/>
	<line class="st6" x1="365.2" y1="185" x2="350.4" y2="185"/>
	<line class="st6" x1="365.2" y1="189" x2="365.2" y2="181"/>
	<g>
		<rect x="368.3" y="180.6" class="st7" width="1.8" height="8.8"/>
		<path class="st7" d="M369.7,181v8h-1v-8H369.7 M370.4,180.2h-0.8h-1h-0.8v0.8v8v0.8h0.8h1h0.8V189v-8V180.2L370.4,180.2z"/>
	</g>
	<line class="st6" x1="377.7" y1="181" x2="377.7" y2="140.9"/>
	<polyline class="st6" points="401.7,181 409.7,181 409.7,189 401.7,189 	"/>
	<line class="st6" x1="414.2" y1="189" x2="414.2" y2="181"/>
	<g>
		<rect x="409.3" y="180.6" class="st7" width="1.8" height="8.8"/>
		<path class="st7" d="M410.7,181v8h-1v-8H410.7 M411.4,180.2h-0.8h-1h-0.8v0.8v8v0.8h0.8h1h0.8V189v-8V180.2L411.4,180.2z"/>
	</g>
	<line class="st6" x1="401.7" y1="181" x2="401.7" y2="141"/>
	<circle class="st7" cx="389.7" cy="126.3" r="3"/>
	<circle class="st7" cx="377.7" cy="158" r="3"/>
	<circle class="st7" cx="401.7" cy="164" r="3"/>
	<polyline class="st6" points="377.7,158 427.7,158 427.7,137 452.4,137 	"/>
	<polyline class="st6" points="401.7,164 427.7,164 427.7,185 452.4,185 	"/>
	<polyline class="st6" points="377.7,189 377.7,195.6 401.7,195.6 401.7,189 	"/>
	<circle class="st7" cx="389.7" cy="195.6" r="3"/>
	<line class="st6" x1="389.7" y1="195.6" x2="389.7" y2="203.9"/>
	<polygon class="st9" points="297.1,184.7 273.5,173.7 273.5,195.6 	"/>
	<path class="st7" d="M277.7,183.2h-0.8v-1.4h-1.4V181h1.4v-1.4h0.8v1.4h1.4v0.8h-1.4V183.2z"/>
	<path class="st7" d="M276.3,188.4v-0.9h2v0.9H276.3z"/>
	<line class="st6" x1="258.2" y1="147.9" x2="300.4" y2="147.9"/>
	<polygon class="st7" points="302.4,147.9 299.4,145.2 299.4,150.7 	"/>
	<polygon class="st7" points="389.7,116.3 386.9,119.3 392.4,119.3 	"/>
	<polygon class="st7" points="389.7,205.6 392.4,202.6 386.9,202.6 	"/>
	<circle class="st7" cx="439.5" cy="185" r="3"/>
	<polyline class="st6" points="439.5,185 439.5,210.4 265.3,210.4 265.3,187.9 273.5,187.9 	"/>
	<g>
		<path class="st10" d="M351.3,123.5H310c-1.7,0-3,1.3-3,3v68.9c0,1.6,1.3,3,3,3h41.3c1.7,0,3-1.4,3-3v-68.9
			C354.3,124.9,353,123.5,351.3,123.5z"/>
	</g>
	<g>
		<g>
			<path class="st1" d="M327.2,152.3c0,0.4-0.1,0.7-0.4,1c-0.3,0.2-0.6,0.3-1.1,0.3h-0.4v1.4h-0.8V151h1.3c0.5,0,0.8,0.1,1.1,0.3
				S327.2,151.8,327.2,152.3z M325.3,152.9h0.3c0.3,0,0.4-0.1,0.6-0.2s0.2-0.2,0.2-0.4c0-0.2-0.1-0.3-0.2-0.4s-0.3-0.1-0.5-0.1h-0.4
				V152.9z"/>
			<path class="st1" d="M331.5,155h-0.9l-0.5-2.1c0-0.1-0.1-0.2-0.1-0.5s-0.1-0.4-0.1-0.5c0,0.1,0,0.3-0.1,0.5s-0.1,0.4-0.1,0.5
				l-0.5,2.1h-0.9l-1-3.9h0.8l0.5,2.1c0.1,0.4,0.2,0.7,0.2,1c0-0.1,0-0.3,0.1-0.5s0.1-0.4,0.1-0.5l0.6-2.2h0.8l0.6,2.2
				c0,0.1,0.1,0.2,0.1,0.5c0,0.2,0.1,0.4,0.1,0.5c0-0.1,0-0.3,0.1-0.5c0-0.2,0.1-0.4,0.1-0.5l0.5-2.1h0.8L331.5,155z"/>
			<path class="st1" d="M334.4,155l-0.9-3.1h0c0,0.6,0.1,1,0.1,1.3v1.8h-0.7V151h1.1l0.9,3h0l1-3h1.1v3.9h-0.8v-1.9
				c0-0.1,0-0.2,0-0.3c0-0.1,0-0.4,0-0.9h0l-1,3.1H334.4z"/>
			<path class="st1" d="M320.8,158.5c0.1,0,0.2,0,0.3,0l-0.1,0.8c-0.1,0-0.1,0-0.2,0c-0.3,0-0.5,0.1-0.6,0.2
				c-0.1,0.1-0.2,0.3-0.2,0.6v1.5h-0.8v-3h0.6l0.1,0.5h0c0.1-0.2,0.2-0.3,0.4-0.4C320.5,158.5,320.6,158.5,320.8,158.5z"/>
			<path class="st1" d="M322.8,161.6c-0.5,0-0.9-0.1-1.1-0.4c-0.3-0.3-0.4-0.6-0.4-1.1c0-0.5,0.1-0.9,0.4-1.2c0.3-0.3,0.6-0.4,1-0.4
				c0.4,0,0.8,0.1,1,0.4c0.2,0.2,0.4,0.6,0.4,1v0.4h-1.9c0,0.2,0.1,0.4,0.2,0.5s0.3,0.2,0.5,0.2c0.2,0,0.4,0,0.5-0.1
				c0.2,0,0.3-0.1,0.5-0.2v0.6c-0.1,0.1-0.3,0.1-0.5,0.2C323.2,161.6,323,161.6,322.8,161.6z M322.7,159.1c-0.2,0-0.3,0.1-0.4,0.2
				c-0.1,0.1-0.2,0.3-0.2,0.5h1.1c0-0.2-0.1-0.4-0.2-0.5C323,159.1,322.8,159.1,322.7,159.1z"/>
			<path class="st1" d="M327.1,158.6v0.4l-0.5,0.1c0.1,0.1,0.1,0.3,0.1,0.5c0,0.3-0.1,0.6-0.3,0.8s-0.5,0.3-0.9,0.3l-0.1,0l-0.1,0
				c-0.1,0.1-0.1,0.1-0.1,0.2c0,0.1,0.2,0.2,0.5,0.2h0.5c0.3,0,0.6,0.1,0.8,0.2s0.3,0.3,0.3,0.6c0,0.4-0.1,0.6-0.4,0.8
				c-0.3,0.2-0.7,0.3-1.3,0.3c-0.4,0-0.7-0.1-1-0.2c-0.2-0.1-0.3-0.4-0.3-0.6c0-0.2,0.1-0.3,0.2-0.5c0.1-0.1,0.3-0.2,0.5-0.3
				c-0.1,0-0.2-0.1-0.2-0.2c-0.1-0.1-0.1-0.2-0.1-0.3c0-0.1,0-0.2,0.1-0.3s0.2-0.2,0.3-0.2c-0.2-0.1-0.3-0.2-0.4-0.3
				s-0.1-0.3-0.1-0.5c0-0.3,0.1-0.6,0.3-0.8c0.2-0.2,0.5-0.3,0.9-0.3c0.1,0,0.2,0,0.3,0c0.1,0,0.2,0,0.2,0H327.1z M324.8,162
				c0,0.1,0.1,0.2,0.2,0.3s0.3,0.1,0.5,0.1c0.3,0,0.5,0,0.7-0.1c0.2-0.1,0.2-0.2,0.2-0.3c0-0.1,0-0.2-0.1-0.2
				c-0.1,0-0.3-0.1-0.5-0.1h-0.4c-0.2,0-0.3,0-0.4,0.1C324.8,161.8,324.8,161.9,324.8,162z M325.1,159.5c0,0.2,0,0.3,0.1,0.4
				s0.2,0.1,0.3,0.1c0.2,0,0.3,0,0.3-0.1c0.1-0.1,0.1-0.2,0.1-0.4c0-0.4-0.1-0.5-0.4-0.5C325.2,159,325.1,159.2,325.1,159.5z"/>
			<path class="st1" d="M329.5,161.6l-0.1-0.4h0c-0.1,0.1-0.2,0.2-0.4,0.3s-0.3,0.1-0.6,0.1c-0.4,0-0.6-0.1-0.8-0.3
				c-0.2-0.2-0.3-0.5-0.3-0.8v-2h0.8v1.8c0,0.2,0,0.4,0.1,0.5s0.2,0.2,0.4,0.2c0.2,0,0.4-0.1,0.5-0.2s0.2-0.4,0.2-0.8v-1.4h0.8v3
				H329.5z"/>
			<path class="st1" d="M331.6,161.6h-0.8v-4.2h0.8V161.6z"/>
			<path class="st1" d="M334.1,161.6l-0.2-0.4h0c-0.1,0.2-0.3,0.3-0.4,0.4s-0.3,0.1-0.6,0.1c-0.3,0-0.5-0.1-0.7-0.2
				c-0.2-0.2-0.2-0.4-0.2-0.7c0-0.3,0.1-0.6,0.3-0.7c0.2-0.2,0.6-0.2,1-0.3l0.5,0v-0.1c0-0.3-0.2-0.5-0.5-0.5
				c-0.2,0-0.5,0.1-0.8,0.2l-0.3-0.6c0.3-0.2,0.7-0.3,1.1-0.3c0.4,0,0.7,0.1,0.9,0.3c0.2,0.2,0.3,0.4,0.3,0.8v2H334.1z M333.9,160.2
				l-0.3,0c-0.2,0-0.4,0-0.5,0.1c-0.1,0.1-0.2,0.2-0.2,0.4c0,0.2,0.1,0.3,0.4,0.3c0.2,0,0.3-0.1,0.5-0.2s0.2-0.3,0.2-0.4V160.2z"/>
			<path class="st1" d="M336.6,161c0.1,0,0.3,0,0.5-0.1v0.6c-0.2,0.1-0.5,0.1-0.8,0.1c-0.3,0-0.6-0.1-0.7-0.2
				c-0.1-0.2-0.2-0.4-0.2-0.7v-1.4H335v-0.3l0.5-0.3l0.2-0.6h0.5v0.6h0.8v0.6h-0.8v1.4c0,0.1,0,0.2,0.1,0.3S336.5,161,336.6,161z"/>
			<path class="st1" d="M340.2,160c0,0.5-0.1,0.9-0.4,1.1c-0.3,0.3-0.6,0.4-1.1,0.4c-0.3,0-0.5-0.1-0.8-0.2
				c-0.2-0.1-0.4-0.3-0.5-0.5s-0.2-0.5-0.2-0.8c0-0.5,0.1-0.9,0.4-1.1c0.3-0.3,0.6-0.4,1.1-0.4c0.3,0,0.5,0.1,0.8,0.2
				c0.2,0.1,0.4,0.3,0.5,0.5S340.2,159.7,340.2,160z M338.1,160c0,0.3,0,0.5,0.1,0.7s0.3,0.2,0.5,0.2c0.2,0,0.4-0.1,0.5-0.2
				s0.1-0.4,0.1-0.7c0-0.3,0-0.5-0.1-0.7s-0.3-0.2-0.5-0.2c-0.2,0-0.4,0.1-0.5,0.2C338.2,159.5,338.1,159.7,338.1,160z"/>
			<path class="st1" d="M342.3,158.5c0.1,0,0.2,0,0.3,0l-0.1,0.8c-0.1,0-0.1,0-0.2,0c-0.3,0-0.5,0.1-0.6,0.2
				c-0.1,0.1-0.2,0.3-0.2,0.6v1.5h-0.8v-3h0.6l0.1,0.5h0c0.1-0.2,0.2-0.3,0.4-0.4C342,158.5,342.1,158.5,342.3,158.5z"/>
			<path class="st1" d="M332.6,168.2h-1l-0.9-1.5l-0.9,1.5h-0.9l1.3-2l-1.2-1.9h0.9l0.8,1.4l0.8-1.4h0.9l-1.2,1.9L332.6,168.2z"/>
		</g>
	</g>
	<g>
		<path class="st7" d="M464.5,137c0,0.7-0.2,1.1-0.5,1.5c-0.3,0.3-0.8,0.5-1.4,0.5s-1.1-0.2-1.4-0.5c-0.3-0.3-0.5-0.9-0.5-1.5
			c0-0.7,0.2-1.2,0.5-1.5s0.8-0.5,1.4-0.5c0.6,0,1.1,0.2,1.4,0.5C464.3,135.8,464.5,136.3,464.5,137z M461.6,137
			c0,0.4,0.1,0.8,0.2,1c0.2,0.2,0.4,0.3,0.7,0.3c0.7,0,1-0.4,1-1.3c0-0.9-0.3-1.3-1-1.3c-0.3,0-0.6,0.1-0.7,0.3
			C461.7,136.2,461.6,136.5,461.6,137z"/>
		<path class="st7" d="M467.7,138.9l-0.3-0.9H466l-0.3,0.9h-0.9l1.4-3.9h1l1.4,3.9H467.7z M467.2,137.3c-0.3-0.8-0.4-1.3-0.4-1.4
			c0-0.1-0.1-0.2-0.1-0.3c-0.1,0.2-0.2,0.8-0.5,1.7H467.2z"/>
		<path class="st7" d="M470.9,138.9H470v-2.3l0-0.4l0-0.4c-0.1,0.1-0.2,0.2-0.3,0.3l-0.5,0.4l-0.4-0.5l1.3-1h0.7V138.9z"/>
	</g>
	<rect x="448.4" y="132.9" class="st9" width="8" height="8"/>
	<g>
		<path class="st7" d="M464.5,185c0,0.7-0.2,1.1-0.5,1.5c-0.3,0.3-0.8,0.5-1.4,0.5s-1.1-0.2-1.4-0.5c-0.3-0.3-0.5-0.9-0.5-1.5
			c0-0.7,0.2-1.2,0.5-1.5s0.8-0.5,1.4-0.5c0.6,0,1.1,0.2,1.4,0.5C464.3,183.8,464.5,184.3,464.5,185z M461.6,185
			c0,0.4,0.1,0.8,0.2,1c0.2,0.2,0.4,0.3,0.7,0.3c0.7,0,1-0.4,1-1.3c0-0.9-0.3-1.3-1-1.3c-0.3,0-0.6,0.1-0.7,0.3
			S461.6,184.6,461.6,185z"/>
		<path class="st7" d="M467.7,187l-0.3-0.9H466l-0.3,0.9h-0.9l1.4-3.9h1l1.4,3.9H467.7z M467.2,185.3c-0.3-0.8-0.4-1.3-0.4-1.4
			c0-0.1-0.1-0.2-0.1-0.3c-0.1,0.2-0.2,0.8-0.5,1.7H467.2z"/>
		<path class="st7" d="M471.6,187h-2.7v-0.6l1-1c0.3-0.3,0.5-0.5,0.6-0.6c0.1-0.1,0.2-0.2,0.2-0.3s0.1-0.2,0.1-0.3
			c0-0.2,0-0.3-0.1-0.4s-0.2-0.1-0.3-0.1c-0.2,0-0.3,0-0.4,0.1c-0.1,0.1-0.3,0.2-0.4,0.3l-0.5-0.5c0.2-0.2,0.4-0.3,0.5-0.3
			c0.1-0.1,0.3-0.1,0.4-0.2c0.2,0,0.3-0.1,0.5-0.1c0.2,0,0.5,0,0.6,0.1s0.3,0.2,0.4,0.4c0.1,0.2,0.2,0.3,0.2,0.6
			c0,0.2,0,0.3-0.1,0.5c-0.1,0.2-0.2,0.3-0.3,0.5c-0.1,0.2-0.4,0.4-0.7,0.7l-0.5,0.5v0h1.7V187z"/>
	</g>
	<rect x="448.4" y="181" class="st9" width="8" height="8"/>
	<polyline class="st6" points="330.7,198.3 330.7,223 168.2,223 168.2,177.7 	"/>
	<polygon class="st7" points="201,261.8 198,259.1 198,264.6 	"/>
	<g>
		<path class="st10" d="M361,278.4h-62.4c-1.6,0-3-1.4-3-3v-27.2c0-1.6,1.4-3,3-3H361c1.6,0,3,1.4,3,3v27.2
			C364,277.1,362.6,278.4,361,278.4z"/>
	</g>
	<g>
		<g>
			<path class="st1" d="M308,255.7v1.5h-0.8v-3.9h1.1c0.5,0,0.9,0.1,1.2,0.3c0.3,0.2,0.4,0.5,0.4,0.9c0,0.2-0.1,0.4-0.2,0.6
				c-0.1,0.2-0.3,0.3-0.5,0.4c0.6,0.9,1,1.5,1.2,1.7h-0.9l-0.9-1.5H308z M308,255h0.3c0.3,0,0.5,0,0.6-0.1c0.1-0.1,0.2-0.2,0.2-0.4
				c0-0.2-0.1-0.3-0.2-0.4c-0.1-0.1-0.3-0.1-0.6-0.1H308V255z"/>
			<path class="st1" d="M311.8,257.3c-0.5,0-0.9-0.1-1.1-0.4s-0.4-0.6-0.4-1.1c0-0.5,0.1-0.9,0.4-1.2c0.3-0.3,0.6-0.4,1-0.4
				c0.4,0,0.8,0.1,1,0.4c0.2,0.2,0.4,0.6,0.4,1v0.4h-1.9c0,0.2,0.1,0.4,0.2,0.5s0.3,0.2,0.5,0.2c0.2,0,0.4,0,0.5-0.1
				c0.2,0,0.3-0.1,0.5-0.2v0.6c-0.1,0.1-0.3,0.1-0.5,0.2S312.1,257.3,311.8,257.3z M311.7,254.7c-0.2,0-0.3,0.1-0.4,0.2
				c-0.1,0.1-0.2,0.3-0.2,0.5h1.1c0-0.2-0.1-0.4-0.2-0.5C312,254.8,311.9,254.7,311.7,254.7z"/>
			<path class="st1" d="M315.2,254.8h-0.7v2.4h-0.8v-2.4h-0.5v-0.4l0.5-0.2V254c0-0.3,0.1-0.6,0.3-0.7c0.2-0.2,0.4-0.2,0.8-0.2
				c0.3,0,0.5,0,0.8,0.1l-0.2,0.6c-0.2-0.1-0.3-0.1-0.5-0.1c-0.1,0-0.2,0-0.3,0.1c-0.1,0.1-0.1,0.2-0.1,0.3v0.2h0.7V254.8z"/>
			<path class="st1" d="M316.8,257.3c-0.5,0-0.9-0.1-1.1-0.4s-0.4-0.6-0.4-1.1c0-0.5,0.1-0.9,0.4-1.2c0.3-0.3,0.6-0.4,1-0.4
				c0.4,0,0.8,0.1,1,0.4c0.2,0.2,0.4,0.6,0.4,1v0.4h-1.9c0,0.2,0.1,0.4,0.2,0.5s0.3,0.2,0.5,0.2c0.2,0,0.4,0,0.5-0.1
				c0.2,0,0.3-0.1,0.5-0.2v0.6c-0.1,0.1-0.3,0.1-0.5,0.2S317,257.3,316.8,257.3z M316.7,254.7c-0.2,0-0.3,0.1-0.4,0.2
				c-0.1,0.1-0.2,0.3-0.2,0.5h1.1c0-0.2-0.1-0.4-0.2-0.5C317,254.8,316.8,254.7,316.7,254.7z"/>
			<path class="st1" d="M320.1,254.2c0.1,0,0.2,0,0.3,0l-0.1,0.8c-0.1,0-0.1,0-0.2,0c-0.3,0-0.5,0.1-0.6,0.2
				c-0.1,0.1-0.2,0.3-0.2,0.6v1.5h-0.8v-3h0.6l0.1,0.5h0c0.1-0.2,0.2-0.3,0.4-0.4C319.8,254.2,319.9,254.2,320.1,254.2z"/>
			<path class="st1" d="M322.1,257.3c-0.5,0-0.9-0.1-1.1-0.4s-0.4-0.6-0.4-1.1c0-0.5,0.1-0.9,0.4-1.2c0.3-0.3,0.6-0.4,1-0.4
				c0.4,0,0.8,0.1,1,0.4c0.2,0.2,0.4,0.6,0.4,1v0.4h-1.9c0,0.2,0.1,0.4,0.2,0.5s0.3,0.2,0.5,0.2c0.2,0,0.4,0,0.5-0.1
				c0.2,0,0.3-0.1,0.5-0.2v0.6c-0.1,0.1-0.3,0.1-0.5,0.2S322.3,257.3,322.1,257.3z M322,254.7c-0.2,0-0.3,0.1-0.4,0.2
				c-0.1,0.1-0.2,0.3-0.2,0.5h1.1c0-0.2-0.1-0.4-0.2-0.5C322.3,254.8,322.1,254.7,322,254.7z"/>
			<path class="st1" d="M326.5,257.2h-0.8v-1.8c0-0.2,0-0.4-0.1-0.5s-0.2-0.2-0.4-0.2c-0.2,0-0.4,0.1-0.5,0.2
				c-0.1,0.2-0.2,0.4-0.2,0.8v1.4h-0.8v-3h0.6l0.1,0.4h0c0.1-0.1,0.2-0.3,0.4-0.3s0.3-0.1,0.5-0.1c0.3,0,0.6,0.1,0.8,0.3
				c0.2,0.2,0.3,0.5,0.3,0.8V257.2z"/>
			<path class="st1" d="M328.4,257.3c-0.9,0-1.4-0.5-1.4-1.5c0-0.5,0.1-0.9,0.4-1.2s0.6-0.4,1.1-0.4c0.3,0,0.7,0.1,0.9,0.2l-0.2,0.6
				c-0.1-0.1-0.2-0.1-0.4-0.1c-0.1,0-0.2,0-0.3,0c-0.4,0-0.6,0.3-0.6,0.9c0,0.6,0.2,0.9,0.6,0.9c0.2,0,0.3,0,0.4-0.1
				s0.3-0.1,0.4-0.2v0.7c-0.1,0.1-0.3,0.1-0.4,0.2S328.6,257.3,328.4,257.3z"/>
			<path class="st1" d="M331.1,257.3c-0.5,0-0.9-0.1-1.1-0.4s-0.4-0.6-0.4-1.1c0-0.5,0.1-0.9,0.4-1.2c0.3-0.3,0.6-0.4,1-0.4
				c0.4,0,0.8,0.1,1,0.4c0.2,0.2,0.4,0.6,0.4,1v0.4h-1.9c0,0.2,0.1,0.4,0.2,0.5s0.3,0.2,0.5,0.2c0.2,0,0.4,0,0.5-0.1
				c0.2,0,0.3-0.1,0.5-0.2v0.6c-0.1,0.1-0.3,0.1-0.5,0.2S331.3,257.3,331.1,257.3z M331,254.7c-0.2,0-0.3,0.1-0.4,0.2
				c-0.1,0.1-0.2,0.3-0.2,0.5h1.1c0-0.2-0.1-0.4-0.2-0.5C331.3,254.8,331.2,254.7,331,254.7z"/>
			<path class="st1" d="M336.3,253.3h0.8l-1.3,3.9h-0.9l-1.3-3.9h0.8l0.7,2.3c0,0.1,0.1,0.3,0.1,0.5s0.1,0.3,0.1,0.4
				c0-0.2,0.1-0.5,0.2-0.9L336.3,253.3z"/>
			<path class="st1" d="M340.1,255.7c0,0.5-0.1,0.9-0.4,1.1c-0.3,0.3-0.6,0.4-1.1,0.4c-0.3,0-0.5-0.1-0.8-0.2
				c-0.2-0.1-0.4-0.3-0.5-0.5s-0.2-0.5-0.2-0.8c0-0.5,0.1-0.9,0.4-1.1c0.3-0.3,0.6-0.4,1.1-0.4c0.3,0,0.5,0.1,0.8,0.2
				c0.2,0.1,0.4,0.3,0.5,0.5S340.1,255.4,340.1,255.7z M338,255.7c0,0.3,0,0.5,0.1,0.7s0.3,0.2,0.5,0.2c0.2,0,0.4-0.1,0.5-0.2
				s0.1-0.4,0.1-0.7c0-0.3,0-0.5-0.1-0.7s-0.3-0.2-0.5-0.2c-0.2,0-0.4,0.1-0.5,0.2S338,255.4,338,255.7z"/>
			<path class="st1" d="M341.3,257.2h-0.8V253h0.8V257.2z"/>
			<path class="st1" d="M343.2,256.6c0.1,0,0.3,0,0.5-0.1v0.6c-0.2,0.1-0.5,0.1-0.8,0.1c-0.3,0-0.6-0.1-0.7-0.2
				c-0.1-0.2-0.2-0.4-0.2-0.7v-1.4h-0.4v-0.3l0.5-0.3l0.2-0.6h0.5v0.6h0.8v0.6h-0.8v1.4c0,0.1,0,0.2,0.1,0.3
				S343.1,256.6,343.2,256.6z"/>
			<path class="st1" d="M346.1,257.2l-0.2-0.4h0c-0.1,0.2-0.3,0.3-0.4,0.4c-0.1,0.1-0.3,0.1-0.6,0.1c-0.3,0-0.5-0.1-0.7-0.2
				c-0.2-0.2-0.2-0.4-0.2-0.7c0-0.3,0.1-0.6,0.3-0.7c0.2-0.2,0.6-0.2,1-0.3l0.5,0v-0.1c0-0.3-0.2-0.5-0.5-0.5
				c-0.2,0-0.5,0.1-0.8,0.2l-0.3-0.6c0.3-0.2,0.7-0.3,1.1-0.3c0.4,0,0.7,0.1,0.9,0.3c0.2,0.2,0.3,0.4,0.3,0.8v2H346.1z M345.8,255.8
				l-0.3,0c-0.2,0-0.4,0.1-0.5,0.1c-0.1,0.1-0.2,0.2-0.2,0.4c0,0.2,0.1,0.3,0.4,0.3c0.2,0,0.3-0.1,0.5-0.2s0.2-0.3,0.2-0.4V255.8z"
				/>
			<path class="st1" d="M349.9,254.2v0.4l-0.5,0.1c0.1,0.1,0.1,0.3,0.1,0.5c0,0.3-0.1,0.6-0.3,0.8c-0.2,0.2-0.5,0.3-0.9,0.3l-0.1,0
				l-0.1,0c-0.1,0.1-0.1,0.1-0.1,0.2c0,0.1,0.2,0.2,0.5,0.2h0.5c0.3,0,0.6,0.1,0.8,0.2s0.3,0.3,0.3,0.6c0,0.4-0.1,0.6-0.4,0.8
				c-0.3,0.2-0.7,0.3-1.3,0.3c-0.4,0-0.7-0.1-1-0.2c-0.2-0.1-0.3-0.4-0.3-0.6c0-0.2,0.1-0.3,0.2-0.5c0.1-0.1,0.3-0.2,0.5-0.3
				c-0.1,0-0.2-0.1-0.2-0.2c-0.1-0.1-0.1-0.2-0.1-0.3c0-0.1,0-0.2,0.1-0.3s0.2-0.2,0.3-0.2c-0.2-0.1-0.3-0.2-0.4-0.3
				s-0.1-0.3-0.1-0.5c0-0.3,0.1-0.6,0.3-0.8c0.2-0.2,0.5-0.3,0.9-0.3c0.1,0,0.2,0,0.3,0c0.1,0,0.2,0,0.2,0H349.9z M347.5,257.6
				c0,0.1,0.1,0.2,0.2,0.3s0.3,0.1,0.5,0.1c0.3,0,0.5,0,0.7-0.1c0.2-0.1,0.2-0.2,0.2-0.3c0-0.1,0-0.2-0.1-0.2
				c-0.1,0-0.3-0.1-0.5-0.1h-0.4c-0.2,0-0.3,0-0.4,0.1C347.6,257.4,347.5,257.5,347.5,257.6z M347.8,255.2c0,0.2,0,0.3,0.1,0.4
				s0.2,0.1,0.3,0.1c0.2,0,0.3,0,0.3-0.1c0.1-0.1,0.1-0.2,0.1-0.4c0-0.4-0.1-0.5-0.4-0.5C348,254.6,347.8,254.8,347.8,255.2z"/>
			<path class="st1" d="M351.5,257.3c-0.5,0-0.9-0.1-1.1-0.4s-0.4-0.6-0.4-1.1c0-0.5,0.1-0.9,0.4-1.2c0.3-0.3,0.6-0.4,1-0.4
				c0.4,0,0.8,0.1,1,0.4c0.2,0.2,0.4,0.6,0.4,1v0.4h-1.9c0,0.2,0.1,0.4,0.2,0.5s0.3,0.2,0.5,0.2c0.2,0,0.4,0,0.5-0.1
				c0.2,0,0.3-0.1,0.5-0.2v0.6c-0.1,0.1-0.3,0.1-0.5,0.2S351.7,257.3,351.5,257.3z M351.4,254.7c-0.2,0-0.3,0.1-0.4,0.2
				c-0.1,0.1-0.2,0.3-0.2,0.5h1.1c0-0.2-0.1-0.4-0.2-0.5C351.7,254.8,351.6,254.7,351.4,254.7z"/>
			<path class="st1" d="M331.9,263.8h-1l-0.3-0.3c-0.3,0.2-0.7,0.4-1.2,0.4c-0.4,0-0.8-0.1-1-0.3c-0.3-0.2-0.4-0.5-0.4-0.8
				c0-0.2,0.1-0.5,0.2-0.6s0.3-0.3,0.6-0.5c-0.1-0.2-0.2-0.3-0.3-0.4c-0.1-0.1-0.1-0.3-0.1-0.5c0-0.3,0.1-0.5,0.3-0.7
				c0.2-0.2,0.5-0.2,0.8-0.2c0.3,0,0.6,0.1,0.8,0.2c0.2,0.2,0.3,0.4,0.3,0.6c0,0.2-0.1,0.4-0.2,0.6c-0.1,0.2-0.3,0.3-0.6,0.5
				l0.8,0.7c0.1-0.2,0.2-0.5,0.3-0.8h0.9c-0.1,0.2-0.2,0.5-0.3,0.7c-0.1,0.2-0.2,0.4-0.4,0.6L331.9,263.8z M328.8,262.7
				c0,0.2,0.1,0.3,0.2,0.4c0.1,0.1,0.3,0.1,0.4,0.1c0.2,0,0.4-0.1,0.6-0.2l-0.9-0.9c-0.1,0.1-0.2,0.2-0.2,0.2
				S328.8,262.6,328.8,262.7z M329.8,260.8c0-0.1,0-0.2-0.1-0.2s-0.1-0.1-0.2-0.1c-0.1,0-0.2,0-0.3,0.1s-0.1,0.1-0.1,0.2
				c0,0.2,0.1,0.3,0.3,0.5c0.2-0.1,0.3-0.2,0.4-0.3S329.8,260.9,329.8,260.8z"/>
			<path class="st1" d="M306.2,270.4h-0.8v-3.2h-1.1v-0.7h3v0.7h-1.1V270.4z"/>
			<path class="st1" d="M310.4,270.4h-0.8v-1.8c0-0.4-0.2-0.6-0.5-0.6c-0.2,0-0.4,0.1-0.5,0.2c-0.1,0.2-0.2,0.4-0.2,0.8v1.4h-0.8
				v-4.2h0.8v0.9c0,0.1,0,0.2,0,0.5l0,0.2h0c0.2-0.3,0.5-0.4,0.9-0.4c0.4,0,0.6,0.1,0.8,0.3s0.3,0.5,0.3,0.8V270.4z"/>
			<path class="st1" d="M312.3,270.5c-0.5,0-0.9-0.1-1.1-0.4s-0.4-0.6-0.4-1.1c0-0.5,0.1-0.9,0.4-1.2c0.3-0.3,0.6-0.4,1-0.4
				c0.4,0,0.8,0.1,1,0.4c0.2,0.2,0.4,0.6,0.4,1v0.4h-1.9c0,0.2,0.1,0.4,0.2,0.5s0.3,0.2,0.5,0.2c0.2,0,0.4,0,0.5-0.1
				c0.2,0,0.3-0.1,0.5-0.2v0.6c-0.1,0.1-0.3,0.1-0.5,0.2S312.6,270.5,312.3,270.5z M312.2,267.9c-0.2,0-0.3,0.1-0.4,0.2
				c-0.1,0.1-0.2,0.3-0.2,0.5h1.1c0-0.2-0.1-0.4-0.2-0.5C312.5,268,312.4,267.9,312.2,267.9z"/>
			<path class="st1" d="M315.7,267.4c0.1,0,0.2,0,0.3,0l-0.1,0.8c-0.1,0-0.1,0-0.2,0c-0.3,0-0.5,0.1-0.6,0.2
				c-0.1,0.1-0.2,0.3-0.2,0.6v1.5H314v-3h0.6l0.1,0.5h0c0.1-0.2,0.2-0.3,0.4-0.4C315.3,267.4,315.5,267.4,315.7,267.4z"/>
			<path class="st1" d="M319,270.4h-0.8v-1.8c0-0.2,0-0.4-0.1-0.5c-0.1-0.1-0.2-0.2-0.3-0.2c-0.2,0-0.4,0.1-0.5,0.2
				s-0.1,0.4-0.1,0.8v1.4h-0.8v-3h0.6l0.1,0.4h0c0.1-0.1,0.2-0.2,0.3-0.3c0.2-0.1,0.3-0.1,0.5-0.1c0.4,0,0.8,0.1,0.9,0.4h0.1
				c0.1-0.1,0.2-0.2,0.4-0.3s0.3-0.1,0.5-0.1c0.3,0,0.6,0.1,0.8,0.3c0.2,0.2,0.3,0.5,0.3,0.8v2H320v-1.8c0-0.2,0-0.4-0.1-0.5
				c-0.1-0.1-0.2-0.2-0.3-0.2c-0.2,0-0.4,0.1-0.4,0.2c-0.1,0.1-0.1,0.4-0.1,0.7V270.4z"/>
			<path class="st1" d="M323.4,270.4l-0.2-0.4h0c-0.1,0.2-0.3,0.3-0.4,0.4c-0.1,0.1-0.3,0.1-0.6,0.1c-0.3,0-0.5-0.1-0.7-0.2
				c-0.2-0.2-0.2-0.4-0.2-0.7c0-0.3,0.1-0.6,0.3-0.7c0.2-0.2,0.6-0.2,1-0.3l0.5,0v-0.1c0-0.3-0.2-0.5-0.5-0.5
				c-0.2,0-0.5,0.1-0.8,0.2l-0.3-0.6c0.3-0.2,0.7-0.3,1.1-0.3c0.4,0,0.7,0.1,0.9,0.3c0.2,0.2,0.3,0.4,0.3,0.8v2H323.4z M323.1,269
				l-0.3,0c-0.2,0-0.4,0.1-0.5,0.1c-0.1,0.1-0.2,0.2-0.2,0.4c0,0.2,0.1,0.3,0.4,0.3c0.2,0,0.3-0.1,0.5-0.2s0.2-0.3,0.2-0.4V269z"/>
			<path class="st1" d="M325.4,270.4h-0.8v-4.2h0.8V270.4z"/>
			<path class="st1" d="M329,270.4l-0.9-3.1h0c0,0.6,0.1,1,0.1,1.3v1.8h-0.7v-3.9h1.1l0.9,3h0l1-3h1.1v3.9h-0.8v-1.9
				c0-0.1,0-0.2,0-0.3c0-0.1,0-0.4,0-0.9h0l-1,3.1H329z"/>
			<path class="st1" d="M334.9,268.9c0,0.5-0.1,0.9-0.4,1.1c-0.3,0.3-0.6,0.4-1.1,0.4c-0.3,0-0.5-0.1-0.8-0.2
				c-0.2-0.1-0.4-0.3-0.5-0.5s-0.2-0.5-0.2-0.8c0-0.5,0.1-0.9,0.4-1.1c0.3-0.3,0.6-0.4,1.1-0.4c0.3,0,0.5,0.1,0.8,0.2
				c0.2,0.1,0.4,0.3,0.5,0.5S334.9,268.6,334.9,268.9z M332.9,268.9c0,0.3,0,0.5,0.1,0.7s0.3,0.2,0.5,0.2c0.2,0,0.4-0.1,0.5-0.2
				s0.1-0.4,0.1-0.7c0-0.3,0-0.5-0.1-0.7s-0.3-0.2-0.5-0.2c-0.2,0-0.4,0.1-0.5,0.2S332.9,268.6,332.9,268.9z"/>
			<path class="st1" d="M338.2,270.4h-0.8v-1.8c0-0.2,0-0.4-0.1-0.5s-0.2-0.2-0.4-0.2c-0.2,0-0.4,0.1-0.5,0.2
				c-0.1,0.2-0.2,0.4-0.2,0.8v1.4h-0.8v-3h0.6l0.1,0.4h0c0.1-0.1,0.2-0.3,0.4-0.3s0.3-0.1,0.5-0.1c0.3,0,0.6,0.1,0.8,0.3
				c0.2,0.2,0.3,0.5,0.3,0.8V270.4z"/>
			<path class="st1" d="M338.7,266.6c0-0.3,0.1-0.4,0.4-0.4c0.3,0,0.4,0.1,0.4,0.4c0,0.1,0,0.2-0.1,0.3c-0.1,0.1-0.2,0.1-0.3,0.1
				C338.9,267,338.7,266.9,338.7,266.6z M339.6,270.4h-0.8v-3h0.8V270.4z"/>
			<path class="st1" d="M341.5,269.8c0.1,0,0.3,0,0.5-0.1v0.6c-0.2,0.1-0.5,0.1-0.8,0.1c-0.3,0-0.6-0.1-0.7-0.2
				c-0.1-0.2-0.2-0.4-0.2-0.7V268h-0.4v-0.3l0.5-0.3l0.2-0.6h0.5v0.6h0.8v0.6h-0.8v1.4c0,0.1,0,0.2,0.1,0.3S341.4,269.8,341.5,269.8
				z"/>
			<path class="st1" d="M345.1,268.9c0,0.5-0.1,0.9-0.4,1.1c-0.3,0.3-0.6,0.4-1.1,0.4c-0.3,0-0.5-0.1-0.8-0.2
				c-0.2-0.1-0.4-0.3-0.5-0.5s-0.2-0.5-0.2-0.8c0-0.5,0.1-0.9,0.4-1.1c0.3-0.3,0.6-0.4,1.1-0.4c0.3,0,0.5,0.1,0.8,0.2
				c0.2,0.1,0.4,0.3,0.5,0.5S345.1,268.6,345.1,268.9z M343.1,268.9c0,0.3,0,0.5,0.1,0.7s0.3,0.2,0.5,0.2c0.2,0,0.4-0.1,0.5-0.2
				s0.1-0.4,0.1-0.7c0-0.3,0-0.5-0.1-0.7s-0.3-0.2-0.5-0.2c-0.2,0-0.4,0.1-0.5,0.2S343.1,268.6,343.1,268.9z"/>
			<path class="st1" d="M347.3,267.4c0.1,0,0.2,0,0.3,0l-0.1,0.8c-0.1,0-0.1,0-0.2,0c-0.3,0-0.5,0.1-0.6,0.2
				c-0.1,0.1-0.2,0.3-0.2,0.6v1.5h-0.8v-3h0.6l0.1,0.5h0c0.1-0.2,0.2-0.3,0.4-0.4C346.9,267.4,347.1,267.4,347.3,267.4z"/>
			<path class="st1" d="M347.8,266.6c0-0.3,0.1-0.4,0.4-0.4c0.3,0,0.4,0.1,0.4,0.4c0,0.1,0,0.2-0.1,0.3c-0.1,0.1-0.2,0.1-0.3,0.1
				C348,267,347.8,266.9,347.8,266.6z M348.7,270.4h-0.8v-3h0.8V270.4z"/>
			<path class="st1" d="M352.1,270.4h-0.8v-1.8c0-0.2,0-0.4-0.1-0.5s-0.2-0.2-0.4-0.2c-0.2,0-0.4,0.1-0.5,0.2
				c-0.1,0.2-0.2,0.4-0.2,0.8v1.4h-0.8v-3h0.6l0.1,0.4h0c0.1-0.1,0.2-0.3,0.4-0.3s0.3-0.1,0.5-0.1c0.3,0,0.6,0.1,0.8,0.3
				c0.2,0.2,0.3,0.5,0.3,0.8V270.4z"/>
			<path class="st1" d="M355.3,267.4v0.4l-0.5,0.1c0.1,0.1,0.1,0.3,0.1,0.5c0,0.3-0.1,0.6-0.3,0.8c-0.2,0.2-0.5,0.3-0.9,0.3l-0.1,0
				l-0.1,0c-0.1,0.1-0.1,0.1-0.1,0.2c0,0.1,0.2,0.2,0.5,0.2h0.5c0.3,0,0.6,0.1,0.8,0.2s0.3,0.3,0.3,0.6c0,0.4-0.1,0.6-0.4,0.8
				c-0.3,0.2-0.7,0.3-1.3,0.3c-0.4,0-0.7-0.1-1-0.2c-0.2-0.1-0.3-0.4-0.3-0.6c0-0.2,0.1-0.3,0.2-0.5c0.1-0.1,0.3-0.2,0.5-0.3
				c-0.1,0-0.2-0.1-0.2-0.2c-0.1-0.1-0.1-0.2-0.1-0.3c0-0.1,0-0.2,0.1-0.3s0.2-0.2,0.3-0.2c-0.2-0.1-0.3-0.2-0.4-0.3
				s-0.1-0.3-0.1-0.5c0-0.3,0.1-0.6,0.3-0.8c0.2-0.2,0.5-0.3,0.9-0.3c0.1,0,0.2,0,0.3,0c0.1,0,0.2,0,0.2,0H355.3z M353,270.8
				c0,0.1,0.1,0.2,0.2,0.3s0.3,0.1,0.5,0.1c0.3,0,0.5,0,0.7-0.1c0.2-0.1,0.2-0.2,0.2-0.3c0-0.1,0-0.2-0.1-0.2
				c-0.1,0-0.3-0.1-0.5-0.1h-0.4c-0.2,0-0.3,0-0.4,0.1C353.1,270.6,353,270.7,353,270.8z M353.3,268.4c0,0.2,0,0.3,0.1,0.4
				s0.2,0.1,0.3,0.1c0.2,0,0.3,0,0.3-0.1c0.1-0.1,0.1-0.2,0.1-0.4c0-0.4-0.1-0.5-0.4-0.5C353.5,267.8,353.3,268,353.3,268.4z"/>
		</g>
	</g>
</g>
</svg>
